<svg width="39" height="40" viewBox="0 0 39 40" fill="none" xmlns="http://www.w3.org/2000/svg">
<g clip-path="url(#clip0_1278_960)">
<path d="M19.4006 38.8702C15.6595 38.8702 12.0024 37.7608 8.89184 35.6824C5.78125 33.604 3.35684 30.6498 1.92519 27.1935C0.493547 23.7372 0.118963 19.934 0.84881 16.2648C1.57866 12.5956 3.38015 9.22527 6.02549 6.57994C8.67083 3.9346 12.0412 2.1331 15.7104 1.40325C19.3796 0.673407 23.1828 1.04799 26.6391 2.47964C30.0954 3.91128 33.0495 6.33569 35.128 9.44628C37.2064 12.5569 38.3157 16.2139 38.3157 19.955C38.31 24.9699 36.3153 29.7777 32.7693 33.3237C29.2232 36.8698 24.4154 38.8645 19.4006 38.8702ZM19.4006 2.12067C15.8733 2.12067 12.4252 3.16664 9.49233 5.1263C6.55949 7.08596 4.27362 9.8713 2.92379 13.1301C1.57395 16.3889 1.22077 19.9748 1.90891 23.4343C2.59705 26.8938 4.29561 30.0716 6.78978 32.5658C9.28396 35.0599 12.4617 36.7585 15.9212 37.4466C19.3808 38.1348 22.9667 37.7816 26.2255 36.4318C29.4842 35.0819 32.2696 32.7961 34.2293 29.8632C36.1889 26.9304 37.2349 23.4823 37.2349 19.955C37.2294 15.2267 35.3487 10.6936 32.0053 7.35023C28.6619 4.00682 24.1288 2.12611 19.4006 2.12067Z" fill="#217946"/>
<path d="M25.0799 33.3422C24.9554 33.3423 24.8347 33.2994 24.7382 33.2208C24.6417 33.1422 24.5753 33.0327 24.5502 32.9108C24.5251 32.7888 24.5428 32.662 24.6005 32.5516C24.6581 32.4413 24.752 32.3542 24.8664 32.3051C25.345 32.0968 25.8098 31.8581 26.258 31.5907C26.3191 31.553 26.3871 31.5279 26.458 31.5168C26.5289 31.5057 26.6013 31.5088 26.6709 31.5259C26.7406 31.5431 26.8062 31.574 26.8638 31.6167C26.9214 31.6595 26.97 31.7133 27.0066 31.775C27.0432 31.8367 27.0671 31.9051 27.077 31.9762C27.0869 32.0473 27.0825 32.1196 27.0642 32.189C27.0458 32.2584 27.0138 32.3234 26.97 32.3802C26.9263 32.4371 26.8716 32.4847 26.8093 32.5202C26.3221 32.8115 25.8166 33.0711 25.2961 33.2974C25.2279 33.3272 25.1543 33.3425 25.0799 33.3422Z" fill="#217946"/>
<path d="M15.7952 34.0765C15.7484 34.0764 15.7017 34.0704 15.6563 34.0587C12.5737 33.242 9.84333 31.4383 7.88266 28.9233C5.92199 26.4082 4.83891 23.3203 4.799 20.1316C4.75908 16.9428 5.76453 13.8288 7.66164 11.2655C9.55874 8.70215 12.2431 6.83064 15.3043 5.93706C18.3655 5.04347 21.6352 5.17698 24.6134 6.31718C27.5915 7.45738 30.1144 9.54153 31.7962 12.251C33.4779 14.9604 34.2262 18.1461 33.9264 21.321C33.6266 24.4958 32.2954 27.4852 30.1362 29.832C30.0393 29.9376 29.9044 30.0004 29.7612 30.0066C29.618 30.0128 29.4782 29.9618 29.3725 29.8649C29.2669 29.768 29.2041 29.6331 29.1979 29.4899C29.1917 29.3467 29.2427 29.2069 29.3396 29.1013C31.3379 26.929 32.5699 24.1622 32.8473 21.2236C33.1246 18.2851 32.4321 15.3366 30.8755 12.8288C29.3189 10.321 26.9839 8.39197 24.2275 7.33652C21.4711 6.28107 18.4448 6.1573 15.6114 6.98412C12.778 7.81095 10.2933 9.54289 8.53711 11.9152C6.78093 14.2875 5.84991 17.1696 5.88638 20.121C5.92285 23.0723 6.92479 25.9306 8.73904 28.2587C10.5533 30.5869 13.08 32.2569 15.933 33.0135C16.06 33.0469 16.1705 33.1255 16.2438 33.2345C16.3171 33.3434 16.3482 33.4753 16.3313 33.6056C16.3144 33.7358 16.2507 33.8554 16.152 33.9421C16.0534 34.0288 15.9265 34.0766 15.7952 34.0765Z" fill="#217946"/>
<path d="M19.853 34.536C19.7097 34.5381 19.5714 34.4832 19.4686 34.3833C19.3658 34.2834 19.3068 34.1468 19.3047 34.0034C19.3027 33.8601 19.3576 33.7218 19.4575 33.619C19.5574 33.5162 19.694 33.4573 19.8373 33.4552C20.3471 33.4422 20.8556 33.3974 21.3597 33.3211C21.4999 33.3025 21.6417 33.3394 21.7549 33.4241C21.8681 33.5088 21.9436 33.6345 21.9652 33.7741C21.9868 33.9138 21.9529 34.0564 21.8706 34.1714C21.7883 34.2863 21.6643 34.3645 21.5251 34.389C20.9769 34.4725 20.4241 34.5214 19.8698 34.5355L19.853 34.536Z" fill="#217946"/>
<path d="M19.3996 10.1303C19.2788 10.1303 19.1631 10.0823 19.0777 9.99695C18.9923 9.91157 18.9443 9.79578 18.9443 9.67503V9.26531C18.9443 9.14457 18.9923 9.02877 19.0777 8.9434C19.1631 8.85802 19.2788 8.81006 19.3996 8.81006C19.5203 8.81006 19.6361 8.85802 19.7215 8.9434C19.8069 9.02877 19.8548 9.14457 19.8548 9.26531V9.67503C19.8548 9.79578 19.8069 9.91157 19.7215 9.99695C19.6361 10.0823 19.5203 10.1303 19.3996 10.1303Z" fill="#217946"/>
<path d="M14.3691 11.4765C14.2891 11.4766 14.2105 11.4556 14.1412 11.4156C14.0719 11.3757 14.0144 11.3181 13.9744 11.2489L13.7704 10.8956C13.711 10.7911 13.6953 10.6673 13.7268 10.5513C13.7583 10.4353 13.8344 10.3364 13.9386 10.2763C14.0427 10.2162 14.1663 10.1997 14.2826 10.2305C14.3988 10.2612 14.4981 10.3366 14.5589 10.4403L14.7629 10.7932C14.8028 10.8623 14.8239 10.9408 14.8239 11.0207C14.8239 11.1005 14.8029 11.179 14.763 11.2482C14.7231 11.3174 14.6657 11.3749 14.5965 11.4149C14.5274 11.4549 14.449 11.4764 14.3691 11.4765Z" fill="#217946"/>
<path d="M10.6858 15.1598C10.6059 15.1598 10.5274 15.1388 10.4582 15.0988L10.1049 14.8949C10.0012 14.8341 9.92573 14.7347 9.89501 14.6185C9.86428 14.5023 9.88077 14.3786 9.94088 14.2745C10.001 14.1704 10.0998 14.0943 10.2159 14.0628C10.3319 14.0313 10.4556 14.047 10.5601 14.1064L10.9134 14.3103C11.0002 14.3604 11.068 14.4378 11.1064 14.5304C11.1447 14.6229 11.1514 14.7256 11.1255 14.8224C11.0996 14.9192 11.0424 15.0047 10.9629 15.0657C10.8834 15.1267 10.786 15.1598 10.6858 15.1598Z" fill="#217946"/>
<path d="M9.33861 20.1913H8.92888C8.80814 20.1913 8.69235 20.1433 8.60697 20.0579C8.5216 19.9725 8.47363 19.8568 8.47363 19.736C8.47363 19.6153 8.5216 19.4995 8.60697 19.4141C8.69235 19.3287 8.80814 19.2808 8.92888 19.2808H9.33861C9.45935 19.2808 9.57514 19.3287 9.66052 19.4141C9.7459 19.4995 9.79386 19.6153 9.79386 19.736C9.79386 19.8568 9.7459 19.9725 9.66052 20.0579C9.57514 20.1433 9.45935 20.1913 9.33861 20.1913Z" fill="#217946"/>
<path d="M10.3322 25.4268C10.232 25.4268 10.1346 25.3937 10.0551 25.3327C9.97555 25.2717 9.9184 25.1861 9.89247 25.0893C9.86653 24.9925 9.87326 24.8899 9.9116 24.7973C9.94995 24.7047 10.0178 24.6274 10.1046 24.5773L10.4578 24.3733C10.5096 24.3429 10.5669 24.3231 10.6264 24.315C10.6859 24.3069 10.7464 24.3106 10.8044 24.3259C10.8625 24.3413 10.9169 24.3679 10.9646 24.4044C11.0123 24.4409 11.0523 24.4864 11.0823 24.5384C11.1123 24.5904 11.1318 24.6478 11.1395 24.7074C11.1473 24.7669 11.1432 24.8274 11.1274 24.8853C11.1117 24.9433 11.0847 24.9975 11.0479 25.045C11.0111 25.0924 10.9653 25.1321 10.9131 25.1618L10.5598 25.3658C10.4906 25.4057 10.4121 25.4268 10.3322 25.4268Z" fill="#217946"/>
<path d="M14.1657 29.259C14.0858 29.2589 14.0074 29.2378 13.9383 29.1978C13.8691 29.1578 13.8117 29.1003 13.7718 29.0311C13.7319 28.9619 13.7109 28.8835 13.7109 28.8036C13.711 28.7237 13.732 28.6453 13.7719 28.5761L13.9759 28.2228C14.0367 28.1191 14.136 28.0437 14.2523 28.0129C14.3685 27.9822 14.4921 27.9987 14.5963 28.0588C14.7004 28.1189 14.7765 28.2178 14.808 28.3338C14.8395 28.4498 14.8238 28.5736 14.7644 28.6781L14.5604 29.0309C14.5205 29.1002 14.463 29.1578 14.3937 29.1979C14.3244 29.2379 14.2458 29.259 14.1657 29.259Z" fill="#217946"/>
<path d="M19.3996 30.662C19.2788 30.662 19.1631 30.6141 19.0777 30.5287C18.9923 30.4433 18.9443 30.3275 18.9443 30.2068V29.797C18.9443 29.6763 18.9923 29.5605 19.0777 29.4751C19.1631 29.3898 19.2788 29.3418 19.3996 29.3418C19.5203 29.3418 19.6361 29.3898 19.7215 29.4751C19.8069 29.5605 19.8548 29.6763 19.8548 29.797V30.2068C19.8548 30.3275 19.8069 30.4433 19.7215 30.5287C19.6361 30.6141 19.5203 30.662 19.3996 30.662Z" fill="#217946"/>
<path d="M24.6347 29.259C24.5547 29.2591 24.4761 29.2381 24.4068 29.1981C24.3375 29.1582 24.28 29.1006 24.24 29.0314L24.0361 28.6786C23.9766 28.574 23.961 28.4503 23.9925 28.3343C24.024 28.2182 24.1001 28.1194 24.2042 28.0593C24.3083 27.9992 24.432 27.9827 24.5482 28.0134C24.6644 28.0441 24.7638 28.1196 24.8246 28.2233L25.0285 28.5766C25.0684 28.6457 25.0895 28.7242 25.0895 28.8041C25.0895 28.884 25.0685 28.9624 25.0286 29.0316C24.9887 29.1008 24.9313 29.1583 24.8622 29.1983C24.793 29.2383 24.7146 29.2589 24.6347 29.259Z" fill="#217946"/>
<path d="M28.4674 25.4268C28.3875 25.4268 28.309 25.4057 28.2398 25.3658L27.8865 25.1618C27.8343 25.1321 27.7885 25.0924 27.7517 25.045C27.7149 24.9975 27.6879 24.9433 27.6722 24.8853C27.6564 24.8274 27.6523 24.7669 27.66 24.7074C27.6678 24.6478 27.6872 24.5904 27.7172 24.5384C27.7473 24.4864 27.7873 24.4409 27.835 24.4044C27.8827 24.3679 27.9371 24.3413 27.9951 24.3259C28.0532 24.3106 28.1137 24.3069 28.1732 24.315C28.2327 24.3231 28.2899 24.3429 28.3417 24.3733L28.695 24.5773C28.7818 24.6274 28.8496 24.7047 28.888 24.7973C28.9263 24.8899 28.933 24.9925 28.9071 25.0893C28.8812 25.1861 28.824 25.2717 28.7445 25.3327C28.665 25.3937 28.5676 25.4268 28.4674 25.4268Z" fill="#217946"/>
<path d="M29.8708 20.1913H29.4611C29.3404 20.1913 29.2246 20.1433 29.1392 20.0579C29.0538 19.9725 29.0059 19.8568 29.0059 19.736C29.0059 19.6153 29.0538 19.4995 29.1392 19.4141C29.2246 19.3287 29.3404 19.2808 29.4611 19.2808H29.8708C29.9916 19.2808 30.1074 19.3287 30.1927 19.4141C30.2781 19.4995 30.3261 19.6153 30.3261 19.736C30.3261 19.8568 30.2781 19.9725 30.1927 20.0579C30.1074 20.1433 29.9916 20.1913 29.8708 20.1913Z" fill="#217946"/>
<path d="M27.8147 14.8099C27.7265 14.8099 27.6408 14.7808 27.5708 14.7271C27.5008 14.6734 27.4505 14.5981 27.4277 14.5129C27.4049 14.4277 27.4108 14.3374 27.4446 14.2559C27.4783 14.1744 27.538 14.1063 27.6144 14.0622L27.9253 13.8827C28.0173 13.8304 28.1262 13.8166 28.2284 13.8443C28.3305 13.872 28.4175 13.939 28.4704 14.0307C28.5233 14.1223 28.5378 14.2311 28.5108 14.3334C28.4837 14.4357 28.4173 14.5232 28.326 14.5767L28.0151 14.7562C27.9542 14.7914 27.8851 14.8099 27.8147 14.8099Z" fill="#217946"/>
<path d="M24.4313 11.4765C24.3515 11.4764 24.273 11.4554 24.2039 11.4154C24.1347 11.3754 24.0773 11.3179 24.0374 11.2487C23.9975 11.1795 23.9765 11.101 23.9766 11.0212C23.9766 10.9413 23.9976 10.8628 24.0376 10.7937L24.2415 10.4408C24.3023 10.3371 24.4017 10.2617 24.5179 10.2309C24.6341 10.2002 24.7578 10.2167 24.8619 10.2768C24.966 10.3369 25.0421 10.4358 25.0736 10.5518C25.1051 10.6678 25.0894 10.7916 25.03 10.8961L24.826 11.2494C24.786 11.3185 24.7284 11.376 24.6591 11.4158C24.5899 11.4557 24.5113 11.4767 24.4313 11.4765Z" fill="#217946"/>
<path d="M18.7179 22.1833C18.2669 22.1833 17.826 22.0495 17.451 21.799C17.076 21.5484 16.7837 21.1923 16.6111 20.7756C16.4385 20.3589 16.3933 19.9004 16.4813 19.458C16.5693 19.0157 16.7865 18.6094 17.1054 18.2905C17.4243 17.9715 17.8306 17.7544 18.273 17.6664C18.7153 17.5784 19.1738 17.6235 19.5905 17.7961C20.0072 17.9687 20.3634 18.261 20.6139 18.636C20.8645 19.011 20.9982 19.4519 20.9982 19.9029C20.9982 20.5077 20.758 21.0877 20.3303 21.5154C19.9027 21.943 19.3227 22.1833 18.7179 22.1833ZM18.7179 18.7627C18.4924 18.7627 18.2719 18.8296 18.0844 18.9549C17.8969 19.0802 17.7508 19.2583 17.6645 19.4666C17.5782 19.6749 17.5556 19.9042 17.5996 20.1254C17.6436 20.3465 17.7522 20.5497 17.9116 20.7092C18.0711 20.8686 18.2743 20.9772 18.4954 21.0212C18.7166 21.0652 18.9459 21.0426 19.1542 20.9563C19.3625 20.87 19.5406 20.7239 19.6659 20.5364C19.7912 20.3489 19.858 20.1284 19.858 19.9029C19.858 19.6005 19.7379 19.3105 19.5241 19.0967C19.3103 18.8829 19.0203 18.7627 18.7179 18.7627Z" fill="#217946"/>
<path d="M17.4385 19.2595C17.374 19.2596 17.3101 19.2472 17.2508 19.2234C17.1914 19.1995 17.1377 19.1645 17.093 19.1206L14.3281 16.404C14.24 16.3174 14.1919 16.2013 14.1944 16.0813C14.1969 15.9612 14.2498 15.847 14.3415 15.7638C14.4331 15.6806 14.556 15.6352 14.6831 15.6375C14.8102 15.6399 14.9311 15.6899 15.0192 15.7765L17.7836 18.493C17.8487 18.557 17.8925 18.6377 17.9095 18.7249C17.9265 18.8122 17.9159 18.9023 17.8791 18.984C17.8424 19.0657 17.781 19.1353 17.7027 19.1843C17.6243 19.2333 17.5325 19.2595 17.4385 19.2595Z" fill="#217946"/>
<path d="M26.6 20.4729H20.3381C20.2104 20.4729 20.0879 20.4129 19.9975 20.306C19.9072 20.1991 19.8564 20.0541 19.8564 19.9029C19.8564 19.7517 19.9072 19.6067 19.9975 19.4997C20.0879 19.3928 20.2104 19.3328 20.3381 19.3328H26.6C26.7277 19.3328 26.8502 19.3928 26.9406 19.4997C27.0309 19.6067 27.0817 19.7517 27.0817 19.9029C27.0817 20.0541 27.0309 20.1991 26.9406 20.306C26.8502 20.4129 26.7277 20.4729 26.6 20.4729Z" fill="#217946"/>
</g>
<defs>
<clipPath id="clip0_1278_960">
<rect width="38.8" height="38.8" fill="white" transform="translate(0 0.554932)"/>
</clipPath>
</defs>
</svg>
