<svg width="39" height="40" viewBox="0 0 39 40" fill="none" xmlns="http://www.w3.org/2000/svg">
<path d="M1.57376 16.1558C1.46321 16.1559 1.35544 16.1211 1.26587 16.0563C1.17629 15.9915 1.10949 15.9 1.075 15.795C1.04051 15.69 1.0401 15.5767 1.07383 15.4714C1.10756 15.3661 1.17371 15.2742 1.26281 15.2088L6.50648 11.3547C6.56198 11.3139 6.62497 11.2845 6.69184 11.2681C6.75872 11.2516 6.82818 11.2485 6.89625 11.259C6.96432 11.2694 7.02967 11.2931 7.08857 11.3288C7.14748 11.3645 7.19878 11.4114 7.23954 11.4669C7.28031 11.5224 7.30974 11.5854 7.32616 11.6523C7.34259 11.7191 7.34568 11.7886 7.33526 11.8567C7.32484 11.9247 7.30111 11.9901 7.26543 12.049C7.22976 12.1079 7.18283 12.1592 7.12733 12.2L1.88366 16.0541C1.79392 16.1203 1.68529 16.1559 1.57376 16.1558Z" fill="#217946"/>
<path d="M37.2306 38.7034H26.8691C26.73 38.7034 26.5966 38.6482 26.4983 38.5498C26.4 38.4515 26.3447 38.3181 26.3447 38.179C26.3447 38.04 26.4 37.9066 26.4983 37.8083C26.5966 37.7099 26.73 37.6547 26.8691 37.6547H36.7062V15.6313C36.7062 15.4922 36.7614 15.3589 36.8598 15.2605C36.9581 15.1622 37.0915 15.1069 37.2306 15.1069C37.3696 15.1069 37.503 15.1622 37.6014 15.2605C37.6997 15.3589 37.7549 15.4922 37.7549 15.6313V38.179C37.7549 38.3181 37.6997 38.4515 37.6014 38.5498C37.503 38.6482 37.3696 38.7034 37.2306 38.7034Z" fill="#217946"/>
<path d="M17.9708 38.7035H16.4501C16.3111 38.7035 16.1777 38.6483 16.0794 38.5499C15.981 38.4516 15.9258 38.3182 15.9258 38.1792C15.9258 38.0401 15.981 37.9067 16.0794 37.8084C16.1777 37.71 16.3111 37.6548 16.4501 37.6548H17.9708C18.1099 37.6548 18.2433 37.71 18.3416 37.8084C18.4399 37.9067 18.4952 38.0401 18.4952 38.1792C18.4952 38.3182 18.4399 38.4516 18.3416 38.5499C18.2433 38.6483 18.1099 38.7035 17.9708 38.7035Z" fill="#217946"/>
<path d="M12.7789 38.7034H1.57319C1.43412 38.7034 1.30075 38.6482 1.20241 38.5498C1.10407 38.4515 1.04883 38.3181 1.04883 38.179V15.6313C1.04883 15.4922 1.10407 15.3589 1.20241 15.2605C1.30075 15.1622 1.43412 15.1069 1.57319 15.1069C1.71226 15.1069 1.84564 15.1622 1.94398 15.2605C2.04232 15.3589 2.09756 15.4922 2.09756 15.6313V37.6547H12.7789C12.918 37.6547 13.0513 37.7099 13.1497 37.8083C13.248 37.9066 13.3033 38.04 13.3033 38.179C13.3033 38.3181 13.248 38.4515 13.1497 38.5498C13.0513 38.6482 12.918 38.7034 12.7789 38.7034Z" fill="#217946"/>
<path d="M23.1989 38.7035H21.6416C21.5025 38.7035 21.3691 38.6483 21.2708 38.5499C21.1724 38.4516 21.1172 38.3182 21.1172 38.1792C21.1172 38.0401 21.1724 37.9067 21.2708 37.8084C21.3691 37.71 21.5025 37.6548 21.6416 37.6548H23.1989C23.338 37.6548 23.4714 37.71 23.5697 37.8084C23.668 37.9067 23.7233 38.0401 23.7233 38.1792C23.7233 38.3182 23.668 38.4516 23.5697 38.5499C23.4714 38.6483 23.338 38.7035 23.1989 38.7035Z" fill="#217946"/>
<path d="M14.9334 27.4296C14.8097 27.4298 14.69 27.3859 14.5957 27.3058L1.23483 16.032C1.18091 15.9879 1.13629 15.9337 1.10357 15.8722C1.07084 15.8108 1.05068 15.7435 1.04424 15.6742C1.0378 15.6049 1.04523 15.535 1.06608 15.4686C1.08693 15.4022 1.12079 15.3406 1.16569 15.2874C1.21058 15.2342 1.26562 15.1905 1.32758 15.1588C1.38954 15.1271 1.4572 15.1081 1.52659 15.1028C1.59599 15.0976 1.66575 15.1061 1.73179 15.1281C1.79783 15.1501 1.85884 15.1849 1.91127 15.2307L15.2721 26.5046C15.3543 26.574 15.4131 26.6669 15.4406 26.7708C15.4682 26.8747 15.4631 26.9846 15.4262 27.0855C15.3892 27.1865 15.3221 27.2736 15.234 27.3352C15.1458 27.3967 15.0409 27.4297 14.9334 27.4296Z" fill="#217946"/>
<path d="M23.8705 27.4295C23.763 27.4296 23.658 27.3966 23.5699 27.3351C23.4818 27.2736 23.4147 27.1864 23.3777 27.0855C23.3407 26.9845 23.3357 26.8746 23.3632 26.7707C23.3908 26.6668 23.4496 26.5739 23.5317 26.5045L36.8926 15.2307C36.9992 15.1437 37.1356 15.1021 37.2726 15.1148C37.4096 15.1275 37.5361 15.1935 37.6248 15.2987C37.7135 15.4038 37.7574 15.5395 37.747 15.6767C37.7365 15.8138 37.6726 15.9414 37.569 16.0319L24.2082 27.3058C24.1139 27.3858 23.9942 27.4296 23.8705 27.4295Z" fill="#217946"/>
<path d="M37.2304 16.1558C37.1189 16.1559 37.0103 16.1203 36.9205 16.0541L31.6769 12.2C31.6214 12.1592 31.5744 12.1079 31.5388 12.049C31.5031 11.9901 31.4793 11.9247 31.4689 11.8567C31.4585 11.7886 31.4616 11.7191 31.478 11.6523C31.4944 11.5854 31.5239 11.5224 31.5646 11.4669C31.6054 11.4114 31.6567 11.3645 31.7156 11.3288C31.7745 11.2931 31.8399 11.2694 31.9079 11.259C31.976 11.2485 32.0455 11.2516 32.1123 11.2681C32.1792 11.2845 32.2422 11.3139 32.2977 11.3547L37.5414 15.2088C37.6305 15.2742 37.6966 15.3661 37.7304 15.4714C37.7641 15.5767 37.7637 15.69 37.7292 15.795C37.6947 15.9 37.6279 15.9915 37.5383 16.0563C37.4487 16.1211 37.341 16.1559 37.2304 16.1558Z" fill="#217946"/>
<path d="M25.1069 7.2415C24.9954 7.24165 24.8868 7.20599 24.797 7.13977L19.4024 3.17294L14.0077 7.13977C13.8956 7.2221 13.7554 7.25653 13.6179 7.23549C13.4804 7.21444 13.3569 7.13965 13.2746 7.02756C13.1923 6.91547 13.1578 6.77526 13.1789 6.63778C13.1999 6.50031 13.2747 6.37682 13.3868 6.29449L19.0919 2.09956C19.1819 2.03345 19.2907 1.9978 19.4024 1.9978C19.514 1.9978 19.6228 2.03345 19.7128 2.09956L25.4179 6.29449C25.507 6.35993 25.5731 6.45186 25.6069 6.55714C25.6406 6.66243 25.6402 6.77568 25.6057 6.88071C25.5712 6.98575 25.5044 7.0772 25.4148 7.142C25.3252 7.20679 25.2175 7.24162 25.1069 7.2415Z" fill="#217946"/>
<path d="M31.9869 20.5815C31.8478 20.5815 31.7145 20.5262 31.6161 20.4279C31.5178 20.3296 31.4625 20.1962 31.4625 20.0571V7.2416H7.3417V20.0571C7.3417 20.1962 7.28646 20.3296 7.18812 20.4279C7.08978 20.5262 6.95641 20.5815 6.81734 20.5815C6.67826 20.5815 6.54489 20.5262 6.44655 20.4279C6.34821 20.3296 6.29297 20.1962 6.29297 20.0571V6.71724C6.29297 6.57817 6.34821 6.44479 6.44655 6.34645C6.54489 6.24812 6.67826 6.19287 6.81734 6.19287H31.9869C32.126 6.19287 32.2594 6.24812 32.3577 6.34645C32.456 6.44479 32.5113 6.57817 32.5113 6.71724V20.0571C32.5113 20.1962 32.456 20.3296 32.3577 20.4279C32.2594 20.5262 32.126 20.5815 31.9869 20.5815Z" fill="#217946"/>
<path d="M27.3588 11.2619H11.4443C11.3052 11.2619 11.1718 11.2066 11.0735 11.1083C10.9752 11.0099 10.9199 10.8766 10.9199 10.7375C10.9199 10.5984 10.9752 10.4651 11.0735 10.3667C11.1718 10.2684 11.3052 10.2131 11.4443 10.2131H27.3588C27.4979 10.2131 27.6312 10.2684 27.7296 10.3667C27.8279 10.4651 27.8832 10.5984 27.8832 10.7375C27.8832 10.8766 27.8279 11.0099 27.7296 11.1083C27.6312 11.2066 27.4979 11.2619 27.3588 11.2619Z" fill="#217946"/>
<path d="M27.3588 15.1071H11.4443C11.3052 15.1071 11.1718 15.0518 11.0735 14.9535C10.9752 14.8552 10.9199 14.7218 10.9199 14.5827C10.9199 14.4436 10.9752 14.3103 11.0735 14.2119C11.1718 14.1136 11.3052 14.0583 11.4443 14.0583H27.3588C27.4979 14.0583 27.6312 14.1136 27.7296 14.2119C27.8279 14.3103 27.8832 14.4436 27.8832 14.5827C27.8832 14.7218 27.8279 14.8552 27.7296 14.9535C27.6312 15.0518 27.4979 15.1071 27.3588 15.1071Z" fill="#217946"/>
<path d="M27.3588 18.9523H11.4443C11.3052 18.9523 11.1718 18.8971 11.0735 18.7987C10.9752 18.7004 10.9199 18.567 10.9199 18.4279C10.9199 18.2889 10.9752 18.1555 11.0735 18.0571C11.1718 17.9588 11.3052 17.9036 11.4443 17.9036H27.3588C27.4979 17.9036 27.6312 17.9588 27.7296 18.0571C27.8279 18.1555 27.8832 18.2889 27.8832 18.4279C27.8832 18.567 27.8279 18.7004 27.7296 18.7987C27.6312 18.8971 27.4979 18.9523 27.3588 18.9523Z" fill="#217946"/>
<path d="M37.23 38.7034C37.1061 38.7034 36.9863 38.6595 36.8917 38.5796L22.6652 26.5764C21.7532 25.8037 20.5968 25.3796 19.4015 25.3796C18.2063 25.3796 17.0498 25.8037 16.1378 26.5764L1.91127 38.5796C1.85884 38.6254 1.79783 38.6603 1.73179 38.6822C1.66575 38.7042 1.59599 38.7128 1.52659 38.7075C1.4572 38.7022 1.38954 38.6832 1.32758 38.6515C1.26562 38.6198 1.21058 38.5761 1.16569 38.5229C1.12079 38.4697 1.08693 38.4082 1.06608 38.3418C1.04523 38.2754 1.0378 38.2055 1.04424 38.1362C1.05068 38.0669 1.07084 37.9995 1.10357 37.9381C1.13629 37.8767 1.18091 37.8224 1.23483 37.7784L15.4614 25.7746C16.5623 24.8416 17.9585 24.3296 19.4015 24.3296C20.8445 24.3296 22.2407 24.8416 23.3416 25.7746L37.5682 37.7784C37.6503 37.8477 37.7091 37.9406 37.7367 38.0445C37.7642 38.1483 37.7592 38.2582 37.7223 38.3591C37.6854 38.46 37.6184 38.5472 37.5303 38.6087C37.4423 38.6703 37.3374 38.7034 37.23 38.7034Z" fill="#217946"/>
</svg>
