<svg width="21" height="21" viewBox="0 0 21 21" fill="none" xmlns="http://www.w3.org/2000/svg">
<g clip-path="url(#clip0_1328_1822)">
<path d="M19.3 10.2599C19.3 9.60989 19.2417 8.98489 19.1333 8.38489H10.5V11.9349H15.4333C15.2167 13.0766 14.5667 14.0432 13.5917 14.6932V17.0016H16.5667C18.3 15.4016 19.3 13.0516 19.3 10.2599Z" fill="#4285F4"/>
<path d="M10.5 19.2182C12.975 19.2182 15.05 18.4016 16.5667 17.0016L13.5917 14.6932C12.775 15.2432 11.7333 15.5766 10.5 15.5766C8.11665 15.5766 6.09165 13.9682 5.36665 11.8016H2.31665V14.1682C3.82498 17.1599 6.91665 19.2182 10.5 19.2182Z" fill="#34A853"/>
<path d="M5.36671 11.7932C5.18337 11.2432 5.07504 10.6599 5.07504 10.0516C5.07504 9.44324 5.18337 8.8599 5.36671 8.3099V5.94324H2.31671C1.69171 7.17657 1.33337 8.56824 1.33337 10.0516C1.33337 11.5349 1.69171 12.9266 2.31671 14.1599L4.69171 12.3099L5.36671 11.7932Z" fill="#FBBC05"/>
<path d="M10.5 4.53489C11.85 4.53489 13.05 5.00155 14.0083 5.90155L16.6333 3.27655C15.0417 1.79322 12.975 0.884888 10.5 0.884888C6.91665 0.884888 3.82498 2.94322 2.31665 5.94322L5.36665 8.30989C6.09165 6.14322 8.11665 4.53489 10.5 4.53489Z" fill="#EA4335"/>
</g>
<defs>
<clipPath id="clip0_1328_1822">
<rect width="20" height="20" fill="white" transform="translate(0.5 0.0515747)"/>
</clipPath>
</defs>
</svg>
