<svg width="39" height="39" viewBox="0 0 39 39" fill="none" xmlns="http://www.w3.org/2000/svg">
<g clip-path="url(#clip0_1161_834)">
<path d="M26.8447 28.7188C26.7469 28.7187 26.6508 28.6926 26.5664 28.6431C26.4821 28.5936 26.4124 28.5226 26.3645 28.4373C26.3166 28.352 26.2923 28.2555 26.294 28.1576C26.2958 28.0598 26.3235 27.9643 26.3744 27.8807C26.6241 27.471 26.8645 27.0536 27.1082 26.6291L27.1777 26.5083C27.2139 26.4456 27.2621 26.3905 27.3196 26.3464C27.3771 26.3022 27.4427 26.2698 27.5127 26.2511C27.5827 26.2323 27.6557 26.2274 27.7275 26.2369C27.7994 26.2463 27.8687 26.2698 27.9314 26.306C27.9942 26.3422 28.0493 26.3904 28.0934 26.4479C28.1375 26.5053 28.1699 26.5709 28.1887 26.6409C28.2075 26.7109 28.2123 26.7839 28.2029 26.8558C28.1935 26.9276 28.17 26.9969 28.1338 27.0597L28.0643 27.1799C27.8162 27.6116 27.5681 28.0384 27.3161 28.4558C27.2667 28.5364 27.1973 28.6029 27.1148 28.6489C27.0322 28.695 26.9392 28.7191 26.8447 28.7188Z" fill="#217946"/>
<path d="M19.4014 38.853C19.3248 38.8529 19.2491 38.8369 19.179 38.8059C19.109 38.775 19.0461 38.7298 18.9945 38.6732C16.6815 36.0491 14.5632 33.2596 12.6564 30.327C8.42904 23.8186 6.28418 18.1151 6.28418 13.3738C6.28418 9.89493 7.66617 6.55851 10.1261 4.09855C12.5861 1.63858 15.9225 0.256592 19.4014 0.256592C22.8803 0.256592 26.2168 1.63858 28.6767 4.09855C31.1367 6.55851 32.5187 9.89493 32.5187 13.3738C32.5013 15.0322 32.2709 16.6814 31.8333 18.2811C31.796 18.4225 31.7041 18.5433 31.5777 18.6169C31.4514 18.6906 31.3009 18.711 31.1595 18.6737C31.0181 18.6364 30.8973 18.5444 30.8237 18.4181C30.7501 18.2917 30.7297 18.1413 30.767 17.9999C31.1805 16.492 31.3987 14.9373 31.4159 13.3738C31.4159 10.1874 30.1501 7.13146 27.897 4.87831C25.6438 2.62515 22.5879 1.35935 19.4014 1.35935C16.215 1.35935 13.1591 2.62515 10.9059 4.87831C8.65274 7.13146 7.38693 10.1874 7.38693 13.3738C7.38693 23.0731 17.2582 34.9933 19.4014 37.4684C21.1474 35.4431 22.781 33.3235 24.2949 31.1193C24.335 31.0576 24.387 31.0045 24.448 30.9632C24.5089 30.922 24.5775 30.8933 24.6497 30.8789C24.7219 30.8645 24.7962 30.8648 24.8683 30.8796C24.9404 30.8944 25.0088 30.9235 25.0695 30.9652C25.1302 31.0069 25.1819 31.0603 25.2216 31.1223C25.2613 31.1842 25.2882 31.2535 25.3007 31.3261C25.3132 31.3986 25.311 31.4729 25.2943 31.5446C25.2777 31.6163 25.2468 31.6839 25.2036 31.7435C23.5495 34.1624 21.7475 36.4767 19.8078 38.6732C19.7562 38.7297 19.6935 38.7749 19.6235 38.8058C19.5536 38.8368 19.4779 38.8528 19.4014 38.853Z" fill="#217946"/>
<path d="M29.4083 23.8997C29.3158 23.8997 29.2248 23.8763 29.1437 23.8318C29.0626 23.7874 28.994 23.7232 28.9442 23.6453C28.8944 23.5674 28.865 23.4782 28.8587 23.3859C28.8524 23.2937 28.8694 23.2013 28.9082 23.1173C29.1287 22.6415 29.3377 22.1552 29.5478 21.6319C29.6023 21.4962 29.7085 21.3877 29.843 21.3304C29.9776 21.273 30.1294 21.2714 30.2651 21.3259C30.4008 21.3805 30.5093 21.4867 30.5667 21.6212C30.6241 21.7557 30.6257 21.9076 30.5711 22.0433C30.3506 22.5842 30.1372 23.0865 29.9095 23.5794C29.8653 23.6751 29.7946 23.7562 29.7058 23.813C29.6169 23.8697 29.5137 23.8999 29.4083 23.8997Z" fill="#217946"/>
<path d="M19.4004 23.2596C17.5226 23.2596 15.687 22.7027 14.1257 21.6595C12.5644 20.6163 11.3475 19.1335 10.629 17.3987C9.91036 15.6638 9.72235 13.7549 10.0887 11.9132C10.455 10.0715 11.3592 8.3798 12.687 7.05202C14.0148 5.72424 15.7065 4.82001 17.5482 4.45367C19.3899 4.08734 21.2988 4.27535 23.0337 4.99394C24.7685 5.71253 26.2513 6.92942 27.2945 8.49073C28.3377 10.052 28.8946 11.8876 28.8946 13.7654C28.8916 16.2825 27.8904 18.6957 26.1106 20.4756C24.3307 22.2554 21.9175 23.2566 19.4004 23.2596ZM19.4004 5.374C17.7407 5.374 16.1184 5.86615 14.7384 6.7882C13.3584 7.71026 12.2829 9.02082 11.6478 10.5541C11.0126 12.0875 10.8465 13.7747 11.1702 15.4025C11.494 17.0303 12.2932 18.5255 13.4668 19.699C14.6404 20.8726 16.1356 21.6718 17.7633 21.9956C19.3911 22.3193 21.0783 22.1532 22.6117 21.518C24.145 20.8829 25.4555 19.8074 26.3776 18.4274C27.2997 17.0475 27.7918 15.4251 27.7918 13.7654C27.7893 11.5406 26.9044 9.40768 25.3313 7.83452C23.7581 6.26137 21.6252 5.37648 19.4004 5.374Z" fill="#217946"/>
</g>
<defs>
<clipPath id="clip0_1161_834">
<rect width="38.8031" height="38.8031" fill="white" transform="translate(0 0.15332)"/>
</clipPath>
</defs>
</svg>
