<svg width="39" height="40" viewBox="0 0 39 40" fill="none" xmlns="http://www.w3.org/2000/svg">
<path d="M12.4699 30.5584C12.9999 30.991 13.5465 31.4001 14.108 31.7848M9.622 27.821C5.68753 23.3729 3.49805 17.626 3.49805 11.6533C3.49644 9.55139 4.25829 7.52041 5.64191 5.93809C7.02553 4.35577 8.93675 3.32982 11.0201 3.05104C11.3281 3.01445 11.6396 3.07859 11.9081 3.23386C12.1766 3.38912 12.3876 3.62716 12.5095 3.91235L16.301 12.3818C16.3941 12.5994 16.4321 12.8366 16.4114 13.0723C16.3908 13.308 16.3121 13.535 16.1826 13.733L12.348 18.2926C12.2119 18.4978 12.1315 18.7348 12.1145 18.9805C12.0975 19.2261 12.1446 19.472 12.2511 19.694C13.735 22.7319 16.8752 25.8344 19.9221 27.304C20.1452 27.41 20.3922 27.456 20.6386 27.4374C20.885 27.4188 21.1223 27.3363 21.3271 27.1981L25.8184 23.3778C26.0172 23.2456 26.2459 23.165 26.4837 23.1433C26.7215 23.1217 26.961 23.1598 27.1803 23.254L35.6427 27.0456C35.9279 27.1675 36.1659 27.3784 36.3212 27.6469C36.4764 27.9154 36.5406 28.2269 36.504 28.5349C36.2252 30.6183 35.1992 32.5295 33.6169 33.9131C32.0346 35.2967 30.0036 36.0586 27.9017 36.057C27.115 36.057 26.3323 36.019 25.556 35.944M17.3206 33.6438C18.1983 34.066 19.1005 34.4354 20.0223 34.75" stroke="#217946" strokeWidth="1.18392" strokeLinecap="round" strokeLinejoin="round"/>
</svg>
