<svg width="19" height="20" viewBox="0 0 19 20" fill="none" xmlns="http://www.w3.org/2000/svg">
<path d="M9.02653 2.1151C9.26578 1.63358 9.95268 1.63358 10.1919 2.1151L12.1459 6.04769C12.2406 6.23838 12.4226 6.37064 12.6333 6.40182L16.9772 7.04487C17.5091 7.12361 17.7213 7.7769 17.3373 8.15323L14.201 11.2268C14.0489 11.3758 13.9794 11.5898 14.0148 11.7998L14.7456 16.1298C14.835 16.66 14.2793 17.0637 13.8027 16.8148L9.91047 14.7817C9.72174 14.6832 9.49672 14.6832 9.30799 14.7817L5.41571 16.8148C4.93913 17.0637 4.38341 16.66 4.47289 16.1298L5.20365 11.7998C5.23908 11.5898 5.16955 11.3758 5.01747 11.2268L1.88115 8.15323C1.49713 7.7769 1.70939 7.12361 2.24128 7.04487L6.58519 6.40182C6.79582 6.37064 6.97787 6.23838 7.07261 6.04769L9.02653 2.1151Z" fill="#FEA500"/>
</svg>
