<svg width="82" height="82" viewBox="0 0 82 82" fill="none" xmlns="http://www.w3.org/2000/svg">
<g clip-path="url(#clip0_1161_638)">
<path d="M67.4093 53.1946C67.2027 53.1946 67.0002 53.137 66.8245 53.0284C66.6487 52.9198 66.5067 52.7644 66.4143 52.5796C66.3219 52.3948 66.2828 52.188 66.3014 51.9822C66.3199 51.7765 66.3954 51.5799 66.5194 51.4147C67.1712 50.5358 67.8131 49.6281 68.4261 48.7192C68.5932 48.48 68.8477 48.3161 69.1346 48.2628C69.4215 48.2094 69.7179 48.271 69.9599 48.4341C70.2018 48.5973 70.37 48.849 70.4281 49.1349C70.4862 49.4209 70.4296 49.7183 70.2705 49.9629C69.6397 50.8996 68.9778 51.834 68.3048 52.744C68.2012 52.884 68.0662 52.9976 67.9107 53.0759C67.7552 53.1541 67.5834 53.1948 67.4093 53.1946Z" fill="#217946"/>
<path d="M40.193 79.6037C39.9641 79.6037 39.7407 79.533 39.5534 79.4013C32.7194 74.3882 26.3357 68.7885 20.4751 62.6658C7.72328 49.2654 1.25781 36.7994 1.25781 25.6173C1.25781 12.4471 11.7025 1.73328 24.5411 1.73328C30.358 1.72884 35.9569 3.94651 40.193 7.93288C44.4292 3.94651 50.0281 1.72884 55.845 1.73328C68.6836 1.73328 79.1283 12.4471 79.1283 25.6173C78.9663 31.687 77.3609 37.6309 74.4449 42.9568C74.38 43.0897 74.2892 43.2084 74.1779 43.3058C74.0665 43.4033 73.9369 43.4775 73.7965 43.5242C73.6561 43.5709 73.5078 43.5892 73.3603 43.5779C73.2128 43.5666 73.069 43.5259 72.9373 43.4584C72.8057 43.3908 72.6889 43.2977 72.5937 43.1844C72.4985 43.0712 72.4268 42.9401 72.3829 42.7988C72.339 42.6575 72.3238 42.5089 72.338 42.3616C72.3522 42.2143 72.3957 42.0714 72.4659 41.9411C75.2185 36.9287 76.7395 31.3334 76.9034 25.6173C76.9034 13.6742 67.4566 3.95815 55.845 3.95815C53.0721 3.95839 50.3277 4.51688 47.7753 5.60034C45.2229 6.6838 42.9147 8.27005 40.9884 10.2645C40.7749 10.4705 40.4897 10.5856 40.193 10.5856C39.8963 10.5856 39.6112 10.4705 39.3976 10.2645C37.4713 8.27005 35.1632 6.6838 32.6108 5.60034C30.0583 4.51688 27.3139 3.95839 24.5411 3.95815C12.9295 3.95815 3.48268 13.6742 3.48268 25.6173C3.48268 49.1341 35.2549 73.4764 40.193 77.123C45.0731 73.4908 49.7204 69.5558 54.1074 65.3412C54.2118 65.2358 54.3363 65.1524 54.4735 65.0958C54.6107 65.0393 54.7578 65.0108 54.9062 65.0119C55.0546 65.0131 55.2012 65.0439 55.3375 65.1026C55.4738 65.1614 55.5969 65.2467 55.6997 65.3537C55.8025 65.4608 55.8829 65.5873 55.936 65.7258C55.9892 65.8643 56.0141 66.0121 56.0093 66.1604C56.0045 66.3087 55.97 66.4546 55.908 66.5894C55.846 66.7242 55.7576 66.8452 55.6481 66.9453C50.9968 71.4284 46.047 75.591 40.8327 79.4046C40.645 79.5351 40.4216 79.6046 40.193 79.6037Z" fill="#217946"/>
<path d="M60.3316 61.6934C60.1144 61.6935 59.9018 61.63 59.7202 61.5106C59.5387 61.3913 59.396 61.2214 59.3099 61.022C59.2238 60.8225 59.1979 60.6022 59.2356 60.3882C59.2732 60.1742 59.3727 59.9759 59.5218 59.8178C60.2449 59.0503 60.9572 58.2612 61.6588 57.4506C61.8526 57.2272 62.1272 57.09 62.4222 57.0692C62.7172 57.0483 63.0084 57.1455 63.2317 57.3393C63.4551 57.5332 63.5923 57.8078 63.6131 58.1028C63.634 58.3978 63.5368 58.689 63.343 58.9123C62.6199 59.7466 61.8857 60.5591 61.1404 61.3497C61.036 61.4589 60.9104 61.5457 60.7714 61.6048C60.6323 61.6639 60.4827 61.694 60.3316 61.6934Z" fill="#217946"/>
<path d="M41.7613 40.7971C37.0178 32.8897 43.3425 24.9838 56.7841 25.7744C57.5821 39.216 49.6688 45.5407 41.7613 40.7971Z" stroke="#217946" stroke-width="1.70138" stroke-linecap="round" stroke-linejoin="round"/>
<path d="M34.317 42.4331C37.7052 36.786 33.1875 31.1389 23.586 31.7021C23.0213 41.3037 28.6699 45.8214 34.317 42.4331Z" stroke="#217946" stroke-width="1.70138" stroke-linecap="round" stroke-linejoin="round"/>
<path d="M29.4922 37.608L39.0031 47.1189" stroke="#217946" stroke-width="1.70138" stroke-linecap="round" stroke-linejoin="round"/>
<path d="M50.8965 31.6635L41.7942 40.7657C40.9108 41.6489 40.2101 42.6975 39.732 43.8515C39.2539 45.0056 39.0078 46.2425 39.0078 47.4917V51.8741" stroke="#217946" stroke-width="1.70138" stroke-linecap="round" stroke-linejoin="round"/>
</g>
<defs>
<clipPath id="clip0_1161_638">
<rect width="77.8702" height="77.8702" fill="white" transform="translate(1.25781 1.7334)"/>
</clipPath>
</defs>
</svg>
