<svg width="82" height="82" viewBox="0 0 82 82" fill="none" xmlns="http://www.w3.org/2000/svg">
<g clip-path="url(#clip0_1161_638)">
<path d="M67.919 53.1946C67.7124 53.1946 67.5098 53.137 67.3341 53.0284C67.1584 52.9198 67.0164 52.7644 66.924 52.5796C66.8316 52.3948 66.7925 52.188 66.811 51.9822C66.8296 51.7765 66.905 51.5799 67.029 51.4147C67.6809 50.5358 68.3228 49.6281 68.9357 48.7192C69.1029 48.48 69.3573 48.3161 69.6443 48.2628C69.9312 48.2094 70.2275 48.271 70.4695 48.4341C70.7115 48.5973 70.8796 48.849 70.9377 49.1349C70.9958 49.4209 70.9392 49.7183 70.7801 49.9629C70.1494 50.8996 69.4875 51.834 68.8145 52.744C68.7109 52.884 68.5759 52.9976 68.4203 53.0759C68.2648 53.1541 68.0931 53.1948 67.919 53.1946Z" fill="#217946"/>
<path d="M40.699 79.6037C40.47 79.6037 40.2467 79.533 40.0594 79.4013C33.2254 74.3882 26.8417 68.7885 20.9811 62.6658C8.22926 49.2654 1.76379 36.7994 1.76379 25.6173C1.76379 12.4471 12.2084 1.73328 25.0471 1.73328C30.8639 1.72884 36.4628 3.94651 40.699 7.93288C44.9352 3.94651 50.5341 1.72884 56.351 1.73328C69.1896 1.73328 79.6342 12.4471 79.6342 25.6173C79.4723 31.687 77.8668 37.6309 74.9509 42.9568C74.886 43.0897 74.7952 43.2084 74.6838 43.3058C74.5725 43.4033 74.4428 43.4775 74.3025 43.5242C74.1621 43.5709 74.0138 43.5892 73.8663 43.5779C73.7187 43.5666 73.575 43.5259 73.4433 43.4584C73.3117 43.3908 73.1949 43.2977 73.0997 43.1844C73.0045 43.0712 72.9328 42.9401 72.8889 42.7988C72.845 42.6575 72.8297 42.5089 72.844 42.3616C72.8582 42.2143 72.9017 42.0714 72.9719 41.9411C75.7245 36.9287 77.2455 31.3334 77.4094 25.6173C77.4094 13.6742 67.9626 3.95815 56.351 3.95815C53.5781 3.95839 50.8337 4.51688 48.2813 5.60034C45.7289 6.6838 43.4207 8.27005 41.4944 10.2645C41.2808 10.4705 40.9957 10.5856 40.699 10.5856C40.4023 10.5856 40.1172 10.4705 39.9036 10.2645C37.9773 8.27005 35.6692 6.6838 33.1167 5.60034C30.5643 4.51688 27.8199 3.95839 25.0471 3.95815C13.4355 3.95815 3.98866 13.6742 3.98866 25.6173C3.98866 49.1341 35.7609 73.4764 40.699 77.123C45.5791 73.4908 50.2264 69.5558 54.6133 65.3412C54.7178 65.2358 54.8423 65.1524 54.9795 65.0958C55.1167 65.0393 55.2638 65.0108 55.4122 65.0119C55.5606 65.0131 55.7072 65.0439 55.8435 65.1026C55.9798 65.1614 56.1029 65.2467 56.2057 65.3537C56.3085 65.4608 56.3888 65.5873 56.442 65.7258C56.4952 65.8643 56.5201 66.0121 56.5153 66.1604C56.5104 66.3087 56.476 66.4546 56.414 66.5894C56.352 66.7242 56.2636 66.8452 56.1541 66.9453C51.5028 71.4284 46.553 75.591 41.3387 79.4046C41.151 79.5351 40.9276 79.6046 40.699 79.6037Z" fill="#217946"/>
<path d="M60.8339 61.6934C60.6167 61.6935 60.4041 61.63 60.2226 61.5106C60.041 61.3913 59.8983 61.2214 59.8122 61.022C59.7261 60.8225 59.7002 60.6022 59.7379 60.3882C59.7756 60.1742 59.875 59.9759 60.0241 59.8178C60.7472 59.0503 61.4595 58.2612 62.1611 57.4506C62.3549 57.2272 62.6295 57.09 62.9245 57.0692C63.2195 57.0483 63.5107 57.1455 63.7341 57.3393C63.9574 57.5332 64.0946 57.8078 64.1155 58.1028C64.1363 58.3978 64.0391 58.689 63.8453 58.9123C63.1222 59.7466 62.388 60.5591 61.6427 61.3497C61.5383 61.4589 61.4127 61.5457 61.2737 61.6048C61.1347 61.6639 60.985 61.694 60.8339 61.6934Z" fill="#217946"/>
<path d="M42.2649 40.7971C37.5213 32.8897 43.8461 24.9838 57.2877 25.7744C58.0857 39.216 50.1723 45.5407 42.2649 40.7971Z" stroke="#217946" stroke-width="1.70138" stroke-linecap="round" stroke-linejoin="round"/>
<path d="M34.8244 42.4331C38.2127 36.786 33.695 31.1389 24.0934 31.7021C23.5287 41.3037 29.1773 45.8214 34.8244 42.4331Z" stroke="#217946" stroke-width="1.70138" stroke-linecap="round" stroke-linejoin="round"/>
<path d="M29.9998 37.608L39.5107 47.1189" stroke="#217946" stroke-width="1.70138" stroke-linecap="round" stroke-linejoin="round"/>
<path d="M51.3984 31.6635L42.2962 40.7657C41.4128 41.6489 40.712 42.6975 40.2339 43.8515C39.7558 45.0056 39.5098 46.2425 39.5098 47.4917V51.8741" stroke="#217946" stroke-width="1.70138" stroke-linecap="round" stroke-linejoin="round"/>
</g>
<defs>
<clipPath id="clip0_1161_638">
<rect width="77.8702" height="77.8702" fill="white" transform="translate(1.76392 1.7334)"/>
</clipPath>
</defs>
</svg>
