<svg width="475" height="517" viewBox="0 0 475 517" fill="none" xmlns="http://www.w3.org/2000/svg">
<path d="M425.437 403.94C422.449 409.719 414.267 411.396 409.349 406.962C368.627 371.62 216.842 234.721 175.62 150.213C169.223 154.322 355.116 525.247 624.564 475.157C624.564 475.157 664.211 485.382 628.029 510.445C586.491 539.214 422.119 459.878 392.393 445.217C389.472 443.807 386.226 443.803 383.128 445.313C356.429 458.338 218.685 516.37 122.068 376.18C122.068 376.18 83.1618 332.569 79.3399 199.197C76.9025 116.131 36.3274 61.8236 6.09244 32.5373C-5.68124 21.2515 2.19911 2.33266 19.093 1.22207C100.222 -3.715 272.399 3.98228 395.741 137.716C395.741 137.716 512.197 232.811 425.284 403.954L425.437 403.94Z" fill="black" fill-opacity="0.06"/>
</svg>
