<svg width="82" height="82" viewBox="0 0 82 82" fill="none" xmlns="http://www.w3.org/2000/svg">
<path d="M74.0404 64.971C73.7784 64.971 73.5272 64.8669 73.3419 64.6817C73.1567 64.4965 73.0526 64.2452 73.0526 63.9832V61.1186C73.0526 60.8567 73.1567 60.6054 73.3419 60.4202C73.5272 60.2349 73.7784 60.1309 74.0404 60.1309C74.3024 60.1309 74.5536 60.2349 74.7389 60.4202C74.9241 60.6054 75.0282 60.8567 75.0282 61.1186V63.9832C75.0282 64.2452 74.9241 64.4965 74.7389 64.6817C74.5536 64.8669 74.3024 64.971 74.0404 64.971Z" fill="#217946"/>
<path d="M71.0773 74.6712H9.83457C8.78666 74.6712 7.78167 74.2549 7.04069 73.5139C6.2997 72.7729 5.88342 71.7679 5.88342 70.72V9.47727C5.88342 8.42936 6.2997 7.42437 7.04069 6.68339C7.78167 5.9424 8.78666 5.52612 9.83457 5.52612H71.0773C72.1252 5.52612 73.1302 5.9424 73.8712 6.68339C74.6122 7.42437 75.0285 8.42936 75.0285 9.47727V44.356C75.0285 44.618 74.9244 44.8692 74.7392 45.0545C74.5539 45.2397 74.3027 45.3438 74.0407 45.3438C73.7787 45.3438 73.5275 45.2397 73.3422 45.0545C73.157 44.8692 73.0529 44.618 73.0529 44.356V9.47727C73.0529 8.95331 72.8447 8.45082 72.4743 8.08033C72.1038 7.70984 71.6013 7.5017 71.0773 7.5017H9.83457C9.31061 7.5017 8.80812 7.70984 8.43763 8.08033C8.06714 8.45082 7.859 8.95331 7.859 9.47727V70.72C7.859 71.244 8.06714 71.7465 8.43763 72.117C8.80812 72.4874 9.31061 72.6956 9.83457 72.6956H71.0773C71.5798 72.696 72.0634 72.5043 72.4292 72.1598C72.795 71.8153 73.0153 71.3441 73.045 70.8425C73.0598 70.5805 73.1781 70.3352 73.3738 70.1604C73.4707 70.0738 73.5837 70.0072 73.7063 69.9644C73.829 69.9215 73.9589 69.9032 74.0886 69.9105C74.2183 69.9179 74.3453 69.9507 74.4623 70.0071C74.5794 70.0635 74.6842 70.1424 74.7707 70.2393C74.8573 70.3362 74.9239 70.4492 74.9667 70.5719C75.0096 70.6945 75.0279 70.8244 75.0206 70.9541C74.9609 71.9596 74.5195 72.9043 73.7866 73.5952C73.0536 74.286 72.0845 74.6709 71.0773 74.6712Z" fill="#217946"/>
<path d="M74.0404 55.192C73.7784 55.192 73.5272 55.0879 73.3419 54.9027C73.1567 54.7174 73.0526 54.4662 73.0526 54.2042V51.2705C73.0526 51.0085 73.1567 50.7573 73.3419 50.572C73.5272 50.3868 73.7784 50.2827 74.0404 50.2827C74.3024 50.2827 74.5536 50.3868 74.7389 50.572C74.9241 50.7573 75.0282 51.0085 75.0282 51.2705V54.2042C75.0282 54.4662 74.9241 54.7174 74.7389 54.9027C74.5536 55.0879 74.3024 55.192 74.0404 55.192Z" fill="#217946"/>
<path d="M40.4558 74.6711C40.1938 74.6711 39.9426 74.567 39.7573 74.3818C39.5721 74.1965 39.468 73.9453 39.468 73.6833V61.6323C39.468 61.3703 39.5721 61.1191 39.7573 60.9338C39.9426 60.7486 40.1938 60.6445 40.4558 60.6445C40.7178 60.6445 40.969 60.7486 41.1543 60.9338C41.3395 61.1191 41.4436 61.3703 41.4436 61.6323V73.6833C41.4436 73.9453 41.3395 74.1965 41.1543 74.3818C40.969 74.567 40.7178 74.6711 40.4558 74.6711Z" fill="#217946"/>
<path d="M40.4558 19.5527C40.1938 19.5527 39.9426 19.4486 39.7573 19.2634C39.5721 19.0781 39.468 18.8269 39.468 18.5649V6.51391C39.468 6.25193 39.5721 6.00068 39.7573 5.81544C39.9426 5.63019 40.1938 5.52612 40.4558 5.52612C40.7178 5.52612 40.969 5.63019 41.1543 5.81544C41.3395 6.00068 41.4436 6.25193 41.4436 6.51391V18.5649C41.4436 18.8269 41.3395 19.0781 41.1543 19.2634C40.969 19.4486 40.7178 19.5527 40.4558 19.5527Z" fill="#217946"/>
<path d="M40.4558 53.7005C40.1938 53.7005 39.9426 53.5964 39.7573 53.4111C39.5721 53.2259 39.468 52.9746 39.468 52.7127V27.4846C39.468 27.2226 39.5721 26.9714 39.7573 26.7861C39.9426 26.6009 40.1938 26.4968 40.4558 26.4968C40.7178 26.4968 40.969 26.6009 41.1543 26.7861C41.3395 26.9714 41.4436 27.2226 41.4436 27.4846V52.7127C41.4436 52.9746 41.3395 53.2259 41.1543 53.4111C40.969 53.5964 40.7178 53.7005 40.4558 53.7005Z" fill="#217946"/>
<path d="M53.0698 41.0863H27.8418C27.5798 41.0863 27.3286 40.9822 27.1433 40.797C26.9581 40.6117 26.854 40.3605 26.854 40.0985C26.854 39.8365 26.9581 39.5853 27.1433 39.4C27.3286 39.2148 27.5798 39.1107 27.8418 39.1107H53.0698C53.3318 39.1107 53.5831 39.2148 53.7683 39.4C53.9536 39.5853 54.0576 39.8365 54.0576 40.0985C54.0576 40.3605 53.9536 40.6117 53.7683 40.797C53.5831 40.9822 53.3318 41.0863 53.0698 41.0863Z" fill="#217946"/>
<path d="M18.9222 41.0863H6.87121C6.60923 41.0863 6.35798 40.9822 6.17274 40.797C5.98749 40.6117 5.88342 40.3605 5.88342 40.0985C5.88342 39.8365 5.98749 39.5853 6.17274 39.4C6.35798 39.2148 6.60923 39.1107 6.87121 39.1107H18.9222C19.1842 39.1107 19.4354 39.2148 19.6207 39.4C19.8059 39.5853 19.91 39.8365 19.91 40.0985C19.91 40.3605 19.8059 40.6117 19.6207 40.797C19.4354 40.9822 19.1842 41.0863 18.9222 41.0863Z" fill="#217946"/>
<path d="M74.0405 41.0863H61.9895C61.7275 41.0863 61.4763 40.9822 61.291 40.797C61.1058 40.6117 61.0017 40.3605 61.0017 40.0985C61.0017 39.8365 61.1058 39.5853 61.291 39.4C61.4763 39.2148 61.7275 39.1107 61.9895 39.1107H74.0405C74.3025 39.1107 74.5537 39.2148 74.739 39.4C74.9242 39.5853 75.0283 39.8365 75.0283 40.0985C75.0283 40.3605 74.9242 40.6117 74.739 40.797C74.5537 40.9822 74.3025 41.0863 74.0405 41.0863Z" fill="#217946"/>
<path d="M53.07 41.0865C52.9321 41.0865 52.7958 41.0578 52.6697 41.002C52.5437 40.9462 52.4307 40.8646 52.338 40.7625C51.4226 39.7565 50.8191 38.5063 50.601 37.1637C50.3829 35.8212 50.5595 34.4442 51.1094 33.2002C51.6594 31.9562 52.5589 30.8987 53.6986 30.1564C54.8383 29.4141 56.1692 29.0189 57.5293 29.0189C58.8895 29.0189 60.2203 29.4141 61.3601 30.1564C62.4998 30.8987 63.3993 31.9562 63.9493 33.2002C64.4992 34.4442 64.6758 35.8212 64.4577 37.1637C64.2396 38.5063 63.6361 39.7565 62.7207 40.7625C62.6347 40.8628 62.5295 40.9448 62.4112 41.0037C62.293 41.0626 62.1642 41.0972 62.0323 41.1055C61.9005 41.1137 61.7683 41.0954 61.6437 41.0517C61.5191 41.0079 61.4044 40.9396 61.3067 40.8508C61.2089 40.762 61.1299 40.6545 61.0744 40.5347C61.0189 40.4148 60.988 40.285 60.9835 40.153C60.979 40.021 61.0011 39.8894 61.0484 39.7661C61.0956 39.6427 61.1672 39.5301 61.2587 39.4349C61.92 38.7116 62.3567 37.8116 62.5156 36.8445C62.6744 35.8774 62.5486 34.885 62.1533 33.9881C61.7581 33.0913 61.1106 32.3288 60.2897 31.7934C59.4688 31.2581 58.5099 30.9731 57.5298 30.9731C56.5498 30.9731 55.5909 31.2581 54.77 31.7934C53.949 32.3288 53.3015 33.0913 52.9063 33.9881C52.5111 34.885 52.3853 35.8774 52.5441 36.8445C52.703 37.8116 53.1396 38.7116 53.8009 39.4349C53.9295 39.5765 54.0141 39.7524 54.0446 39.9412C54.0751 40.13 54.0501 40.3236 53.9727 40.4985C53.8953 40.6734 53.7688 40.822 53.6086 40.9264C53.4483 41.0308 53.2612 41.0864 53.07 41.0865Z" fill="#217946"/>
<path d="M23.387 51.1816C22.0264 51.1817 20.6951 50.7866 19.5549 50.0442C18.4147 49.3019 17.5147 48.2443 16.9643 47C16.4139 45.7557 16.2369 44.3783 16.4547 43.0353C16.6725 41.6923 17.2758 40.4414 18.1912 39.4348C18.2772 39.3346 18.3824 39.2525 18.5006 39.1936C18.6188 39.1347 18.7477 39.1001 18.8795 39.0919C19.0114 39.0837 19.1435 39.1019 19.2682 39.1457C19.3928 39.1894 19.5074 39.2577 19.6052 39.3465C19.703 39.4353 19.782 39.5428 19.8375 39.6627C19.893 39.7825 19.9239 39.9123 19.9283 40.0443C19.9328 40.1764 19.9108 40.3079 19.8635 40.4313C19.8162 40.5546 19.7447 40.6672 19.6531 40.7624C18.9918 41.4857 18.5551 42.3858 18.3963 43.3529C18.2374 44.3199 18.3633 45.3124 18.7585 46.2092C19.1537 47.106 19.8012 47.8686 20.6221 48.4039C21.4431 48.9392 22.402 49.2243 23.382 49.2243C24.3621 49.2243 25.321 48.9392 26.1419 48.4039C26.9628 47.8686 27.6103 47.106 28.0055 46.2092C28.4007 45.3124 28.5266 44.3199 28.3677 43.3529C28.2089 42.3858 27.7722 41.4857 27.1109 40.7624C26.9375 40.568 26.848 40.313 26.8617 40.0529C26.8755 39.7927 26.9914 39.5486 27.1843 39.3735C27.3772 39.1985 27.6315 39.1067 27.8917 39.1182C28.1519 39.1297 28.3971 39.2435 28.5738 39.4348C29.4928 40.4395 30.0994 41.6899 30.3197 43.0335C30.54 44.377 30.3645 45.7557 29.8145 47.0012C29.2646 48.2467 28.364 49.3052 27.2226 50.0475C26.0812 50.7899 24.7485 51.1839 23.387 51.1816Z" fill="#217946"/>
<path d="M44.5159 64.1908C42.7683 64.1915 41.0835 63.5399 39.7913 62.3634C39.5974 62.1871 39.4815 61.941 39.4691 61.6792C39.4567 61.4175 39.5488 61.1615 39.7251 60.9676C39.9014 60.7738 40.1475 60.6579 40.4093 60.6455C40.671 60.6331 40.927 60.7251 41.1208 60.9015C42.0458 61.7527 43.2588 62.2221 44.5159 62.2152C45.337 62.2172 46.1462 62.0189 46.8733 61.6374C47.6005 61.2559 48.2236 60.7027 48.6885 60.0259C49.1535 59.3492 49.4464 58.5691 49.5417 57.7536C49.637 56.938 49.5319 56.1115 49.2355 55.3457C48.9391 54.5799 48.4604 53.898 47.8408 53.3591C47.2213 52.8202 46.4796 52.4406 45.6801 52.2532C44.8807 52.0659 44.0475 52.0763 43.253 52.2838C42.4585 52.4912 41.7267 52.8894 41.1208 53.4437C40.927 53.62 40.671 53.7121 40.4093 53.6996C40.1475 53.6872 39.9014 53.5714 39.7251 53.3775C39.5488 53.1836 39.4567 52.9277 39.4691 52.6659C39.4815 52.4042 39.5974 52.1581 39.7913 51.9817C40.6345 51.2133 41.6524 50.6619 42.7567 50.3754C43.861 50.0889 45.0185 50.0758 46.129 50.3373C47.2395 50.5988 48.2695 51.127 49.1299 51.8762C49.9903 52.6254 50.6552 53.5731 51.0669 54.637C51.4786 55.701 51.6249 56.8493 51.4929 57.9825C51.361 59.1158 50.9548 60.1997 50.3096 61.1407C49.6644 62.0816 48.7996 62.8511 47.7901 63.3825C46.7806 63.914 45.6567 64.1914 44.5159 64.1908Z" fill="#217946"/>
<path d="M36.3961 30.053C35.2552 30.0532 34.1314 29.7753 33.122 29.2436C32.1126 28.7118 31.2479 27.9421 30.6028 27.0011C29.9576 26.0601 29.5515 24.9761 29.4194 23.8428C29.2873 22.7096 29.4334 21.5612 29.8448 20.497C30.2563 19.4329 30.9208 18.485 31.7809 17.7354C32.641 16.9858 33.6708 16.457 34.7812 16.1947C35.8915 15.9325 37.0491 15.9447 38.1537 16.2304C39.2583 16.516 40.2766 17.0665 41.1207 17.8341C41.3146 18.0104 41.4304 18.2565 41.4429 18.5183C41.4553 18.78 41.3632 19.036 41.1869 19.2299C41.0106 19.4237 40.7645 19.5396 40.5027 19.552C40.241 19.5644 39.985 19.4724 39.7911 19.296C38.8662 18.4448 37.6532 17.9754 36.3961 17.9823C35.575 17.9803 34.7658 18.1786 34.0386 18.5601C33.3115 18.9416 32.6884 19.4948 32.2235 20.1716C31.7585 20.8483 31.4656 21.6284 31.3703 22.4439C31.275 23.2595 31.3801 24.086 31.6765 24.8518C31.9729 25.6176 32.4516 26.2995 33.0712 26.8384C33.6907 27.3773 34.4324 27.7569 35.2319 27.9443C36.0313 28.1316 36.8644 28.1212 37.6589 27.9137C38.4534 27.7063 39.1853 27.3081 39.7911 26.7538C39.985 26.5775 40.241 26.4854 40.5027 26.4979C40.7645 26.5103 41.0106 26.6261 41.1869 26.82C41.3632 27.0139 41.4553 27.2698 41.4429 27.5316C41.4304 27.7933 41.3146 28.0394 41.1207 28.2158C39.8296 29.3952 38.1448 30.0504 36.3961 30.053Z" fill="#217946"/>
</svg>
