<svg width="475" height="557" viewBox="0 0 475 557" fill="none" xmlns="http://www.w3.org/2000/svg">
<path d="M425.437 435.343C422.45 441.571 414.267 443.378 409.349 438.6C368.627 400.513 216.842 252.98 175.62 161.909C169.223 166.338 355.116 566.072 624.564 512.091C624.564 512.091 664.211 523.111 628.029 550.12C586.491 581.124 422.119 495.626 392.393 479.826C389.472 478.306 386.226 478.302 383.128 479.929C356.429 493.966 218.685 556.505 122.068 405.427C122.068 405.427 83.1618 358.429 79.3399 214.698C76.9025 125.18 36.3274 66.6545 6.09244 35.0936C-5.68123 22.9312 2.19912 2.54298 19.093 1.3461C100.222 -3.97442 272.399 4.32072 395.741 148.441C395.741 148.441 512.197 250.923 425.284 435.358L425.437 435.343Z" fill="black" fill-opacity="0.06"/>
</svg>
