<svg width="82" height="82" viewBox="0 0 82 82" fill="none" xmlns="http://www.w3.org/2000/svg">
<path d="M79.4699 40.5042C79.4699 19.0917 62.1116 1.7334 40.6991 1.7334C19.2865 1.7334 1.92822 19.0917 1.92822 40.5042C1.92822 61.9168 19.2865 79.2751 40.6991 79.2751C45.4541 79.2751 50.0091 78.4191 54.2186 76.8528M77.9345 51.343C77.383 53.241 76.6903 55.0789 75.8685 56.8447M69.3001 66.6801C67.8744 68.237 66.3234 69.6771 64.6628 70.9844" stroke="#217946" stroke-width="2.48977" stroke-linecap="round"/>
<path d="M40.6992 23.605L44.2663 34.5835L44.5302 35.3955H45.384L56.9275 35.3955L47.5886 42.1806L46.8978 42.6825L47.1617 43.4945L50.7288 54.473L41.3899 47.6879L40.6992 47.1861L40.0084 47.6879L30.6696 54.473L34.2367 43.4945L34.5005 42.6825L33.8098 42.1806L24.4709 35.3955L36.0144 35.3955H36.8682L37.1321 34.5835L40.6992 23.605Z" stroke="#217946" stroke-width="2.35038"/>
</svg>
