<svg width="82" height="82" viewBox="0 0 82 82" fill="none" xmlns="http://www.w3.org/2000/svg">
<path d="M78.9636 40.5042C78.9636 19.0917 61.6053 1.7334 40.1927 1.7334C18.7802 1.7334 1.42188 19.0917 1.42188 40.5042C1.42188 61.9168 18.7802 79.2751 40.1927 79.2751C44.9477 79.2751 49.5028 78.4191 53.7122 76.8528M77.4282 51.343C76.8766 53.241 76.1839 55.0789 75.3621 56.8447M68.7937 66.6801C67.3681 68.237 65.817 69.6771 64.1565 70.9844" stroke="#217946" stroke-width="2.48977" stroke-linecap="round"/>
<path d="M40.1945 23.605L43.7617 34.5835L44.0255 35.3955H44.8794L56.4228 35.3955L47.084 42.1806L46.3932 42.6825L46.657 43.4945L50.2242 54.473L40.8853 47.6879L40.1945 47.1861L39.5038 47.6879L30.1649 54.473L33.732 43.4945L33.9959 42.6825L33.3051 42.1806L23.9663 35.3955L35.5097 35.3955H36.3636L36.6274 34.5835L40.1945 23.605Z" stroke="#217946" stroke-width="2.35038"/>
</svg>
