<svg width="93" height="84" viewBox="0 0 93 84" fill="none" xmlns="http://www.w3.org/2000/svg">
<g clip-path="url(#clip0_1249_2636)">
<path d="M56.8766 31.653L59.0801 29.4495C60.0784 28.4512 61.7015 28.4512 62.6997 29.4495C63.698 30.4477 63.698 32.0708 62.6997 33.0691L41.5406 54.2282C41.06 54.7088 40.4092 54.975 39.7327 54.975C39.0561 54.975 38.4054 54.7051 37.9247 54.2282L29.8426 46.1461C28.8629 45.1294 28.8887 43.51 29.9055 42.5302C30.8963 41.5726 32.4676 41.5726 33.4585 42.5302L39.7327 48.8044L40.876 47.6611" stroke="#217946" stroke-width="2.2" stroke-miterlimit="10"/>
<path d="M40.7344 47.7715L43.6318 44.8962" stroke="#217946" stroke-width="2.2" stroke-miterlimit="10" stroke-linecap="round"/>
<path d="M47.5234 41.0031L48.5966 39.8896L51.4255 36.9542" stroke="#217946" stroke-width="2.2" stroke-miterlimit="10" stroke-linecap="round"/>
<path d="M55.3047 33.2243L56.876 31.653" stroke="#217946" stroke-width="2.2" stroke-miterlimit="10" stroke-linecap="round"/>
<path d="M21.8226 9.54737C21.9557 8.93733 22.525 8.52324 23.1425 8.58609L35.3691 9.82096C35.713 9.85423 36.0531 9.74332 36.3082 9.51409L45.4736 1.33217C45.9394 0.918085 46.6419 0.918085 47.1078 1.33217L56.2731 9.51409C56.5282 9.74332 56.8721 9.85423 57.2122 9.82096L69.4389 8.58609C70.06 8.52324 70.6294 8.93733 70.7588 9.54737L73.3616 21.5559C73.4356 21.8923 73.6463 22.1807 73.9421 22.3545L84.5568 28.5436C85.0966 28.8579 85.3147 29.5271 85.0633 30.0964L80.1127 41.3433C79.9759 41.6576 79.9759 42.0162 80.1127 42.3305L85.0633 53.5774C85.3147 54.1468 85.0966 54.816 84.5568 55.1302L73.9421 61.3194C73.6463 61.4931 73.4356 61.7815 73.3616 62.118L70.7588 74.1265C70.6257 74.7365 70.0563 75.1506 69.4389 75.0878L57.2122 73.8529C56.8684 73.8196 56.5282 73.9305 56.2731 74.1598L47.1078 82.3417C46.6419 82.7558 45.9394 82.7558 45.4736 82.3417L36.3082 74.1598C36.0531 73.9305 35.7093 73.8196 35.3691 73.8529L23.1425 75.0878C22.5213 75.1506 21.952 74.7365 21.8226 74.1265L19.2197 62.118C19.1458 61.7815 18.935 61.4931 18.6393 61.3194L8.02457 55.1302C7.48478 54.816 7.26665 54.1468 7.51806 53.5774L12.4686 42.3305C12.6054 42.0162 12.6054 41.6576 12.4686 41.3433L7.51806 30.0964C7.26665 29.5271 7.48478 28.8579 8.02457 28.5436L9.01173 27.9669" stroke="#217946" stroke-width="2.4" stroke-miterlimit="10"/>
<path d="M8.53156 28.2686L18.4816 21.4199L21.8742 9.37656" stroke="#217946" stroke-width="2.4" stroke-miterlimit="10" stroke-linecap="round" stroke-dasharray="4.98 4.98"/>
</g>
<defs>
<clipPath id="clip0_1249_2636">
<rect width="92" height="83" fill="white" transform="translate(0.390625 0.168457)"/>
</clipPath>
</defs>
</svg>
