<svg width="93" height="84" viewBox="0 0 93 84" fill="none" xmlns="http://www.w3.org/2000/svg">
<g clipPath="url(#clip0_1249_2636)">
<path d="M57.3822 31.653L59.5858 29.4495C60.584 28.4512 62.2071 28.4512 63.2053 29.4495C64.2036 30.4477 64.2036 32.0708 63.2053 33.0691L42.0462 54.2282C41.5656 54.7088 40.9149 54.975 40.2383 54.975C39.5617 54.975 38.911 54.7051 38.4303 54.2282L30.3482 46.1461C29.3685 45.1294 29.3944 43.51 30.4111 42.5302C31.4019 41.5726 32.9733 41.5726 33.9641 42.5302L40.2383 48.8044L41.3816 47.6611" stroke="#217946" strokeWidth="2.2" stroke-miterlimit="10"/>
<path d="M41.2413 47.7715L44.1388 44.8962" stroke="#217946" strokeWidth="2.2" stroke-miterlimit="10" strokeLinecap="round"/>
<path d="M48.0319 41.0031L49.1051 39.8896L51.934 36.9542" stroke="#217946" strokeWidth="2.2" stroke-miterlimit="10" strokeLinecap="round"/>
<path d="M55.8108 33.2243L57.3821 31.653" stroke="#217946" strokeWidth="2.2" stroke-miterlimit="10" strokeLinecap="round"/>
<path d="M22.3252 9.54737C22.4583 8.93733 23.0277 8.52324 23.6451 8.58609L35.8718 9.82096C36.2157 9.85423 36.5558 9.74332 36.8109 9.51409L45.9763 1.33217C46.4421 0.918085 47.1446 0.918085 47.6104 1.33217L56.7758 9.51409C57.0309 9.74332 57.3748 9.85423 57.7149 9.82096L69.9416 8.58609C70.5627 8.52324 71.1321 8.93733 71.2615 9.54737L73.8643 21.5559C73.9383 21.8923 74.149 22.1807 74.4448 22.3545L85.0595 28.5436C85.5993 28.8579 85.8174 29.5271 85.566 30.0964L80.6154 41.3433C80.4786 41.6576 80.4786 42.0162 80.6154 42.3305L85.566 53.5774C85.8174 54.1468 85.5993 54.816 85.0595 55.1302L74.4448 61.3194C74.149 61.4931 73.9383 61.7815 73.8643 62.118L71.2615 74.1265C71.1284 74.7365 70.559 75.1506 69.9416 75.0878L57.7149 73.8529C57.3711 73.8196 57.0309 73.9305 56.7758 74.1598L47.6104 82.3417C47.1446 82.7558 46.4421 82.7558 45.9763 82.3417L36.8109 74.1598C36.5558 73.9305 36.212 73.8196 35.8718 73.8529L23.6451 75.0878C23.024 75.1506 22.4546 74.7365 22.3252 74.1265L19.7224 62.118C19.6485 61.7815 19.4377 61.4931 19.1419 61.3194L8.52726 55.1302C7.98747 54.816 7.76933 54.1468 8.02074 53.5774L12.9713 42.3305C13.1081 42.0162 13.1081 41.6576 12.9713 41.3433L8.02074 30.0964C7.76933 29.5271 7.98747 28.8579 8.52726 28.5436L9.51441 27.9669" stroke="#217946" strokeWidth="2.4" stroke-miterlimit="10"/>
<path d="M9.03754 28.2686L18.9875 21.4199L22.3802 9.37656" stroke="#217946" strokeWidth="2.4" stroke-miterlimit="10" strokeLinecap="round" stroke-dasharray="4.98 4.98"/>
</g>
<defs>
<clipPath id="clip0_1249_2636">
<rect width="92" height="83" fill="white" transform="translate(0.895752 0.168457)"/>
</clipPath>
</defs>
</svg>
