<svg width="47" height="47" viewBox="0 0 47 47" fill="none" xmlns="http://www.w3.org/2000/svg">
<path d="M44.5122 39.0945C44.3474 39.0945 44.1893 39.029 44.0727 38.9125C43.9561 38.7959 43.8906 38.6378 43.8906 38.4729V36.6702C43.8906 36.5053 43.9561 36.3472 44.0727 36.2307C44.1893 36.1141 44.3474 36.0486 44.5122 36.0486C44.6771 36.0486 44.8352 36.1141 44.9518 36.2307C45.0684 36.3472 45.1339 36.5053 45.1339 36.6702V38.4729C45.1339 38.6378 45.0684 38.7959 44.9518 38.9125C44.8352 39.029 44.6771 39.0945 44.5122 39.0945Z" fill="#217946"/>
<path d="M42.6442 45.1988H4.10367C3.44422 45.1988 2.81177 44.9369 2.34546 44.4706C1.87916 44.0042 1.61719 43.3718 1.61719 42.7123V4.17179C1.61719 3.51233 1.87916 2.87988 2.34546 2.41358C2.81177 1.94727 3.44422 1.6853 4.10367 1.6853H42.6442C43.3037 1.6853 43.9361 1.94727 44.4024 2.41358C44.8687 2.87988 45.1307 3.51233 45.1307 4.17179V26.1213C45.1307 26.2861 45.0652 26.4442 44.9486 26.5608C44.8321 26.6774 44.674 26.7429 44.5091 26.7429C44.3442 26.7429 44.1861 26.6774 44.0695 26.5608C43.953 26.4442 43.8875 26.2861 43.8875 26.1213V4.17179C43.8875 3.84206 43.7565 3.52584 43.5233 3.29268C43.2902 3.05953 42.9739 2.92855 42.6442 2.92855H4.10367C3.77395 2.92855 3.45772 3.05953 3.22457 3.29268C2.99142 3.52584 2.86043 3.84206 2.86043 4.17179V42.7123C2.86043 43.0421 2.99142 43.3583 3.22457 43.5914C3.45772 43.8246 3.77395 43.9556 4.10367 43.9556H42.6442C42.9604 43.9558 43.2648 43.8352 43.495 43.6184C43.7251 43.4016 43.8638 43.1051 43.8825 42.7894C43.8918 42.6246 43.9662 42.4701 44.0894 42.3602C44.1504 42.3057 44.2215 42.2638 44.2987 42.2368C44.3759 42.2098 44.4576 42.1983 44.5392 42.2029C44.6209 42.2075 44.7008 42.2282 44.7744 42.2637C44.8481 42.2992 44.914 42.3488 44.9685 42.4098C45.023 42.4708 45.0649 42.5419 45.0919 42.6191C45.1188 42.6963 45.1303 42.778 45.1257 42.8597C45.0882 43.4924 44.8104 44.0869 44.3492 44.5217C43.8879 44.9565 43.2781 45.1987 42.6442 45.1988Z" fill="#217946"/>
<path d="M44.5122 32.9405C44.3474 32.9405 44.1893 32.875 44.0727 32.7585C43.9561 32.6419 43.8906 32.4838 43.8906 32.3189V30.4727C43.8906 30.3078 43.9561 30.1497 44.0727 30.0331C44.1893 29.9166 44.3474 29.8511 44.5122 29.8511C44.6771 29.8511 44.8352 29.9166 44.9518 30.0331C45.0684 30.1497 45.1339 30.3078 45.1339 30.4727V32.3189C45.1339 32.4838 45.0684 32.6419 44.9518 32.7585C44.8352 32.875 44.6771 32.9405 44.5122 32.9405Z" fill="#217946"/>
<path d="M23.3716 45.1989C23.2068 45.1989 23.0486 45.1334 22.9321 45.0168C22.8155 44.9002 22.75 44.7421 22.75 44.5772V36.9934C22.75 36.8286 22.8155 36.6705 22.9321 36.5539C23.0486 36.4373 23.2068 36.3718 23.3716 36.3718C23.5365 36.3718 23.6946 36.4373 23.8112 36.5539C23.9278 36.6705 23.9932 36.8286 23.9932 36.9934V44.5772C23.9932 44.7421 23.9278 44.9002 23.8112 45.0168C23.6946 45.1334 23.5365 45.1989 23.3716 45.1989Z" fill="#217946"/>
<path d="M23.3716 10.5123C23.2068 10.5123 23.0486 10.4468 22.9321 10.3303C22.8155 10.2137 22.75 10.0556 22.75 9.89071V2.30692C22.75 2.14206 22.8155 1.98395 22.9321 1.86737C23.0486 1.75079 23.2068 1.6853 23.3716 1.6853C23.5365 1.6853 23.6946 1.75079 23.8112 1.86737C23.9278 1.98395 23.9932 2.14206 23.9932 2.30692V9.89071C23.9932 10.0556 23.9278 10.2137 23.8112 10.3303C23.6946 10.4468 23.5365 10.5123 23.3716 10.5123Z" fill="#217946"/>
<path d="M23.3716 32.0018C23.2068 32.0018 23.0486 31.9363 22.9321 31.8197C22.8155 31.7031 22.75 31.545 22.75 31.3802V15.5039C22.75 15.3391 22.8155 15.181 22.9321 15.0644C23.0486 14.9478 23.2068 14.8823 23.3716 14.8823C23.5365 14.8823 23.6946 14.9478 23.8112 15.0644C23.9278 15.181 23.9932 15.3391 23.9932 15.5039V31.3802C23.9932 31.545 23.9278 31.7031 23.8112 31.8197C23.6946 31.9363 23.5365 32.0018 23.3716 32.0018Z" fill="#217946"/>
<path d="M31.3103 24.0638H15.4341C15.2693 24.0638 15.1111 23.9983 14.9946 23.8817C14.878 23.7652 14.8125 23.607 14.8125 23.4422C14.8125 23.2773 14.878 23.1192 14.9946 23.0026C15.1111 22.886 15.2693 22.8206 15.4341 22.8206H31.3103C31.4752 22.8206 31.6333 22.886 31.7499 23.0026C31.8665 23.1192 31.932 23.2773 31.932 23.4422C31.932 23.607 31.8665 23.7652 31.7499 23.8817C31.6333 23.9983 31.4752 24.0638 31.3103 24.0638Z" fill="#217946"/>
<path d="M9.82259 24.0638H2.23881C2.07394 24.0638 1.91583 23.9983 1.79926 23.8817C1.68268 23.7652 1.61719 23.607 1.61719 23.4422C1.61719 23.2773 1.68268 23.1192 1.79926 23.0026C1.91583 22.886 2.07394 22.8206 2.23881 22.8206H9.82259C9.98746 22.8206 10.1456 22.886 10.2621 23.0026C10.3787 23.1192 10.4442 23.2773 10.4442 23.4422C10.4442 23.607 10.3787 23.7652 10.2621 23.8817C10.1456 23.9983 9.98746 24.0638 9.82259 24.0638Z" fill="#217946"/>
<path d="M44.5101 24.0638H36.9263C36.7614 24.0638 36.6033 23.9983 36.4868 23.8817C36.3702 23.7652 36.3047 23.607 36.3047 23.4422C36.3047 23.2773 36.3702 23.1192 36.4868 23.0026C36.6033 22.886 36.7614 22.8206 36.9263 22.8206H44.5101C44.675 22.8206 44.8331 22.886 44.9496 23.0026C45.0662 23.1192 45.1317 23.2773 45.1317 23.4422C45.1317 23.607 45.0662 23.7652 44.9496 23.8817C44.8331 23.9983 44.675 24.0638 44.5101 24.0638Z" fill="#217946"/>
<path d="M31.3141 24.0637C31.2273 24.0637 31.1415 24.0456 31.0622 24.0105C30.9828 23.9754 30.9117 23.9241 30.8534 23.8598C30.2773 23.2268 29.8976 22.44 29.7603 21.5951C29.623 20.7502 29.7342 19.8836 30.0803 19.1008C30.4263 18.3179 30.9924 17.6524 31.7097 17.1853C32.4269 16.7182 33.2644 16.4695 34.1204 16.4695C34.9763 16.4695 35.8138 16.7182 36.5311 17.1853C37.2483 17.6524 37.8144 18.3179 38.1605 19.1008C38.5065 19.8836 38.6177 20.7502 38.4804 21.5951C38.3432 22.44 37.9634 23.2268 37.3873 23.8598C37.3332 23.9229 37.267 23.9745 37.1926 24.0116C37.1182 24.0487 37.0371 24.0704 36.9541 24.0756C36.8712 24.0808 36.788 24.0693 36.7096 24.0418C36.6311 24.0143 36.559 23.9713 36.4975 23.9154C36.4359 23.8595 36.3862 23.7919 36.3513 23.7164C36.3164 23.641 36.2969 23.5593 36.2941 23.4762C36.2913 23.3932 36.3052 23.3104 36.3349 23.2327C36.3647 23.1551 36.4097 23.0843 36.4673 23.0243C36.8835 22.5692 37.1583 22.0028 37.2582 21.3942C37.3582 20.7856 37.279 20.161 37.0303 19.5967C36.7816 19.0323 36.3741 18.5524 35.8575 18.2155C35.3409 17.8786 34.7374 17.6992 34.1207 17.6992C33.5039 17.6992 32.9005 17.8786 32.3839 18.2155C31.8673 18.5524 31.4598 19.0323 31.2111 19.5967C30.9624 20.161 30.8832 20.7856 30.9831 21.3942C31.0831 22.0028 31.3579 22.5692 31.7741 23.0243C31.8549 23.1135 31.9082 23.2242 31.9274 23.343C31.9466 23.4618 31.9309 23.5836 31.8822 23.6937C31.8334 23.8037 31.7538 23.8973 31.653 23.9629C31.5522 24.0286 31.4344 24.0636 31.3141 24.0637Z" fill="#217946"/>
<path d="M12.6304 30.4167C11.7742 30.4168 10.9364 30.1682 10.2189 29.701C9.50135 29.2338 8.93498 28.5682 8.58863 27.7852C8.24228 27.0022 8.13086 26.1354 8.26793 25.2902C8.405 24.445 8.78465 23.6579 9.36072 23.0244C9.41482 22.9613 9.48104 22.9097 9.55544 22.8726C9.62984 22.8355 9.71093 22.8138 9.79389 22.8086C9.87686 22.8034 9.96002 22.8149 10.0385 22.8424C10.1169 22.8699 10.189 22.9129 10.2506 22.9688C10.3121 23.0247 10.3618 23.0924 10.3967 23.1678C10.4317 23.2432 10.4511 23.3249 10.4539 23.408C10.4567 23.491 10.4429 23.5738 10.4131 23.6515C10.3834 23.7291 10.3383 23.8 10.2807 23.8599C9.86455 24.315 9.58975 24.8814 9.48979 25.49C9.38983 26.0986 9.46902 26.7232 9.71773 27.2876C9.96644 27.8519 10.3739 28.3318 10.8905 28.6687C11.4071 29.0056 12.0106 29.185 12.6273 29.185C13.2441 29.185 13.8475 29.0056 14.3642 28.6687C14.8808 28.3318 15.2882 27.8519 15.537 27.2876C15.7857 26.7232 15.8649 26.0986 15.7649 25.49C15.6649 24.8814 15.3901 24.315 14.974 23.8599C14.8649 23.7375 14.8085 23.577 14.8172 23.4133C14.8258 23.2496 14.8988 23.096 15.0202 22.9858C15.1416 22.8757 15.3016 22.8179 15.4653 22.8251C15.6291 22.8324 15.7834 22.904 15.8946 23.0244C16.4729 23.6566 16.8546 24.4435 16.9933 25.2891C17.1319 26.1346 17.0215 27.0022 16.6754 27.786C16.3293 28.5698 15.7625 29.2359 15.0442 29.7031C14.326 30.1702 13.4873 30.4182 12.6304 30.4167Z" fill="#217946"/>
<path d="M25.9267 38.6036C24.8269 38.604 23.7666 38.1939 22.9534 37.4536C22.8314 37.3426 22.7585 37.1877 22.7507 37.023C22.7429 36.8583 22.8008 36.6972 22.9118 36.5752C23.0227 36.4532 23.1776 36.3803 23.3423 36.3725C23.5071 36.3647 23.6681 36.4226 23.7901 36.5336C24.3722 37.0692 25.1356 37.3646 25.9267 37.3603C26.4434 37.3616 26.9526 37.2368 27.4102 36.9967C27.8678 36.7566 28.2599 36.4085 28.5525 35.9826C28.8452 35.5567 29.0295 35.0658 29.0894 34.5526C29.1494 34.0393 29.0833 33.5192 28.8968 33.0373C28.7102 32.5554 28.409 32.1262 28.0191 31.7871C27.6292 31.448 27.1624 31.2091 26.6593 31.0912C26.1562 30.9732 25.6319 30.9798 25.1319 31.1104C24.632 31.2409 24.1714 31.4915 23.7901 31.8403C23.6681 31.9513 23.5071 32.0092 23.3423 32.0014C23.1776 31.9936 23.0227 31.9207 22.9118 31.7987C22.8008 31.6767 22.7429 31.5156 22.7507 31.3509C22.7585 31.1861 22.8314 31.0313 22.9534 30.9203C23.4841 30.4367 24.1246 30.0897 24.8196 29.9094C25.5145 29.7291 26.243 29.7209 26.9418 29.8854C27.6406 30.05 28.2889 30.3824 28.8303 30.8539C29.3718 31.3254 29.7902 31.9217 30.0493 32.5913C30.3084 33.2609 30.4004 33.9835 30.3174 34.6967C30.2343 35.4098 29.9787 36.092 29.5727 36.6841C29.1667 37.2762 28.6225 37.7605 27.9872 38.0949C27.3519 38.4294 26.6446 38.604 25.9267 38.6036Z" fill="#217946"/>
<path d="M20.8186 17.1202C20.1007 17.1203 19.3935 16.9455 18.7582 16.6108C18.123 16.2762 17.5788 15.7918 17.1728 15.1996C16.7669 14.6074 16.5113 13.9252 16.4281 13.2121C16.345 12.4989 16.4369 11.7762 16.6959 11.1066C16.9548 10.4369 17.373 9.84037 17.9143 9.36863C18.4555 8.89688 19.1036 8.56411 19.8023 8.39908C20.5011 8.23406 21.2296 8.24176 21.9247 8.42152C22.6198 8.60128 23.2607 8.94768 23.7919 9.43076C23.9139 9.54172 23.9868 9.69659 23.9946 9.86131C24.0024 10.026 23.9445 10.1871 23.8335 10.3091C23.7226 10.4311 23.5677 10.504 23.403 10.5119C23.2382 10.5197 23.0772 10.4617 22.9552 10.3508C22.3731 9.81508 21.6097 9.51969 20.8186 9.524C20.3019 9.52274 19.7927 9.64756 19.3351 9.88764C18.8775 10.1277 18.4854 10.4758 18.1928 10.9017C17.9001 11.3276 17.7158 11.8185 17.6559 12.3318C17.5959 12.845 17.662 13.3651 17.8485 13.8471C18.0351 14.329 18.3363 14.7581 18.7262 15.0972C19.1161 15.4363 19.5829 15.6752 20.086 15.7931C20.5891 15.9111 21.1134 15.9045 21.6134 15.7739C22.1133 15.6434 22.5739 15.3928 22.9552 15.044C23.0772 14.9331 23.2382 14.8751 23.403 14.8829C23.5677 14.8907 23.7226 14.9637 23.8335 15.0857C23.9445 15.2077 24.0024 15.3687 23.9946 15.5335C23.9868 15.6982 23.9139 15.8531 23.7919 15.964C22.9794 16.7063 21.9191 17.1186 20.8186 17.1202Z" fill="#217946"/>
</svg>
