<svg width="59" height="59" viewBox="0 0 59 59" fill="none" xmlns="http://www.w3.org/2000/svg">
<path d="M57.03 29.2919C57.03 13.8477 44.51 1.32764 29.0658 1.32764C13.6216 1.32764 1.10156 13.8477 1.10156 29.2919C1.10156 44.7361 13.6216 57.2561 29.0658 57.2561C32.4954 57.2561 35.7809 56.6387 38.817 55.509M55.9226 37.1095C55.5248 38.4785 55.0252 39.8041 54.4324 41.0777M49.6948 48.1718C48.6666 49.2947 47.5478 50.3334 46.3501 51.2763" stroke="#217946" stroke-width="1.77809" stroke-linecap="round"/>
<path d="M29.0659 17.076L31.6468 25.019L31.8352 25.5989H32.445H40.7966L34.04 30.5079L33.5467 30.8663L33.7351 31.4462L36.3159 39.3892L29.5593 34.4802L29.0659 34.1217L28.5726 34.4802L21.816 39.3892L24.3968 31.4462L24.5852 30.8663L24.0919 30.5079L17.3352 25.5989H25.6869H26.2967L26.4851 25.019L29.0659 17.076Z" stroke="#217946" stroke-width="1.67854"/>
</svg>
