<svg width="121" height="121" viewBox="0 0 121 121" fill="none" xmlns="http://www.w3.org/2000/svg">
<circle cx="60.2831" cy="60.4105" r="59.2592" stroke="#1C1C1C" stroke-opacity="0.1" stroke-width="2"/>
<path d="M81.022 76.0945C80.8571 76.0945 80.699 76.029 80.5825 75.9125C80.4659 75.7959 80.4004 75.6378 80.4004 75.4729V73.6702C80.4004 73.5053 80.4659 73.3472 80.5825 73.2307C80.699 73.1141 80.8571 73.0486 81.022 73.0486C81.1869 73.0486 81.345 73.1141 81.4616 73.2307C81.5781 73.3472 81.6436 73.5053 81.6436 73.6702V75.4729C81.6436 75.6378 81.5781 75.7959 81.4616 75.9125C81.345 76.029 81.1869 76.0945 81.022 76.0945Z" fill="#217946"/>
<path d="M79.1574 82.1988H40.6169C39.9574 82.1988 39.325 81.9369 38.8586 81.4706C38.3923 81.0042 38.1304 80.3718 38.1304 79.7123V41.1718C38.1304 40.5123 38.3923 39.8799 38.8586 39.4136C39.325 38.9473 39.9574 38.6853 40.6169 38.6853H79.1574C79.8169 38.6853 80.4493 38.9473 80.9156 39.4136C81.3819 39.8799 81.6439 40.5123 81.6439 41.1718V63.1213C81.6439 63.2861 81.5784 63.4442 81.4618 63.5608C81.3452 63.6774 81.1871 63.7429 81.0223 63.7429C80.8574 63.7429 80.6993 63.6774 80.5827 63.5608C80.4661 63.4442 80.4007 63.2861 80.4007 63.1213V41.1718C80.4007 40.8421 80.2697 40.5258 80.0365 40.2927C79.8034 40.0595 79.4871 39.9285 79.1574 39.9285H40.6169C40.2871 39.9285 39.9709 40.0595 39.7378 40.2927C39.5046 40.5258 39.3736 40.8421 39.3736 41.1718V79.7123C39.3736 80.0421 39.5046 80.3583 39.7378 80.5914C39.9709 80.8246 40.2871 80.9556 40.6169 80.9556H79.1574C79.4736 80.9558 79.7779 80.8352 80.0081 80.6184C80.2383 80.4016 80.377 80.1051 80.3957 79.7894C80.405 79.6246 80.4794 79.4701 80.6026 79.3602C80.6636 79.3057 80.7347 79.2638 80.8119 79.2368C80.889 79.2098 80.9708 79.1983 81.0524 79.2029C81.1341 79.2075 81.214 79.2282 81.2876 79.2637C81.3613 79.2992 81.4272 79.3488 81.4817 79.4098C81.5361 79.4708 81.5781 79.5419 81.605 79.6191C81.632 79.6963 81.6435 79.778 81.6389 79.8597C81.6014 80.4924 81.3236 81.0869 80.8624 81.5217C80.4011 81.9565 79.7913 82.1987 79.1574 82.1988Z" fill="#217946"/>
<path d="M81.022 69.9405C80.8571 69.9405 80.699 69.875 80.5825 69.7585C80.4659 69.6419 80.4004 69.4838 80.4004 69.3189V67.4727C80.4004 67.3078 80.4659 67.1497 80.5825 67.0331C80.699 66.9166 80.8571 66.8511 81.022 66.8511C81.1869 66.8511 81.345 66.9166 81.4616 67.0331C81.5781 67.1497 81.6436 67.3078 81.6436 67.4727V69.3189C81.6436 69.4838 81.5781 69.6419 81.4616 69.7585C81.345 69.875 81.1869 69.9405 81.022 69.9405Z" fill="#217946"/>
<path d="M59.887 82.1989C59.7221 82.1989 59.564 82.1334 59.4474 82.0168C59.3309 81.9002 59.2654 81.7421 59.2654 81.5772V73.9934C59.2654 73.8286 59.3309 73.6705 59.4474 73.5539C59.564 73.4373 59.7221 73.3718 59.887 73.3718C60.0519 73.3718 60.21 73.4373 60.3266 73.5539C60.4431 73.6705 60.5086 73.8286 60.5086 73.9934V81.5772C60.5086 81.7421 60.4431 81.9002 60.3266 82.0168C60.21 82.1334 60.0519 82.1989 59.887 82.1989Z" fill="#217946"/>
<path d="M59.887 47.5123C59.7221 47.5123 59.564 47.4468 59.4474 47.3303C59.3309 47.2137 59.2654 47.0556 59.2654 46.8907V39.3069C59.2654 39.1421 59.3309 38.9839 59.4474 38.8674C59.564 38.7508 59.7221 38.6853 59.887 38.6853C60.0519 38.6853 60.21 38.7508 60.3266 38.8674C60.4431 38.9839 60.5086 39.1421 60.5086 39.3069V46.8907C60.5086 47.0556 60.4431 47.2137 60.3266 47.3303C60.21 47.4468 60.0519 47.5123 59.887 47.5123Z" fill="#217946"/>
<path d="M59.887 69.0018C59.7221 69.0018 59.564 68.9363 59.4474 68.8197C59.3309 68.7031 59.2654 68.545 59.2654 68.3802V52.5039C59.2654 52.3391 59.3309 52.181 59.4474 52.0644C59.564 51.9478 59.7221 51.8823 59.887 51.8823C60.0519 51.8823 60.21 51.9478 60.3266 52.0644C60.4431 52.181 60.5086 52.3391 60.5086 52.5039V68.3802C60.5086 68.545 60.4431 68.7031 60.3266 68.8197C60.21 68.9363 60.0519 69.0018 59.887 69.0018Z" fill="#217946"/>
<path d="M67.825 61.0638H51.9488C51.7839 61.0638 51.6258 60.9983 51.5092 60.8817C51.3926 60.7652 51.3271 60.607 51.3271 60.4422C51.3271 60.2773 51.3926 60.1192 51.5092 60.0026C51.6258 59.886 51.7839 59.8206 51.9488 59.8206H67.825C67.9899 59.8206 68.148 59.886 68.2645 60.0026C68.3811 60.1192 68.4466 60.2773 68.4466 60.4422C68.4466 60.607 68.3811 60.7652 68.2645 60.8817C68.148 60.9983 67.9899 61.0638 67.825 61.0638Z" fill="#217946"/>
<path d="M46.3358 61.0638H38.752C38.5871 61.0638 38.429 60.9983 38.3124 60.8817C38.1959 60.7652 38.1304 60.607 38.1304 60.4422C38.1304 60.2773 38.1959 60.1192 38.3124 60.0026C38.429 59.886 38.5871 59.8206 38.752 59.8206H46.3358C46.5006 59.8206 46.6588 59.886 46.7753 60.0026C46.8919 60.1192 46.9574 60.2773 46.9574 60.4422C46.9574 60.607 46.8919 60.7652 46.7753 60.8817C46.6588 60.9983 46.5006 61.0638 46.3358 61.0638Z" fill="#217946"/>
<path d="M81.0221 61.0638H73.4383C73.2734 61.0638 73.1153 60.9983 72.9987 60.8817C72.8821 60.7652 72.8167 60.607 72.8167 60.4422C72.8167 60.2773 72.8821 60.1192 72.9987 60.0026C73.1153 59.886 73.2734 59.8206 73.4383 59.8206H81.0221C81.1869 59.8206 81.345 59.886 81.4616 60.0026C81.5782 60.1192 81.6437 60.2773 81.6437 60.4422C81.6437 60.607 81.5782 60.7652 81.4616 60.8817C81.345 60.9983 81.1869 61.0638 81.0221 61.0638Z" fill="#217946"/>
<path d="M67.8253 61.0637C67.7385 61.0637 67.6527 61.0456 67.5734 61.0105C67.4941 60.9754 67.423 60.9241 67.3647 60.8598C66.7886 60.2268 66.4088 59.44 66.2715 58.5951C66.1343 57.7502 66.2454 56.8836 66.5915 56.1008C66.9376 55.3179 67.5036 54.6524 68.2209 54.1853C68.9381 53.7182 69.7756 53.4695 70.6316 53.4695C71.4876 53.4695 72.3251 53.7182 73.0423 54.1853C73.7596 54.6524 74.3256 55.3179 74.6717 56.1008C75.0178 56.8836 75.1289 57.7502 74.9917 58.5951C74.8544 59.44 74.4746 60.2268 73.8985 60.8598C73.8444 60.9229 73.7782 60.9745 73.7038 61.0116C73.6294 61.0487 73.5483 61.0704 73.4654 61.0756C73.3824 61.0808 73.2992 61.0693 73.2208 61.0418C73.1424 61.0143 73.0702 60.9713 73.0087 60.9154C72.9472 60.8595 72.8975 60.7919 72.8625 60.7164C72.8276 60.641 72.8081 60.5593 72.8053 60.4762C72.8025 60.3932 72.8164 60.3104 72.8461 60.2327C72.8759 60.1551 72.9209 60.0843 72.9785 60.0243C73.3947 59.5692 73.6695 59.0028 73.7695 58.3942C73.8694 57.7856 73.7902 57.161 73.5415 56.5967C73.2928 56.0323 72.8853 55.5524 72.3687 55.2155C71.8521 54.8786 71.2487 54.6992 70.6319 54.6992C70.0152 54.6992 69.4117 54.8786 68.8951 55.2155C68.3785 55.5524 67.971 56.0323 67.7223 56.5967C67.4736 57.161 67.3944 57.7856 67.4944 58.3942C67.5943 59.0028 67.8691 59.5692 68.2853 60.0243C68.3662 60.1135 68.4194 60.2242 68.4386 60.343C68.4578 60.4618 68.4421 60.5836 68.3934 60.6937C68.3447 60.8037 68.2651 60.8973 68.1642 60.9629C68.0634 61.0286 67.9456 61.0636 67.8253 61.0637Z" fill="#217946"/>
<path d="M49.1453 67.4167C48.2891 67.4168 47.4513 67.1682 46.7338 66.701C46.0162 66.2338 45.4499 65.5682 45.1035 64.7852C44.7572 64.0022 44.6458 63.1354 44.7828 62.2902C44.9199 61.445 45.2995 60.6579 45.8756 60.0244C45.9297 59.9613 45.9959 59.9097 46.0703 59.8726C46.1447 59.8355 46.2258 59.8138 46.3088 59.8086C46.3917 59.8034 46.4749 59.8149 46.5533 59.8424C46.6318 59.8699 46.7039 59.9129 46.7655 59.9688C46.827 60.0247 46.8767 60.0924 46.9116 60.1678C46.9466 60.2432 46.966 60.3249 46.9688 60.408C46.9716 60.491 46.9577 60.5738 46.928 60.6515C46.8982 60.7291 46.8532 60.8 46.7956 60.8599C46.3794 61.315 46.1046 61.8814 46.0047 62.49C45.9047 63.0986 45.9839 63.7232 46.2326 64.2876C46.4813 64.8519 46.8888 65.3318 47.4054 65.6687C47.922 66.0056 48.5255 66.185 49.1422 66.185C49.759 66.185 50.3624 66.0056 50.879 65.6687C51.3957 65.3318 51.8031 64.8519 52.0518 64.2876C52.3006 63.7232 52.3798 63.0986 52.2798 62.49C52.1798 61.8814 51.905 61.315 51.4889 60.8599C51.3798 60.7375 51.3234 60.577 51.332 60.4133C51.3407 60.2496 51.4137 60.096 51.5351 59.9858C51.6565 59.8757 51.8164 59.8179 51.9802 59.8251C52.144 59.8324 52.2983 59.904 52.4095 60.0244C52.9878 60.6566 53.3695 61.4435 53.5082 62.2891C53.6468 63.1346 53.5364 64.0022 53.1903 64.786C52.8442 65.5698 52.2774 66.2359 51.5591 66.7031C50.8409 67.1702 50.0022 67.4182 49.1453 67.4167Z" fill="#217946"/>
<path d="M62.442 75.6036C61.3423 75.604 60.282 75.1939 59.4688 74.4536C59.3468 74.3426 59.2739 74.1877 59.2661 74.023C59.2583 73.8583 59.3162 73.6972 59.4272 73.5752C59.5381 73.4532 59.693 73.3803 59.8577 73.3725C60.0224 73.3647 60.1835 73.4226 60.3055 73.5336C60.8876 74.0692 61.651 74.3646 62.442 74.3603C62.9588 74.3616 63.468 74.2368 63.9256 73.9967C64.3832 73.7566 64.7753 73.4085 65.0679 72.9826C65.3605 72.5567 65.5448 72.0658 65.6048 71.5526C65.6648 71.0393 65.5987 70.5192 65.4121 70.0373C65.2256 69.5554 64.9243 69.1262 64.5345 68.7871C64.1446 68.448 63.6778 68.2091 63.1747 68.0912C62.6716 67.9732 62.1473 67.9798 61.6473 68.1104C61.1473 68.2409 60.6868 68.4915 60.3055 68.8403C60.1835 68.9513 60.0224 69.0092 59.8577 69.0014C59.693 68.9936 59.5381 68.9207 59.4272 68.7987C59.3162 68.6767 59.2583 68.5156 59.2661 68.3509C59.2739 68.1861 59.3468 68.0313 59.4688 67.9203C59.9995 67.4367 60.64 67.0897 61.335 66.9094C62.0299 66.7291 62.7583 66.7209 63.4572 66.8854C64.156 67.05 64.8042 67.3824 65.3457 67.8539C65.8872 68.3254 66.3055 68.9217 66.5647 69.5913C66.8238 70.2609 66.9158 70.9835 66.8327 71.6967C66.7497 72.4098 66.4941 73.092 66.0881 73.6841C65.6821 74.2762 65.1378 74.7605 64.5025 75.0949C63.8672 75.4294 63.16 75.604 62.442 75.6036Z" fill="#217946"/>
<path d="M57.3321 54.1202C56.6141 54.1203 55.9069 53.9455 55.2716 53.6108C54.6364 53.2762 54.0923 52.7918 53.6863 52.1996C53.2803 51.6074 53.0247 50.9252 52.9416 50.2121C52.8585 49.4989 52.9504 48.7762 53.2093 48.1066C53.4682 47.4369 53.8864 46.8404 54.4277 46.3686C54.969 45.8969 55.617 45.5641 56.3158 45.3991C57.0145 45.2341 57.743 45.2418 58.4381 45.4215C59.1333 45.6013 59.7741 45.9477 60.3053 46.4308C60.4273 46.5417 60.5002 46.6966 60.508 46.8613C60.5158 47.026 60.4579 47.1871 60.3469 47.3091C60.236 47.4311 60.0811 47.504 59.9164 47.5119C59.7517 47.5197 59.5906 47.4617 59.4686 47.3508C58.8865 46.8151 58.1231 46.5197 57.3321 46.524C56.8153 46.5227 56.3061 46.6476 55.8485 46.8876C55.3909 47.1277 54.9988 47.4758 54.7062 47.9017C54.4136 48.3276 54.2293 48.8185 54.1693 49.3318C54.1093 49.845 54.1754 50.3651 54.362 50.8471C54.5485 51.329 54.8498 51.7581 55.2397 52.0972C55.6296 52.4363 56.0963 52.6752 56.5994 52.7931C57.1025 52.9111 57.6268 52.9045 58.1268 52.7739C58.6268 52.6434 59.0874 52.3928 59.4686 52.044C59.5906 51.9331 59.7517 51.8751 59.9164 51.8829C60.0811 51.8907 60.236 51.9637 60.3469 52.0857C60.4579 52.2077 60.5158 52.3687 60.508 52.5335C60.5002 52.6982 60.4273 52.8531 60.3053 52.964C59.4928 53.7063 58.4326 54.1186 57.3321 54.1202Z" fill="#217946"/>
</svg>
