<svg width="62" height="56" viewBox="0 0 62 56" fill="none" xmlns="http://www.w3.org/2000/svg">
<g clipPath="url(#clip0_1250_2662)">
<path d="M38.2004 21.5682L39.6623 20.1063C40.3246 19.4441 41.4014 19.4441 42.0637 20.1063C42.726 20.7686 42.726 21.8454 42.0637 22.5077L28.026 36.5454C27.7071 36.8642 27.2754 37.0408 26.8266 37.0408C26.3777 37.0408 25.946 36.8618 25.6271 36.5454L20.2652 31.1834C19.6152 30.5089 19.6323 29.4345 20.3069 28.7845C20.9642 28.1492 22.0067 28.1492 22.6641 28.7845L26.8266 32.947L27.5851 32.1885" stroke="#217946" strokeWidth="1.45956" stroke-miterlimit="10"/>
<path d="M27.4922 32.2615L29.4145 30.354" stroke="#217946" strokeWidth="1.45956" stroke-miterlimit="10" strokeLinecap="round"/>
<path d="M32 27.7714L32.712 27.0326L34.5888 25.0852" stroke="#217946" strokeWidth="1.45956" stroke-miterlimit="10" strokeLinecap="round"/>
<path d="M37.1562 22.6106L38.1987 21.5681" stroke="#217946" strokeWidth="1.45956" stroke-miterlimit="10" strokeLinecap="round"/>
<path d="M14.9419 6.90262C15.0302 6.4979 15.4079 6.22318 15.8176 6.26488L23.9292 7.08413C24.1573 7.10621 24.3829 7.03262 24.5522 6.88055L30.6328 1.45238C30.9419 1.17766 31.4079 1.17766 31.717 1.45238L37.7976 6.88055C37.9669 7.03262 38.195 7.10621 38.4206 7.08413L46.5322 6.26488C46.9443 6.22318 47.322 6.4979 47.4079 6.90262L49.1347 14.8695C49.1838 15.0927 49.3236 15.284 49.5198 15.3993L56.562 19.5054C56.9201 19.7139 57.0648 20.1579 56.898 20.5356L53.6136 27.9972C53.5229 28.2057 53.5229 28.4436 53.6136 28.6521L56.898 36.1137C57.0648 36.4914 56.9201 36.9354 56.562 37.1439L49.5198 41.25C49.3236 41.3652 49.1838 41.5566 49.1347 41.7798L47.4079 49.7466C47.3196 50.1514 46.9419 50.4261 46.5322 50.3844L38.4206 49.5651C38.1925 49.5431 37.9669 49.6166 37.7976 49.7687L31.717 55.1969C31.4079 55.4716 30.9419 55.4716 30.6328 55.1969L24.5522 49.7687C24.3829 49.6166 24.1548 49.5431 23.9292 49.5651L15.8176 50.3844C15.4055 50.4261 15.0278 50.1514 14.9419 49.7466L13.2151 41.7798C13.166 41.5566 13.0262 41.3652 12.83 41.25L5.78785 37.1439C5.42973 36.9354 5.28501 36.4914 5.45181 36.1137L8.73618 28.6521C8.82693 28.4436 8.82693 28.2057 8.73618 27.9972L5.45181 20.5356C5.28501 20.1579 5.42973 19.7139 5.78785 19.5054L6.44276 19.1227" stroke="#217946" strokeWidth="1.59224" stroke-miterlimit="10"/>
<path d="M6.13103 19.323L12.7322 14.7793L14.983 6.78938" stroke="#217946" strokeWidth="1.59224" stroke-miterlimit="10" strokeLinecap="round" stroke-dasharray="3.3 3.3"/>
</g>
<defs>
<clipPath id="clip0_1250_2662">
<rect width="61.036" height="55.0651" fill="white" transform="translate(0.726562 0.68042)"/>
</clipPath>
</defs>
</svg>
