<svg width="121" height="122" viewBox="0 0 121 122" fill="none" xmlns="http://www.w3.org/2000/svg">
<circle cx="60.7406" cy="60.9105" r="59.2592" stroke="#217946" stroke-width="2"/>
<g clip-path="url(#clip0_1250_2660)">
<path d="M67.6978 51.5682L69.1597 50.1063C69.8219 49.4441 70.8987 49.4441 71.561 50.1063C72.2233 50.7686 72.2233 51.8454 71.561 52.5077L57.5233 66.5454C57.2044 66.8642 56.7727 67.0408 56.3239 67.0408C55.875 67.0408 55.4433 66.8618 55.1244 66.5454L49.7625 61.1834C49.1125 60.5089 49.1296 59.4345 49.8042 58.7845C50.4615 58.1492 51.504 58.1492 52.1614 58.7845L56.3239 62.947L57.0824 62.1885" stroke="#217946" stroke-width="1.45956" stroke-miterlimit="10"/>
<path d="M56.9895 62.2615L58.9118 60.354" stroke="#217946" stroke-width="1.45956" stroke-miterlimit="10" stroke-linecap="round"/>
<path d="M61.4946 57.7714L62.2066 57.0326L64.0834 55.0852" stroke="#217946" stroke-width="1.45956" stroke-miterlimit="10" stroke-linecap="round"/>
<path d="M66.6553 52.6106L67.6977 51.5681" stroke="#217946" stroke-width="1.45956" stroke-miterlimit="10" stroke-linecap="round"/>
<path d="M44.4397 36.9026C44.528 36.4979 44.9057 36.2232 45.3154 36.2649L53.427 37.0841C53.6551 37.1062 53.8807 37.0326 54.05 36.8805L60.1306 31.4524C60.4397 31.1777 60.9057 31.1777 61.2148 31.4524L67.2954 36.8805C67.4647 37.0326 67.6928 37.1062 67.9184 37.0841L76.03 36.2649C76.4421 36.2232 76.8198 36.4979 76.9057 36.9026L78.6325 44.8695C78.6816 45.0927 78.8214 45.284 79.0176 45.3993L86.0598 49.5054C86.4179 49.7139 86.5626 50.1579 86.3958 50.5356L83.1114 57.9972C83.0207 58.2057 83.0207 58.4436 83.1114 58.6521L86.3958 66.1137C86.5626 66.4914 86.4179 66.9354 86.0598 67.1439L79.0176 71.25C78.8214 71.3652 78.6816 71.5566 78.6325 71.7798L76.9057 79.7466C76.8174 80.1514 76.4397 80.4261 76.03 80.3844L67.9184 79.5651C67.6903 79.5431 67.4647 79.6166 67.2954 79.7687L61.2148 85.1969C60.9057 85.4716 60.4397 85.4716 60.1306 85.1969L54.05 79.7687C53.8807 79.6166 53.6526 79.5431 53.427 79.5651L45.3154 80.3844C44.9033 80.4261 44.5256 80.1514 44.4397 79.7466L42.7129 71.7798C42.6638 71.5566 42.524 71.3652 42.3278 71.25L35.2856 67.1439C34.9275 66.9354 34.7828 66.4914 34.9496 66.1137L38.234 58.6521C38.3247 58.4436 38.3247 58.2057 38.234 57.9972L34.9496 50.5356C34.7828 50.1579 34.9275 49.7139 35.2856 49.5054L35.9406 49.1227" stroke="#217946" stroke-width="1.59224" stroke-miterlimit="10"/>
<path d="M35.6244 49.323L42.2256 44.7793L44.4764 36.7894" stroke="#217946" stroke-width="1.59224" stroke-miterlimit="10" stroke-linecap="round" stroke-dasharray="3.3 3.3"/>
</g>
<defs>
<clipPath id="clip0_1250_2660">
<rect width="61.036" height="55.0651" fill="white" transform="translate(30.2227 30.6804)"/>
</clipPath>
</defs>
</svg>
