<svg width="956" height="383" viewBox="0 0 956 383" fill="none" xmlns="http://www.w3.org/2000/svg">
<path d="M0 0L956 0L874.22 383H0V0Z" fill="#217946"/>
<path d="M135.513 84.0732H121.479V82.0371L127.207 76.2217C128.271 75.1475 129.165 74.1904 129.888 73.3506C130.62 72.5107 131.177 71.6855 131.558 70.875C131.938 70.0547 132.129 69.1562 132.129 68.1797C132.129 66.9688 131.768 66.0459 131.045 65.4111C130.332 64.7666 129.39 64.4443 128.218 64.4443C127.192 64.4443 126.284 64.6201 125.493 64.9717C124.702 65.3232 123.892 65.8213 123.062 66.4658L121.758 64.8252C122.324 64.3467 122.939 63.9219 123.604 63.5508C124.277 63.1797 124.995 62.8867 125.757 62.6719C126.528 62.457 127.349 62.3496 128.218 62.3496C129.536 62.3496 130.674 62.5791 131.631 63.0381C132.588 63.4971 133.325 64.1514 133.843 65.001C134.37 65.8506 134.634 66.8613 134.634 68.0332C134.634 69.166 134.409 70.2207 133.96 71.1973C133.511 72.1641 132.881 73.126 132.07 74.083C131.26 75.0303 130.312 76.0361 129.229 77.1006L124.57 81.7441V81.8467H135.513V84.0732ZM152.198 73.3359C152.198 75.0742 152.066 76.627 151.802 77.9941C151.539 79.3613 151.124 80.5186 150.557 81.4658C149.991 82.4131 149.258 83.1357 148.36 83.6338C147.462 84.1221 146.382 84.3662 145.123 84.3662C143.531 84.3662 142.212 83.9316 141.168 83.0625C140.132 82.1934 139.356 80.9385 138.838 79.2979C138.331 77.6475 138.077 75.6602 138.077 73.3359C138.077 71.0508 138.306 69.0879 138.765 67.4473C139.234 65.7969 139.986 64.5322 141.021 63.6533C142.056 62.7646 143.423 62.3203 145.123 62.3203C146.734 62.3203 148.062 62.7598 149.107 63.6387C150.152 64.5078 150.928 65.7676 151.436 67.418C151.944 69.0586 152.198 71.0312 152.198 73.3359ZM140.523 73.3359C140.523 75.3281 140.674 76.9883 140.977 78.3164C141.28 79.6445 141.768 80.6406 142.442 81.3047C143.126 81.959 144.019 82.2861 145.123 82.2861C146.226 82.2861 147.115 81.959 147.789 81.3047C148.472 80.6504 148.965 79.6592 149.268 78.3311C149.581 77.0029 149.737 75.3379 149.737 73.3359C149.737 71.373 149.586 69.7324 149.283 68.4141C148.98 67.0859 148.492 66.0898 147.818 65.4258C147.144 64.752 146.246 64.415 145.123 64.415C144 64.415 143.101 64.752 142.427 65.4258C141.754 66.0898 141.265 67.0859 140.962 68.4141C140.67 69.7324 140.523 71.373 140.523 73.3359ZM160.959 91.2803C160.461 91.2803 160.026 91.2412 159.655 91.1631C159.284 91.0947 158.962 91.0117 158.688 90.9141V88.9365C158.991 89.0342 159.299 89.1074 159.611 89.1562C159.924 89.2148 160.275 89.2441 160.666 89.2441C161.33 89.2441 161.867 89.0586 162.277 88.6875C162.687 88.3164 162.892 87.6426 162.892 86.666V68.0186H165.324V86.6074C165.324 87.584 165.168 88.4189 164.855 89.1123C164.543 89.8154 164.064 90.3525 163.42 90.7236C162.775 91.0947 161.955 91.2803 160.959 91.2803ZM162.673 63.6094C162.673 63.0625 162.809 62.6621 163.083 62.4082C163.366 62.1445 163.718 62.0127 164.138 62.0127C164.538 62.0127 164.88 62.1445 165.163 62.4082C165.456 62.6621 165.602 63.0625 165.602 63.6094C165.602 64.1465 165.456 64.5469 165.163 64.8105C164.88 65.0742 164.538 65.2061 164.138 65.2061C163.718 65.2061 163.366 65.0742 163.083 64.8105C162.809 64.5469 162.673 64.1465 162.673 63.6094ZM175.886 67.7549C177.8 67.7549 179.221 68.1846 180.149 69.0439C181.077 69.9033 181.54 71.2754 181.54 73.1602V84.0732H179.768L179.299 81.7002H179.182C178.733 82.2861 178.264 82.7793 177.776 83.1797C177.287 83.5703 176.721 83.8682 176.077 84.0732C175.442 84.2686 174.661 84.3662 173.733 84.3662C172.756 84.3662 171.887 84.1953 171.125 83.8535C170.373 83.5117 169.778 82.9941 169.338 82.3008C168.909 81.6074 168.694 80.7285 168.694 79.6641C168.694 78.0625 169.329 76.832 170.598 75.9727C171.868 75.1133 173.801 74.6445 176.399 74.5664L179.167 74.4492V73.4678C179.167 72.0811 178.87 71.1094 178.274 70.5527C177.678 69.9961 176.838 69.7178 175.754 69.7178C174.914 69.7178 174.114 69.8398 173.352 70.084C172.59 70.3281 171.868 70.6162 171.184 70.9482L170.437 69.1025C171.16 68.7314 171.99 68.4141 172.927 68.1504C173.865 67.8867 174.851 67.7549 175.886 67.7549ZM179.138 76.1631L176.692 76.2656C174.69 76.3438 173.279 76.6709 172.458 77.2471C171.638 77.8232 171.228 78.6387 171.228 79.6934C171.228 80.6113 171.506 81.29 172.063 81.7295C172.62 82.1689 173.357 82.3887 174.275 82.3887C175.701 82.3887 176.868 81.9932 177.776 81.2021C178.684 80.4111 179.138 79.2246 179.138 77.6426V76.1631ZM191.956 67.7549C193.87 67.7549 195.291 68.1846 196.219 69.0439C197.146 69.9033 197.61 71.2754 197.61 73.1602V84.0732H195.838L195.369 81.7002H195.252C194.803 82.2861 194.334 82.7793 193.846 83.1797C193.357 83.5703 192.791 83.8682 192.146 84.0732C191.512 84.2686 190.73 84.3662 189.803 84.3662C188.826 84.3662 187.957 84.1953 187.195 83.8535C186.443 83.5117 185.848 82.9941 185.408 82.3008C184.979 81.6074 184.764 80.7285 184.764 79.6641C184.764 78.0625 185.398 76.832 186.668 75.9727C187.938 75.1133 189.871 74.6445 192.469 74.5664L195.237 74.4492V73.4678C195.237 72.0811 194.939 71.1094 194.344 70.5527C193.748 69.9961 192.908 69.7178 191.824 69.7178C190.984 69.7178 190.184 69.8398 189.422 70.084C188.66 70.3281 187.938 70.6162 187.254 70.9482L186.507 69.1025C187.229 68.7314 188.06 68.4141 188.997 68.1504C189.935 67.8867 190.921 67.7549 191.956 67.7549ZM195.208 76.1631L192.762 76.2656C190.76 76.3438 189.349 76.6709 188.528 77.2471C187.708 77.8232 187.298 78.6387 187.298 79.6934C187.298 80.6113 187.576 81.29 188.133 81.7295C188.689 82.1689 189.427 82.3887 190.345 82.3887C191.771 82.3887 192.938 81.9932 193.846 81.2021C194.754 80.4111 195.208 79.2246 195.208 77.6426V76.1631ZM209.315 67.7256C209.637 67.7256 209.974 67.7451 210.326 67.7842C210.677 67.8135 210.99 67.8574 211.263 67.916L210.956 70.1719C210.692 70.1035 210.399 70.0498 210.077 70.0107C209.754 69.9717 209.452 69.9521 209.169 69.9521C208.524 69.9521 207.914 70.084 207.338 70.3477C206.771 70.6016 206.273 70.9727 205.843 71.4609C205.414 71.9395 205.077 72.5205 204.833 73.2041C204.588 73.8779 204.466 74.6299 204.466 75.46V84.0732H202.02V68.0186H204.042L204.305 70.9775H204.408C204.74 70.3818 205.14 69.8398 205.609 69.3516C206.078 68.8535 206.62 68.458 207.235 68.165C207.86 67.8721 208.553 67.7256 209.315 67.7256ZM227.07 67.7256C228.437 67.7256 229.609 68.0283 230.586 68.6338C231.562 69.2393 232.309 70.0889 232.827 71.1826C233.345 72.2666 233.603 73.5361 233.603 74.9912V76.5H222.514C222.544 78.3848 223.012 79.8203 223.921 80.8066C224.829 81.793 226.108 82.2861 227.759 82.2861C228.774 82.2861 229.673 82.1934 230.454 82.0078C231.235 81.8223 232.046 81.5488 232.886 81.1875V83.3262C232.075 83.6875 231.269 83.9512 230.469 84.1172C229.678 84.2832 228.74 84.3662 227.656 84.3662C226.113 84.3662 224.765 84.0537 223.613 83.4287C222.471 82.7939 221.582 81.8662 220.947 80.6455C220.312 79.4248 219.995 77.9307 219.995 76.1631C219.995 74.4346 220.283 72.9404 220.859 71.6807C221.445 70.4111 222.265 69.4346 223.32 68.751C224.385 68.0674 225.635 67.7256 227.07 67.7256ZM227.041 69.7178C225.742 69.7178 224.707 70.1426 223.935 70.9922C223.164 71.8418 222.705 73.0283 222.558 74.5518H231.054C231.045 73.5947 230.893 72.7549 230.6 72.0322C230.317 71.2998 229.883 70.7334 229.297 70.333C228.711 69.9229 227.959 69.7178 227.041 69.7178ZM244.429 67.7256C244.751 67.7256 245.088 67.7451 245.44 67.7842C245.791 67.8135 246.104 67.8574 246.377 67.916L246.07 70.1719C245.806 70.1035 245.513 70.0498 245.191 70.0107C244.869 69.9717 244.566 69.9521 244.283 69.9521C243.638 69.9521 243.028 70.084 242.452 70.3477C241.885 70.6016 241.387 70.9727 240.957 71.4609C240.528 71.9395 240.191 72.5205 239.947 73.2041C239.703 73.8779 239.58 74.6299 239.58 75.46V84.0732H237.134V68.0186H239.156L239.419 70.9775H239.522C239.854 70.3818 240.254 69.8398 240.723 69.3516C241.192 68.8535 241.734 68.458 242.349 68.165C242.974 67.8721 243.667 67.7256 244.429 67.7256ZM252.34 84.0732L246.246 68.0186H248.854L252.384 77.7305C252.628 78.3945 252.877 79.127 253.131 79.9277C253.385 80.7285 253.561 81.373 253.658 81.8613H253.761C253.878 81.373 254.073 80.7285 254.347 79.9277C254.62 79.1172 254.869 78.3848 255.094 77.7305L258.624 68.0186H261.231L255.123 84.0732H252.34ZM269.215 67.7549C271.129 67.7549 272.55 68.1846 273.478 69.0439C274.406 69.9033 274.87 71.2754 274.87 73.1602V84.0732H273.097L272.629 81.7002H272.511C272.062 82.2861 271.593 82.7793 271.105 83.1797C270.617 83.5703 270.05 83.8682 269.406 84.0732C268.771 84.2686 267.99 84.3662 267.062 84.3662C266.086 84.3662 265.216 84.1953 264.455 83.8535C263.703 83.5117 263.107 82.9941 262.668 82.3008C262.238 81.6074 262.023 80.7285 262.023 79.6641C262.023 78.0625 262.658 76.832 263.927 75.9727C265.197 75.1133 267.13 74.6445 269.728 74.5664L272.497 74.4492V73.4678C272.497 72.0811 272.199 71.1094 271.603 70.5527C271.007 69.9961 270.168 69.7178 269.084 69.7178C268.244 69.7178 267.443 69.8398 266.681 70.084C265.92 70.3281 265.197 70.6162 264.513 70.9482L263.766 69.1025C264.489 68.7314 265.319 68.4141 266.256 68.1504C267.194 67.8867 268.18 67.7549 269.215 67.7549ZM272.467 76.1631L270.021 76.2656C268.019 76.3438 266.608 76.6709 265.788 77.2471C264.967 77.8232 264.557 78.6387 264.557 79.6934C264.557 80.6113 264.836 81.29 265.392 81.7295C265.949 82.1689 266.686 82.3887 267.604 82.3887C269.03 82.3887 270.197 81.9932 271.105 81.2021C272.013 80.4111 272.467 79.2246 272.467 77.6426V76.1631ZM286.574 67.7256C286.897 67.7256 287.234 67.7451 287.585 67.7842C287.937 67.8135 288.249 67.8574 288.523 67.916L288.215 70.1719C287.951 70.1035 287.658 70.0498 287.336 70.0107C287.014 69.9717 286.711 69.9521 286.428 69.9521C285.783 69.9521 285.173 70.084 284.597 70.3477C284.03 70.6016 283.532 70.9727 283.103 71.4609C282.673 71.9395 282.336 72.5205 282.092 73.2041C281.848 73.8779 281.726 74.6299 281.726 75.46V84.0732H279.279V68.0186H281.301L281.565 70.9775H281.667C281.999 70.3818 282.4 69.8398 282.868 69.3516C283.337 68.8535 283.879 68.458 284.494 68.165C285.119 67.8721 285.813 67.7256 286.574 67.7256ZM293.387 68.0186V84.0732H290.955V68.0186H293.387ZM292.2 62.0127C292.6 62.0127 292.942 62.1445 293.225 62.4082C293.518 62.6621 293.665 63.0625 293.665 63.6094C293.665 64.1465 293.518 64.5469 293.225 64.8105C292.942 65.0742 292.6 65.2061 292.2 65.2061C291.78 65.2061 291.429 65.0742 291.145 64.8105C290.872 64.5469 290.735 64.1465 290.735 63.6094C290.735 63.0625 290.872 62.6621 291.145 62.4082C291.429 62.1445 291.78 62.0127 292.2 62.0127ZM305.545 67.7256C307.45 67.7256 308.89 68.1943 309.867 69.1318C310.843 70.0596 311.331 71.5537 311.331 73.6143V84.0732H308.929V73.7754C308.929 72.4375 308.621 71.4365 308.006 70.7725C307.401 70.1084 306.468 69.7764 305.208 69.7764C303.431 69.7764 302.181 70.2793 301.458 71.2852C300.736 72.291 300.374 73.751 300.374 75.665V84.0732H297.943V68.0186H299.906L300.272 70.333H300.404C300.746 69.7666 301.18 69.293 301.707 68.9121C302.235 68.5215 302.826 68.2285 303.48 68.0332C304.134 67.8281 304.823 67.7256 305.545 67.7256ZM321.469 67.7256C322.572 67.7256 323.544 67.9355 324.384 68.3555C325.233 68.7656 325.946 69.3857 326.522 70.2158H326.684L327.006 68.0186H328.954V84.3955C328.954 85.8994 328.7 87.1592 328.192 88.1748C327.685 89.2002 326.903 89.9717 325.849 90.4893C324.804 91.0166 323.461 91.2803 321.82 91.2803C320.648 91.2803 319.584 91.1924 318.627 91.0166C317.67 90.8408 316.815 90.582 316.063 90.2402V87.9844C316.815 88.375 317.694 88.6826 318.7 88.9072C319.716 89.1318 320.8 89.2441 321.952 89.2441C323.417 89.2441 324.545 88.8291 325.336 87.999C326.137 87.1689 326.537 86.0312 326.537 84.5859V83.8828C326.537 83.5996 326.547 83.2383 326.566 82.7988C326.596 82.3496 326.615 82.0176 326.625 81.8027H326.508C325.971 82.6621 325.277 83.3066 324.428 83.7363C323.588 84.1562 322.597 84.3662 321.454 84.3662C319.384 84.3662 317.763 83.6436 316.591 82.1982C315.429 80.7529 314.848 78.7217 314.848 76.1045C314.848 73.5361 315.429 71.5 316.591 69.9961C317.753 68.4824 319.379 67.7256 321.469 67.7256ZM321.806 69.7764C320.849 69.7764 320.038 70.0254 319.374 70.5234C318.72 71.0215 318.222 71.7441 317.88 72.6914C317.538 73.6289 317.367 74.7715 317.367 76.1191C317.367 78.1504 317.743 79.7031 318.495 80.7773C319.247 81.8418 320.351 82.374 321.806 82.374C322.655 82.374 323.383 82.2568 323.988 82.0225C324.594 81.7881 325.082 81.4365 325.453 80.9678C325.834 80.4893 326.112 79.8936 326.288 79.1807C326.474 78.4678 326.566 77.6377 326.566 76.6904V75.9727C326.566 74.5371 326.4 73.3652 326.068 72.457C325.736 71.5391 325.219 70.8652 324.516 70.4355C323.822 69.9961 322.919 69.7764 321.806 69.7764ZM343.135 68.0186V84.0732H340.703V68.0186H343.135ZM341.948 62.0127C342.349 62.0127 342.691 62.1445 342.974 62.4082C343.267 62.6621 343.413 63.0625 343.413 63.6094C343.413 64.1465 343.267 64.5469 342.974 64.8105C342.691 65.0742 342.349 65.2061 341.948 65.2061C341.529 65.2061 341.177 65.0742 340.894 64.8105C340.62 64.5469 340.484 64.1465 340.484 63.6094C340.484 63.0625 340.62 62.6621 340.894 62.4082C341.177 62.1445 341.529 62.0127 341.948 62.0127ZM355.294 67.7256C357.198 67.7256 358.638 68.1943 359.615 69.1318C360.592 70.0596 361.08 71.5537 361.08 73.6143V84.0732H358.678V73.7754C358.678 72.4375 358.37 71.4365 357.755 70.7725C357.149 70.1084 356.217 69.7764 354.957 69.7764C353.179 69.7764 351.929 70.2793 351.207 71.2852C350.484 72.291 350.123 73.751 350.123 75.665V84.0732H347.691V68.0186H349.654L350.02 70.333H350.152C350.494 69.7666 350.929 69.293 351.456 68.9121C351.983 68.5215 352.574 68.2285 353.228 68.0332C353.883 67.8281 354.571 67.7256 355.294 67.7256ZM377.868 82.374C378.269 82.374 378.679 82.3398 379.099 82.2715C379.519 82.2031 379.86 82.1201 380.124 82.0225V83.9121C379.841 84.0391 379.445 84.1465 378.938 84.2344C378.439 84.3223 377.951 84.3662 377.473 84.3662C376.623 84.3662 375.852 84.2197 375.158 83.9268C374.465 83.624 373.908 83.1162 373.488 82.4033C373.078 81.6904 372.873 80.7041 372.873 79.4443V69.9229H370.588V68.7363L372.888 67.7842L373.854 64.2979H375.319V68.0186H380.021V69.9229H375.319V79.3711C375.319 80.377 375.549 81.1289 376.008 81.627C376.477 82.125 377.097 82.374 377.868 82.374ZM390.071 67.7256C390.393 67.7256 390.73 67.7451 391.082 67.7842C391.433 67.8135 391.746 67.8574 392.019 67.916L391.712 70.1719C391.448 70.1035 391.155 70.0498 390.833 70.0107C390.51 69.9717 390.208 69.9521 389.924 69.9521C389.28 69.9521 388.67 70.084 388.093 70.3477C387.527 70.6016 387.029 70.9727 386.599 71.4609C386.17 71.9395 385.833 72.5205 385.588 73.2041C385.344 73.8779 385.222 74.6299 385.222 75.46V84.0732H382.776V68.0186H384.797L385.061 70.9775H385.164C385.496 70.3818 385.896 69.8398 386.365 69.3516C386.834 68.8535 387.376 68.458 387.991 68.165C388.616 67.8721 389.309 67.7256 390.071 67.7256ZM400.457 67.7549C402.371 67.7549 403.792 68.1846 404.72 69.0439C405.648 69.9033 406.112 71.2754 406.112 73.1602V84.0732H404.339L403.87 81.7002H403.753C403.304 82.2861 402.835 82.7793 402.347 83.1797C401.859 83.5703 401.292 83.8682 400.648 84.0732C400.013 84.2686 399.232 84.3662 398.304 84.3662C397.327 84.3662 396.458 84.1953 395.696 83.8535C394.945 83.5117 394.349 82.9941 393.909 82.3008C393.48 81.6074 393.265 80.7285 393.265 79.6641C393.265 78.0625 393.9 76.832 395.169 75.9727C396.439 75.1133 398.372 74.6445 400.97 74.5664L403.738 74.4492V73.4678C403.738 72.0811 403.441 71.1094 402.845 70.5527C402.249 69.9961 401.409 69.7178 400.325 69.7178C399.486 69.7178 398.685 69.8398 397.923 70.084C397.161 70.3281 396.439 70.6162 395.755 70.9482L395.008 69.1025C395.731 68.7314 396.561 68.4141 397.498 68.1504C398.436 67.8867 399.422 67.7549 400.457 67.7549ZM403.709 76.1631L401.263 76.2656C399.261 76.3438 397.85 76.6709 397.029 77.2471C396.209 77.8232 395.799 78.6387 395.799 79.6934C395.799 80.6113 396.077 81.29 396.634 81.7295C397.191 82.1689 397.928 82.3887 398.846 82.3887C400.272 82.3887 401.439 81.9932 402.347 81.2021C403.255 80.4111 403.709 79.2246 403.709 77.6426V76.1631ZM418.065 67.7256C420.067 67.7256 421.664 68.4141 422.855 69.791C424.047 71.168 424.642 73.2383 424.642 76.002C424.642 77.8281 424.369 79.3613 423.822 80.6016C423.275 81.8418 422.504 82.7793 421.508 83.4141C420.521 84.0488 419.354 84.3662 418.007 84.3662C417.157 84.3662 416.41 84.2539 415.765 84.0293C415.121 83.8047 414.569 83.502 414.11 83.1211C413.651 82.7402 413.27 82.3252 412.968 81.876H412.792C412.821 82.2568 412.855 82.7158 412.894 83.2529C412.943 83.79 412.968 84.2588 412.968 84.6592V91.251H410.521V68.0186H412.528L412.85 70.3916H412.968C413.28 69.9033 413.661 69.459 414.11 69.0586C414.559 68.6484 415.106 68.3262 415.751 68.0918C416.405 67.8477 417.177 67.7256 418.065 67.7256ZM417.64 69.7764C416.527 69.7764 415.629 69.9912 414.945 70.4209C414.271 70.8506 413.778 71.4951 413.466 72.3545C413.153 73.2041 412.987 74.2734 412.968 75.5625V76.0312C412.968 77.3887 413.114 78.5361 413.407 79.4736C413.71 80.4111 414.203 81.124 414.887 81.6123C415.58 82.1006 416.508 82.3447 417.67 82.3447C418.666 82.3447 419.496 82.0762 420.16 81.5391C420.824 81.002 421.317 80.2549 421.639 79.2979C421.971 78.3311 422.138 77.2227 422.138 75.9727C422.138 74.0781 421.766 72.5742 421.024 71.4609C420.292 70.3379 419.164 69.7764 417.64 69.7764ZM441.665 67.7256C443.032 67.7256 444.204 68.0283 445.181 68.6338C446.157 69.2393 446.904 70.0889 447.422 71.1826C447.939 72.2666 448.198 73.5361 448.198 74.9912V76.5H437.109C437.139 78.3848 437.607 79.8203 438.516 80.8066C439.424 81.793 440.703 82.2861 442.354 82.2861C443.369 82.2861 444.268 82.1934 445.049 82.0078C445.83 81.8223 446.641 81.5488 447.48 81.1875V83.3262C446.67 83.6875 445.864 83.9512 445.063 84.1172C444.272 84.2832 443.335 84.3662 442.251 84.3662C440.708 84.3662 439.36 84.0537 438.208 83.4287C437.065 82.7939 436.177 81.8662 435.542 80.6455C434.907 79.4248 434.59 77.9307 434.59 76.1631C434.59 74.4346 434.878 72.9404 435.454 71.6807C436.04 70.4111 436.86 69.4346 437.915 68.751C438.979 68.0674 440.229 67.7256 441.665 67.7256ZM441.636 69.7178C440.337 69.7178 439.302 70.1426 438.53 70.9922C437.759 71.8418 437.3 73.0283 437.153 74.5518H445.649C445.64 73.5947 445.488 72.7549 445.195 72.0322C444.912 71.2998 444.478 70.7334 443.892 70.333C443.306 69.9229 442.554 69.7178 441.636 69.7178ZM459.332 67.7256C461.236 67.7256 462.676 68.1943 463.653 69.1318C464.629 70.0596 465.118 71.5537 465.118 73.6143V84.0732H462.715V73.7754C462.715 72.4375 462.408 71.4365 461.793 70.7725C461.187 70.1084 460.254 69.7764 458.995 69.7764C457.217 69.7764 455.967 70.2793 455.245 71.2852C454.522 72.291 454.161 73.751 454.161 75.665V84.0732H451.729V68.0186H453.692L454.058 70.333H454.19C454.532 69.7666 454.966 69.293 455.494 68.9121C456.021 68.5215 456.612 68.2285 457.266 68.0332C457.921 67.8281 458.609 67.7256 459.332 67.7256ZM480.251 84.0732L474.157 68.0186H476.764L480.295 77.7305C480.539 78.3945 480.788 79.127 481.042 79.9277C481.296 80.7285 481.471 81.373 481.569 81.8613H481.672C481.789 81.373 481.984 80.7285 482.258 79.9277C482.531 79.1172 482.78 78.3848 483.005 77.7305L486.535 68.0186H489.142L483.034 84.0732H480.251ZM493.567 84.0732H491.121V61.2803H493.567V84.0732ZM511.951 76.0166C511.951 77.335 511.78 78.5117 511.438 79.5469C511.097 80.582 510.604 81.4561 509.959 82.1689C509.314 82.8818 508.533 83.4287 507.615 83.8096C506.707 84.1807 505.677 84.3662 504.524 84.3662C503.45 84.3662 502.464 84.1807 501.565 83.8096C500.677 83.4287 499.905 82.8818 499.251 82.1689C498.606 81.4561 498.104 80.582 497.742 79.5469C497.391 78.5117 497.215 77.335 497.215 76.0166C497.215 74.2588 497.513 72.7646 498.108 71.5342C498.704 70.2939 499.554 69.3516 500.657 68.707C501.771 68.0527 503.094 67.7256 504.627 67.7256C506.092 67.7256 507.371 68.0527 508.465 68.707C509.568 69.3613 510.423 70.3086 511.028 71.5488C511.644 72.7793 511.951 74.2686 511.951 76.0166ZM499.734 76.0166C499.734 77.3057 499.905 78.4238 500.247 79.3711C500.589 80.3184 501.116 81.0508 501.829 81.5684C502.542 82.0859 503.46 82.3447 504.583 82.3447C505.696 82.3447 506.609 82.0859 507.322 81.5684C508.045 81.0508 508.577 80.3184 508.919 79.3711C509.261 78.4238 509.432 77.3057 509.432 76.0166C509.432 74.7373 509.261 73.6338 508.919 72.7061C508.577 71.7686 508.05 71.0459 507.337 70.5381C506.624 70.0303 505.701 69.7764 504.568 69.7764C502.898 69.7764 501.673 70.3281 500.892 71.4316C500.12 72.5352 499.734 74.0635 499.734 76.0166ZM521.737 67.7256C523.104 67.7256 524.276 68.0283 525.253 68.6338C526.229 69.2393 526.976 70.0889 527.494 71.1826C528.011 72.2666 528.27 73.5361 528.27 74.9912V76.5H517.181C517.211 78.3848 517.679 79.8203 518.587 80.8066C519.496 81.793 520.775 82.2861 522.425 82.2861C523.441 82.2861 524.339 82.1934 525.121 82.0078C525.902 81.8223 526.712 81.5488 527.552 81.1875V83.3262C526.742 83.6875 525.936 83.9512 525.135 84.1172C524.344 84.2832 523.407 84.3662 522.323 84.3662C520.78 84.3662 519.432 84.0537 518.28 83.4287C517.137 82.7939 516.249 81.8662 515.614 80.6455C514.979 79.4248 514.662 77.9307 514.662 76.1631C514.662 74.4346 514.95 72.9404 515.526 71.6807C516.112 70.4111 516.932 69.4346 517.987 68.751C519.051 68.0674 520.301 67.7256 521.737 67.7256ZM521.708 69.7178C520.409 69.7178 519.374 70.1426 518.602 70.9922C517.831 71.8418 517.372 73.0283 517.225 74.5518H525.721C525.712 73.5947 525.56 72.7549 525.267 72.0322C524.984 71.2998 524.549 70.7334 523.963 70.333C523.378 69.9229 522.626 69.7178 521.708 69.7178ZM539.096 67.7256C539.418 67.7256 539.755 67.7451 540.107 67.7842C540.458 67.8135 540.771 67.8574 541.044 67.916L540.737 70.1719C540.473 70.1035 540.18 70.0498 539.858 70.0107C539.535 69.9717 539.233 69.9521 538.949 69.9521C538.305 69.9521 537.695 70.084 537.118 70.3477C536.552 70.6016 536.054 70.9727 535.624 71.4609C535.195 71.9395 534.858 72.5205 534.613 73.2041C534.369 73.8779 534.247 74.6299 534.247 75.46V84.0732H531.801V68.0186H533.822L534.086 70.9775H534.189C534.521 70.3818 534.921 69.8398 535.39 69.3516C535.859 68.8535 536.401 68.458 537.016 68.165C537.641 67.8721 538.334 67.7256 539.096 67.7256ZM550.771 67.7256C551.094 67.7256 551.43 67.7451 551.782 67.7842C552.134 67.8135 552.446 67.8574 552.72 67.916L552.412 70.1719C552.148 70.1035 551.855 70.0498 551.533 70.0107C551.211 69.9717 550.908 69.9521 550.625 69.9521C549.98 69.9521 549.37 70.084 548.794 70.3477C548.227 70.6016 547.729 70.9727 547.3 71.4609C546.87 71.9395 546.533 72.5205 546.289 73.2041C546.045 73.8779 545.923 74.6299 545.923 75.46V84.0732H543.476V68.0186H545.498L545.762 70.9775H545.864C546.196 70.3818 546.596 69.8398 547.065 69.3516C547.534 68.8535 548.076 68.458 548.691 68.165C549.316 67.8721 550.01 67.7256 550.771 67.7256ZM561.333 67.7256C562.701 67.7256 563.872 68.0283 564.849 68.6338C565.826 69.2393 566.573 70.0889 567.09 71.1826C567.608 72.2666 567.867 73.5361 567.867 74.9912V76.5H556.778C556.807 78.3848 557.276 79.8203 558.184 80.8066C559.092 81.793 560.371 82.2861 562.022 82.2861C563.038 82.2861 563.936 82.1934 564.717 82.0078C565.498 81.8223 566.309 81.5488 567.149 81.1875V83.3262C566.338 83.6875 565.533 83.9512 564.732 84.1172C563.941 84.2832 563.003 84.3662 561.919 84.3662C560.376 84.3662 559.029 84.0537 557.876 83.4287C556.734 82.7939 555.845 81.8662 555.21 80.6455C554.576 79.4248 554.258 77.9307 554.258 76.1631C554.258 74.4346 554.546 72.9404 555.122 71.6807C555.708 70.4111 556.529 69.4346 557.583 68.751C558.648 68.0674 559.898 67.7256 561.333 67.7256ZM561.304 69.7178C560.005 69.7178 558.97 70.1426 558.199 70.9922C557.427 71.8418 556.968 73.0283 556.822 74.5518H565.318C565.308 73.5947 565.157 72.7549 564.864 72.0322C564.58 71.2998 564.146 70.7334 563.56 70.333C562.974 69.9229 562.222 69.7178 561.304 69.7178ZM579 67.7256C580.904 67.7256 582.345 68.1943 583.321 69.1318C584.298 70.0596 584.786 71.5537 584.786 73.6143V84.0732H582.384V73.7754C582.384 72.4375 582.076 71.4365 581.461 70.7725C580.855 70.1084 579.923 69.7764 578.663 69.7764C576.886 69.7764 575.636 70.2793 574.913 71.2852C574.19 72.291 573.829 73.751 573.829 75.665V84.0732H571.397V68.0186H573.36L573.727 70.333H573.858C574.2 69.7666 574.635 69.293 575.162 68.9121C575.689 68.5215 576.28 68.2285 576.935 68.0332C577.589 67.8281 578.277 67.7256 579 67.7256ZM603.039 76.0166C603.039 77.335 602.868 78.5117 602.526 79.5469C602.184 80.582 601.691 81.4561 601.046 82.1689C600.402 82.8818 599.621 83.4287 598.703 83.8096C597.795 84.1807 596.764 84.3662 595.612 84.3662C594.538 84.3662 593.551 84.1807 592.653 83.8096C591.764 83.4287 590.993 82.8818 590.338 82.1689C589.694 81.4561 589.191 80.582 588.83 79.5469C588.478 78.5117 588.302 77.335 588.302 76.0166C588.302 74.2588 588.6 72.7646 589.196 71.5342C589.792 70.2939 590.641 69.3516 591.745 68.707C592.858 68.0527 594.181 67.7256 595.714 67.7256C597.179 67.7256 598.459 68.0527 599.552 68.707C600.656 69.3613 601.51 70.3086 602.116 71.5488C602.731 72.7793 603.039 74.2686 603.039 76.0166ZM590.822 76.0166C590.822 77.3057 590.993 78.4238 591.335 79.3711C591.676 80.3184 592.204 81.0508 592.917 81.5684C593.629 82.0859 594.547 82.3447 595.671 82.3447C596.784 82.3447 597.697 82.0859 598.41 81.5684C599.132 81.0508 599.665 80.3184 600.006 79.3711C600.348 78.4238 600.519 77.3057 600.519 76.0166C600.519 74.7373 600.348 73.6338 600.006 72.7061C599.665 71.7686 599.137 71.0459 598.424 70.5381C597.712 70.0303 596.789 69.7764 595.656 69.7764C593.986 69.7764 592.76 70.3281 591.979 71.4316C591.208 72.5352 590.822 74.0635 590.822 76.0166ZM610.173 84.0732L604.079 68.0186H606.687L610.217 77.7305C610.461 78.3945 610.71 79.127 610.964 79.9277C611.218 80.7285 611.394 81.373 611.491 81.8613H611.594C611.711 81.373 611.906 80.7285 612.18 79.9277C612.453 79.1172 612.702 78.3848 612.927 77.7305L616.457 68.0186H619.065L612.956 84.0732H610.173ZM627.049 67.7549C628.963 67.7549 630.384 68.1846 631.311 69.0439C632.239 69.9033 632.703 71.2754 632.703 73.1602V84.0732H630.93L630.462 81.7002H630.345C629.895 82.2861 629.427 82.7793 628.938 83.1797C628.45 83.5703 627.884 83.8682 627.239 84.0732C626.604 84.2686 625.823 84.3662 624.895 84.3662C623.919 84.3662 623.05 84.1953 622.288 83.8535C621.536 83.5117 620.94 82.9941 620.501 82.3008C620.071 81.6074 619.856 80.7285 619.856 79.6641C619.856 78.0625 620.491 76.832 621.761 75.9727C623.03 75.1133 624.964 74.6445 627.561 74.5664L630.33 74.4492V73.4678C630.33 72.0811 630.032 71.1094 629.436 70.5527C628.841 69.9961 628.001 69.7178 626.917 69.7178C626.077 69.7178 625.276 69.8398 624.514 70.084C623.753 70.3281 623.03 70.6162 622.346 70.9482L621.599 69.1025C622.322 68.7314 623.152 68.4141 624.09 68.1504C625.027 67.8867 626.013 67.7549 627.049 67.7549ZM630.301 76.1631L627.854 76.2656C625.852 76.3438 624.441 76.6709 623.621 77.2471C622.801 77.8232 622.39 78.6387 622.39 79.6934C622.39 80.6113 622.669 81.29 623.225 81.7295C623.782 82.1689 624.519 82.3887 625.437 82.3887C626.863 82.3887 628.03 81.9932 628.938 81.2021C629.846 80.4111 630.301 79.2246 630.301 77.6426V76.1631ZM642.298 82.374C642.699 82.374 643.109 82.3398 643.529 82.2715C643.949 82.2031 644.29 82.1201 644.554 82.0225V83.9121C644.271 84.0391 643.875 84.1465 643.368 84.2344C642.87 84.3223 642.381 84.3662 641.903 84.3662C641.053 84.3662 640.282 84.2197 639.588 83.9268C638.895 83.624 638.338 83.1162 637.918 82.4033C637.508 81.6904 637.303 80.7041 637.303 79.4443V69.9229H635.018V68.7363L637.318 67.7842L638.285 64.2979H639.749V68.0186H644.452V69.9229H639.749V79.3711C639.749 80.377 639.979 81.1289 640.438 81.627C640.907 82.125 641.527 82.374 642.298 82.374ZM649.638 68.0186V84.0732H647.206V68.0186H649.638ZM648.451 62.0127C648.852 62.0127 649.193 62.1445 649.477 62.4082C649.77 62.6621 649.916 63.0625 649.916 63.6094C649.916 64.1465 649.77 64.5469 649.477 64.8105C649.193 65.0742 648.852 65.2061 648.451 65.2061C648.031 65.2061 647.68 65.0742 647.396 64.8105C647.123 64.5469 646.986 64.1465 646.986 63.6094C646.986 63.0625 647.123 62.6621 647.396 62.4082C647.68 62.1445 648.031 62.0127 648.451 62.0127ZM660.376 67.7256C661.743 67.7256 662.915 68.0283 663.891 68.6338C664.868 69.2393 665.615 70.0889 666.132 71.1826C666.65 72.2666 666.909 73.5361 666.909 74.9912V76.5H655.82C655.849 78.3848 656.318 79.8203 657.226 80.8066C658.134 81.793 659.414 82.2861 661.064 82.2861C662.08 82.2861 662.978 82.1934 663.759 82.0078C664.541 81.8223 665.351 81.5488 666.191 81.1875V83.3262C665.38 83.6875 664.575 83.9512 663.774 84.1172C662.983 84.2832 662.046 84.3662 660.962 84.3662C659.419 84.3662 658.071 84.0537 656.919 83.4287C655.776 82.7939 654.887 81.8662 654.253 80.6455C653.618 79.4248 653.3 77.9307 653.3 76.1631C653.3 74.4346 653.589 72.9404 654.165 71.6807C654.751 70.4111 655.571 69.4346 656.626 68.751C657.69 68.0674 658.94 67.7256 660.376 67.7256ZM660.346 69.7178C659.047 69.7178 658.012 70.1426 657.241 70.9922C656.469 71.8418 656.01 73.0283 655.864 74.5518H664.36C664.35 73.5947 664.199 72.7549 663.906 72.0322C663.623 71.2998 663.188 70.7334 662.602 70.333C662.016 69.9229 661.264 69.7178 660.346 69.7178ZM137.886 99.6572L130.195 121.073H127.69L120 99.6572H122.607L127.617 113.764C127.822 114.33 128.003 114.872 128.159 115.39C128.325 115.907 128.472 116.405 128.599 116.884C128.726 117.362 128.838 117.826 128.936 118.275C129.033 117.826 129.146 117.362 129.272 116.884C129.399 116.396 129.546 115.893 129.712 115.375C129.878 114.848 130.063 114.296 130.269 113.72L135.249 99.6572H137.886ZM145.87 104.755C147.784 104.755 149.205 105.185 150.132 106.044C151.06 106.903 151.524 108.275 151.524 110.16V121.073H149.752L149.283 118.7H149.166C148.716 119.286 148.248 119.779 147.759 120.18C147.271 120.57 146.705 120.868 146.06 121.073C145.425 121.269 144.644 121.366 143.716 121.366C142.74 121.366 141.871 121.195 141.109 120.854C140.357 120.512 139.761 119.994 139.322 119.301C138.892 118.607 138.677 117.729 138.677 116.664C138.677 115.062 139.312 113.832 140.582 112.973C141.851 112.113 143.785 111.645 146.382 111.566L149.151 111.449V110.468C149.151 109.081 148.853 108.109 148.257 107.553C147.662 106.996 146.822 106.718 145.738 106.718C144.898 106.718 144.097 106.84 143.336 107.084C142.574 107.328 141.851 107.616 141.168 107.948L140.421 106.103C141.143 105.731 141.973 105.414 142.911 105.15C143.848 104.887 144.835 104.755 145.87 104.755ZM149.122 113.163L146.675 113.266C144.673 113.344 143.262 113.671 142.442 114.247C141.622 114.823 141.212 115.639 141.212 116.693C141.212 117.611 141.49 118.29 142.046 118.729C142.603 119.169 143.34 119.389 144.258 119.389C145.684 119.389 146.851 118.993 147.759 118.202C148.668 117.411 149.122 116.225 149.122 114.643V113.163ZM163.536 104.726C165.441 104.726 166.881 105.194 167.858 106.132C168.834 107.06 169.322 108.554 169.322 110.614V121.073H166.92V110.775C166.92 109.438 166.612 108.437 165.997 107.772C165.392 107.108 164.459 106.776 163.199 106.776C161.422 106.776 160.172 107.279 159.449 108.285C158.727 109.291 158.365 110.751 158.365 112.665V121.073H155.934V105.019H157.897L158.263 107.333H158.395C158.737 106.767 159.171 106.293 159.698 105.912C160.226 105.521 160.817 105.229 161.471 105.033C162.125 104.828 162.814 104.726 163.536 104.726ZM187.107 104.726C188.474 104.726 189.646 105.028 190.622 105.634C191.599 106.239 192.346 107.089 192.864 108.183C193.381 109.267 193.64 110.536 193.64 111.991V113.5H182.551C182.58 115.385 183.049 116.82 183.957 117.807C184.866 118.793 186.145 119.286 187.795 119.286C188.811 119.286 189.709 119.193 190.491 119.008C191.272 118.822 192.082 118.549 192.922 118.188V120.326C192.112 120.688 191.306 120.951 190.505 121.117C189.714 121.283 188.777 121.366 187.693 121.366C186.15 121.366 184.802 121.054 183.65 120.429C182.507 119.794 181.619 118.866 180.984 117.646C180.349 116.425 180.032 114.931 180.032 113.163C180.032 111.435 180.32 109.94 180.896 108.681C181.482 107.411 182.302 106.435 183.357 105.751C184.421 105.067 185.671 104.726 187.107 104.726ZM187.078 106.718C185.779 106.718 184.744 107.143 183.972 107.992C183.201 108.842 182.742 110.028 182.595 111.552H191.091C191.081 110.595 190.93 109.755 190.637 109.032C190.354 108.3 189.919 107.733 189.333 107.333C188.747 106.923 187.996 106.718 187.078 106.718ZM203.353 104.726C204.72 104.726 205.892 105.028 206.868 105.634C207.845 106.239 208.592 107.089 209.109 108.183C209.627 109.267 209.886 110.536 209.886 111.991V113.5H198.797C198.826 115.385 199.295 116.82 200.203 117.807C201.111 118.793 202.391 119.286 204.041 119.286C205.057 119.286 205.955 119.193 206.736 119.008C207.518 118.822 208.328 118.549 209.168 118.188V120.326C208.357 120.688 207.552 120.951 206.751 121.117C205.96 121.283 205.022 121.366 203.938 121.366C202.396 121.366 201.048 121.054 199.896 120.429C198.753 119.794 197.864 118.866 197.229 117.646C196.595 116.425 196.277 114.931 196.277 113.163C196.277 111.435 196.565 109.94 197.142 108.681C197.728 107.411 198.548 106.435 199.603 105.751C200.667 105.067 201.917 104.726 203.353 104.726ZM203.323 106.718C202.024 106.718 200.989 107.143 200.218 107.992C199.446 108.842 198.987 110.028 198.841 111.552H207.337C207.327 110.595 207.176 109.755 206.883 109.032C206.6 108.3 206.165 107.733 205.579 107.333C204.993 106.923 204.241 106.718 203.323 106.718ZM221.019 104.726C222.923 104.726 224.364 105.194 225.34 106.132C226.317 107.06 226.805 108.554 226.805 110.614V121.073H224.403V110.775C224.403 109.438 224.095 108.437 223.48 107.772C222.875 107.108 221.942 106.776 220.682 106.776C218.905 106.776 217.655 107.279 216.932 108.285C216.21 109.291 215.848 110.751 215.848 112.665V121.073H213.417V105.019H215.379L215.746 107.333H215.878C216.219 106.767 216.654 106.293 217.181 105.912C217.709 105.521 218.299 105.229 218.954 105.033C219.608 104.828 220.296 104.726 221.019 104.726ZM248.647 104.726C250.414 104.726 251.747 105.189 252.646 106.117C253.544 107.035 253.993 108.515 253.993 110.556V121.073H251.591V110.673C251.591 109.374 251.308 108.402 250.741 107.758C250.185 107.104 249.355 106.776 248.251 106.776C246.698 106.776 245.571 107.226 244.867 108.124C244.164 109.022 243.813 110.346 243.813 112.094V121.073H241.396V110.673C241.396 109.804 241.269 109.081 241.015 108.505C240.771 107.929 240.4 107.499 239.902 107.216C239.413 106.923 238.793 106.776 238.041 106.776C236.977 106.776 236.122 106.996 235.478 107.436C234.833 107.875 234.364 108.529 234.071 109.398C233.788 110.258 233.647 111.317 233.647 112.577V121.073H231.215V105.019H233.178L233.544 107.289H233.676C233.998 106.732 234.404 106.264 234.892 105.883C235.38 105.502 235.927 105.214 236.532 105.019C237.138 104.823 237.782 104.726 238.466 104.726C239.687 104.726 240.707 104.955 241.528 105.414C242.358 105.863 242.958 106.552 243.329 107.479H243.461C243.988 106.552 244.711 105.863 245.629 105.414C246.547 104.955 247.553 104.726 248.647 104.726ZM264.394 104.755C266.308 104.755 267.729 105.185 268.657 106.044C269.585 106.903 270.049 108.275 270.049 110.16V121.073H268.276L267.807 118.7H267.69C267.241 119.286 266.772 119.779 266.284 120.18C265.796 120.57 265.229 120.868 264.585 121.073C263.95 121.269 263.169 121.366 262.241 121.366C261.264 121.366 260.395 121.195 259.634 120.854C258.882 120.512 258.286 119.994 257.846 119.301C257.417 118.607 257.202 117.729 257.202 116.664C257.202 115.062 257.837 113.832 259.106 112.973C260.376 112.113 262.309 111.645 264.907 111.566L267.676 111.449V110.468C267.676 109.081 267.378 108.109 266.782 107.553C266.186 106.996 265.346 106.718 264.262 106.718C263.423 106.718 262.622 106.84 261.86 107.084C261.098 107.328 260.376 107.616 259.692 107.948L258.945 106.103C259.668 105.731 260.498 105.414 261.435 105.15C262.373 104.887 263.359 104.755 264.394 104.755ZM267.646 113.163L265.2 113.266C263.198 113.344 261.787 113.671 260.967 114.247C260.146 114.823 259.736 115.639 259.736 116.693C259.736 117.611 260.014 118.29 260.571 118.729C261.128 119.169 261.865 119.389 262.783 119.389C264.209 119.389 265.376 118.993 266.284 118.202C267.192 117.411 267.646 116.225 267.646 114.643V113.163ZM282.061 104.726C283.965 104.726 285.406 105.194 286.382 106.132C287.359 107.06 287.847 108.554 287.847 110.614V121.073H285.445V110.775C285.445 109.438 285.137 108.437 284.522 107.772C283.916 107.108 282.984 106.776 281.724 106.776C279.947 106.776 278.697 107.279 277.974 108.285C277.251 109.291 276.89 110.751 276.89 112.665V121.073H274.458V105.019H276.421L276.788 107.333H276.919C277.261 106.767 277.696 106.293 278.223 105.912C278.75 105.521 279.341 105.229 279.996 105.033C280.65 104.828 281.338 104.726 282.061 104.726ZM302.643 116.679C302.643 117.704 302.384 118.568 301.866 119.271C301.358 119.965 300.626 120.487 299.669 120.839C298.722 121.19 297.589 121.366 296.271 121.366C295.147 121.366 294.176 121.278 293.355 121.103C292.535 120.927 291.817 120.678 291.202 120.355V118.114C291.856 118.437 292.638 118.729 293.546 118.993C294.454 119.257 295.382 119.389 296.329 119.389C297.716 119.389 298.722 119.164 299.347 118.715C299.972 118.266 300.284 117.655 300.284 116.884C300.284 116.444 300.157 116.059 299.903 115.727C299.659 115.385 299.244 115.058 298.658 114.745C298.072 114.423 297.262 114.071 296.227 113.69C295.201 113.3 294.312 112.914 293.561 112.533C292.818 112.143 292.242 111.669 291.832 111.112C291.432 110.556 291.231 109.833 291.231 108.944C291.231 107.587 291.778 106.547 292.872 105.824C293.976 105.092 295.421 104.726 297.208 104.726C298.175 104.726 299.078 104.823 299.918 105.019C300.768 105.204 301.559 105.458 302.291 105.78L301.471 107.729C300.807 107.445 300.099 107.206 299.347 107.011C298.595 106.815 297.828 106.718 297.047 106.718C295.924 106.718 295.06 106.903 294.454 107.274C293.858 107.646 293.561 108.153 293.561 108.798C293.561 109.296 293.697 109.706 293.971 110.028C294.254 110.351 294.703 110.653 295.318 110.937C295.934 111.22 296.744 111.552 297.75 111.933C298.756 112.304 299.625 112.689 300.357 113.09C301.09 113.48 301.651 113.959 302.042 114.525C302.442 115.082 302.643 115.8 302.643 116.679ZM316.266 121.073H304.562V119.462L313.366 106.923H305.119V105.019H316.076V106.82L307.389 119.184H316.266V121.073ZM325.422 104.755C327.336 104.755 328.757 105.185 329.685 106.044C330.613 106.903 331.076 108.275 331.076 110.16V121.073H329.304L328.835 118.7H328.718C328.269 119.286 327.8 119.779 327.312 120.18C326.823 120.57 326.257 120.868 325.613 121.073C324.978 121.269 324.196 121.366 323.269 121.366C322.292 121.366 321.423 121.195 320.661 120.854C319.909 120.512 319.314 119.994 318.874 119.301C318.445 118.607 318.23 117.729 318.23 116.664C318.23 115.062 318.864 113.832 320.134 112.973C321.404 112.113 323.337 111.645 325.935 111.566L328.703 111.449V110.468C328.703 109.081 328.405 108.109 327.81 107.553C327.214 106.996 326.374 106.718 325.29 106.718C324.45 106.718 323.65 106.84 322.888 107.084C322.126 107.328 321.404 107.616 320.72 107.948L319.973 106.103C320.696 105.731 321.526 105.414 322.463 105.15C323.401 104.887 324.387 104.755 325.422 104.755ZM328.674 113.163L326.228 113.266C324.226 113.344 322.815 113.671 321.994 114.247C321.174 114.823 320.764 115.639 320.764 116.693C320.764 117.611 321.042 118.29 321.599 118.729C322.155 119.169 322.893 119.389 323.811 119.389C325.237 119.389 326.404 118.993 327.312 118.202C328.22 117.411 328.674 116.225 328.674 114.643V113.163ZM341.492 104.755C343.406 104.755 344.827 105.185 345.755 106.044C346.682 106.903 347.146 108.275 347.146 110.16V121.073H345.374L344.905 118.7H344.788C344.339 119.286 343.87 119.779 343.382 120.18C342.893 120.57 342.327 120.868 341.682 121.073C341.048 121.269 340.266 121.366 339.339 121.366C338.362 121.366 337.493 121.195 336.731 120.854C335.979 120.512 335.384 119.994 334.944 119.301C334.514 118.607 334.3 117.729 334.3 116.664C334.3 115.062 334.934 113.832 336.204 112.973C337.473 112.113 339.407 111.645 342.005 111.566L344.773 111.449V110.468C344.773 109.081 344.475 108.109 343.88 107.553C343.284 106.996 342.444 106.718 341.36 106.718C340.52 106.718 339.72 106.84 338.958 107.084C338.196 107.328 337.473 107.616 336.79 107.948L336.043 106.103C336.765 105.731 337.596 105.414 338.533 105.15C339.471 104.887 340.457 104.755 341.492 104.755ZM344.744 113.163L342.298 113.266C340.296 113.344 338.885 113.671 338.064 114.247C337.244 114.823 336.834 115.639 336.834 116.693C336.834 117.611 337.112 118.29 337.669 118.729C338.225 119.169 338.963 119.389 339.881 119.389C341.306 119.389 342.473 118.993 343.382 118.202C344.29 117.411 344.744 116.225 344.744 114.643V113.163ZM353.973 98.2803V110.116C353.973 110.507 353.958 110.985 353.929 111.552C353.9 112.108 353.875 112.602 353.856 113.031H353.958C354.163 112.777 354.461 112.401 354.852 111.903C355.252 111.405 355.589 111.005 355.863 110.702L361.195 105.019H364.051L357.591 111.874L364.52 121.073H361.59L355.921 113.471L353.973 115.258V121.073H351.556V98.2803H353.973ZM381.513 104.726C383.418 104.726 384.858 105.194 385.835 106.132C386.811 107.06 387.299 108.554 387.299 110.614V121.073H384.897V110.775C384.897 109.438 384.589 108.437 383.974 107.772C383.369 107.108 382.436 106.776 381.176 106.776C379.399 106.776 378.149 107.279 377.426 108.285C376.704 109.291 376.342 110.751 376.342 112.665V121.073H373.911V105.019H375.874L376.24 107.333H376.372C376.713 106.767 377.148 106.293 377.675 105.912C378.203 105.521 378.794 105.229 379.448 105.033C380.102 104.828 380.791 104.726 381.513 104.726ZM397.715 104.755C399.629 104.755 401.05 105.185 401.978 106.044C402.905 106.903 403.369 108.275 403.369 110.16V121.073H401.597L401.128 118.7H401.011C400.562 119.286 400.093 119.779 399.605 120.18C399.116 120.57 398.55 120.868 397.905 121.073C397.271 121.269 396.489 121.366 395.562 121.366C394.585 121.366 393.716 121.195 392.954 120.854C392.202 120.512 391.607 119.994 391.167 119.301C390.737 118.607 390.523 117.729 390.523 116.664C390.523 115.062 391.157 113.832 392.427 112.973C393.696 112.113 395.63 111.645 398.228 111.566L400.996 111.449V110.468C400.996 109.081 400.698 108.109 400.103 107.553C399.507 106.996 398.667 106.718 397.583 106.718C396.743 106.718 395.943 106.84 395.181 107.084C394.419 107.328 393.696 107.616 393.013 107.948L392.266 106.103C392.988 105.731 393.819 105.414 394.756 105.15C395.694 104.887 396.68 104.755 397.715 104.755ZM400.967 113.163L398.521 113.266C396.519 113.344 395.108 113.671 394.287 114.247C393.467 114.823 393.057 115.639 393.057 116.693C393.057 117.611 393.335 118.29 393.892 118.729C394.448 119.169 395.186 119.389 396.104 119.389C397.529 119.389 398.696 118.993 399.605 118.202C400.513 117.411 400.967 116.225 400.967 114.643V113.163ZM413.785 104.755C415.699 104.755 417.12 105.185 418.048 106.044C418.975 106.903 419.439 108.275 419.439 110.16V121.073H417.667L417.198 118.7H417.081C416.632 119.286 416.163 119.779 415.675 120.18C415.186 120.57 414.62 120.868 413.975 121.073C413.341 121.269 412.559 121.366 411.632 121.366C410.655 121.366 409.786 121.195 409.024 120.854C408.272 120.512 407.677 119.994 407.237 119.301C406.807 118.607 406.593 117.729 406.593 116.664C406.593 115.062 407.227 113.832 408.497 112.973C409.766 112.113 411.7 111.645 414.298 111.566L417.066 111.449V110.468C417.066 109.081 416.768 108.109 416.173 107.553C415.577 106.996 414.737 106.718 413.653 106.718C412.813 106.718 412.013 106.84 411.251 107.084C410.489 107.328 409.766 107.616 409.083 107.948L408.336 106.103C409.058 105.731 409.888 105.414 410.826 105.15C411.763 104.887 412.75 104.755 413.785 104.755ZM417.037 113.163L414.591 113.266C412.589 113.344 411.178 113.671 410.357 114.247C409.537 114.823 409.127 115.639 409.127 116.693C409.127 117.611 409.405 118.29 409.962 118.729C410.518 119.169 411.256 119.389 412.174 119.389C413.599 119.389 414.766 118.993 415.675 118.202C416.583 117.411 417.037 116.225 417.037 114.643V113.163ZM431.144 104.726C431.466 104.726 431.803 104.745 432.155 104.784C432.506 104.813 432.819 104.857 433.092 104.916L432.785 107.172C432.521 107.104 432.228 107.05 431.906 107.011C431.583 106.972 431.281 106.952 430.997 106.952C430.353 106.952 429.743 107.084 429.166 107.348C428.6 107.602 428.102 107.973 427.672 108.461C427.243 108.939 426.906 109.521 426.662 110.204C426.417 110.878 426.295 111.63 426.295 112.46V121.073H423.849V105.019H425.871L426.134 107.978H426.237C426.569 107.382 426.969 106.84 427.438 106.352C427.907 105.854 428.449 105.458 429.064 105.165C429.689 104.872 430.382 104.726 431.144 104.726ZM446.965 121.073H442.498V98.2803H446.965V121.073ZM457.777 104.359C459.974 104.359 461.658 104.838 462.83 105.795C464.002 106.752 464.588 108.207 464.588 110.16V121.073H461.468L460.604 118.847H460.487C460.018 119.433 459.539 119.911 459.051 120.282C458.563 120.653 458.001 120.927 457.366 121.103C456.732 121.278 455.96 121.366 455.052 121.366C454.085 121.366 453.216 121.181 452.445 120.81C451.683 120.438 451.082 119.872 450.643 119.11C450.203 118.339 449.984 117.362 449.984 116.181C449.984 114.442 450.594 113.163 451.815 112.343C453.035 111.513 454.866 111.054 457.308 110.966L460.15 110.878V110.16C460.15 109.301 459.925 108.671 459.476 108.271C459.027 107.87 458.402 107.67 457.601 107.67C456.81 107.67 456.033 107.782 455.272 108.007C454.51 108.231 453.748 108.515 452.987 108.856L451.507 105.839C452.376 105.38 453.348 105.019 454.422 104.755C455.506 104.491 456.624 104.359 457.777 104.359ZM460.15 113.485L458.421 113.544C456.976 113.583 455.97 113.842 455.404 114.32C454.847 114.799 454.569 115.429 454.569 116.21C454.569 116.894 454.769 117.382 455.169 117.675C455.57 117.958 456.092 118.1 456.737 118.1C457.694 118.1 458.499 117.816 459.154 117.25C459.818 116.684 460.15 115.878 460.15 114.833V113.485ZM477.904 104.389C479.652 104.389 481.058 104.867 482.123 105.824C483.187 106.771 483.72 108.295 483.72 110.395V121.073H479.252V111.508C479.252 110.336 479.037 109.452 478.607 108.856C478.187 108.261 477.523 107.963 476.615 107.963C475.248 107.963 474.315 108.427 473.817 109.354C473.319 110.282 473.07 111.62 473.07 113.368V121.073H468.602V104.696H472.015L472.616 106.791H472.865C473.217 106.225 473.651 105.766 474.169 105.414C474.696 105.062 475.277 104.804 475.912 104.638C476.556 104.472 477.221 104.389 477.904 104.389ZM492.905 121.366C491.079 121.366 489.589 120.653 488.437 119.228C487.294 117.792 486.723 115.688 486.723 112.914C486.723 110.111 487.304 107.992 488.466 106.557C489.628 105.111 491.147 104.389 493.022 104.389C493.803 104.389 494.492 104.496 495.087 104.711C495.683 104.926 496.196 105.214 496.625 105.575C497.065 105.937 497.436 106.342 497.739 106.791H497.885C497.827 106.479 497.753 106.02 497.665 105.414C497.587 104.799 497.548 104.169 497.548 103.524V98.2803H502.031V121.073H498.603L497.739 118.949H497.548C497.265 119.398 496.909 119.809 496.479 120.18C496.059 120.541 495.556 120.829 494.97 121.044C494.384 121.259 493.696 121.366 492.905 121.366ZM494.472 117.807C495.693 117.807 496.552 117.445 497.05 116.723C497.558 115.99 497.827 114.892 497.856 113.427V112.943C497.856 111.352 497.612 110.136 497.123 109.296C496.635 108.446 495.727 108.021 494.399 108.021C493.413 108.021 492.641 108.446 492.084 109.296C491.528 110.146 491.249 111.371 491.249 112.973C491.249 114.574 491.528 115.78 492.084 116.591C492.651 117.401 493.447 117.807 494.472 117.807ZM512.856 104.389C514.37 104.389 515.674 104.682 516.768 105.268C517.861 105.844 518.706 106.684 519.302 107.787C519.897 108.891 520.195 110.238 520.195 111.83V113.998H509.634C509.683 115.258 510.059 116.249 510.762 116.972C511.475 117.685 512.461 118.041 513.721 118.041C514.766 118.041 515.723 117.934 516.592 117.719C517.461 117.504 518.354 117.182 519.272 116.752V120.209C518.462 120.609 517.612 120.902 516.724 121.088C515.845 121.273 514.775 121.366 513.516 121.366C511.875 121.366 510.42 121.063 509.15 120.458C507.891 119.853 506.899 118.93 506.177 117.689C505.464 116.449 505.107 114.887 505.107 113.002C505.107 111.088 505.43 109.496 506.074 108.227C506.729 106.947 507.637 105.99 508.799 105.355C509.961 104.711 511.313 104.389 512.856 104.389ZM512.886 107.567C512.017 107.567 511.294 107.846 510.718 108.402C510.151 108.959 509.824 109.833 509.736 111.024H516.006C515.996 110.36 515.874 109.77 515.64 109.252C515.415 108.734 515.073 108.324 514.614 108.021C514.165 107.719 513.589 107.567 512.886 107.567ZM527.696 121.073H523.228V98.2803H527.696V121.073ZM536.266 104.696V121.073H531.798V104.696H536.266ZM534.039 98.2803C534.703 98.2803 535.275 98.4365 535.753 98.749C536.232 99.0518 536.471 99.623 536.471 100.463C536.471 101.293 536.232 101.869 535.753 102.191C535.275 102.504 534.703 102.66 534.039 102.66C533.365 102.66 532.789 102.504 532.311 102.191C531.842 101.869 531.608 101.293 531.608 100.463C531.608 99.623 531.842 99.0518 532.311 98.749C532.789 98.4365 533.365 98.2803 534.039 98.2803ZM539.05 128.28C538.542 128.28 538.014 128.241 537.468 128.163C536.921 128.095 536.467 128.012 536.105 127.914V124.398C536.467 124.496 536.808 124.564 537.131 124.604C537.443 124.652 537.8 124.677 538.2 124.677C538.805 124.677 539.318 124.506 539.738 124.164C540.158 123.832 540.368 123.173 540.368 122.187V104.696H544.836V122.846C544.836 123.842 544.645 124.75 544.264 125.57C543.884 126.4 543.268 127.06 542.419 127.548C541.569 128.036 540.446 128.28 539.05 128.28ZM540.178 100.463C540.178 99.623 540.412 99.0518 540.881 98.749C541.359 98.4365 541.935 98.2803 542.609 98.2803C543.273 98.2803 543.845 98.4365 544.323 98.749C544.802 99.0518 545.041 99.623 545.041 100.463C545.041 101.293 544.802 101.869 544.323 102.191C543.845 102.504 543.273 102.66 542.609 102.66C541.935 102.66 541.359 102.504 540.881 102.191C540.412 101.869 540.178 101.293 540.178 100.463ZM553.406 98.2803V108.476C553.406 109.091 553.381 109.706 553.332 110.321C553.284 110.937 553.23 111.552 553.171 112.167H553.23C553.533 111.737 553.84 111.312 554.153 110.893C554.475 110.473 554.817 110.067 555.178 109.677L559.763 104.696H564.802L558.298 111.801L565.198 121.073H560.041L555.325 114.438L553.406 115.976V121.073H548.938V98.2803H553.406ZM573.694 104.389C575.208 104.389 576.512 104.682 577.605 105.268C578.699 105.844 579.544 106.684 580.14 107.787C580.735 108.891 581.033 110.238 581.033 111.83V113.998H570.472C570.521 115.258 570.896 116.249 571.6 116.972C572.312 117.685 573.299 118.041 574.559 118.041C575.604 118.041 576.561 117.934 577.43 117.719C578.299 117.504 579.192 117.182 580.11 116.752V120.209C579.3 120.609 578.45 120.902 577.562 121.088C576.683 121.273 575.613 121.366 574.354 121.366C572.713 121.366 571.258 121.063 569.988 120.458C568.729 119.853 567.737 118.93 567.015 117.689C566.302 116.449 565.945 114.887 565.945 113.002C565.945 111.088 566.268 109.496 566.912 108.227C567.566 106.947 568.475 105.99 569.637 105.355C570.799 104.711 572.151 104.389 573.694 104.389ZM573.724 107.567C572.854 107.567 572.132 107.846 571.556 108.402C570.989 108.959 570.662 109.833 570.574 111.024H576.844C576.834 110.36 576.712 109.77 576.478 109.252C576.253 108.734 575.911 108.324 575.452 108.021C575.003 107.719 574.427 107.567 573.724 107.567ZM602.685 116.21C602.685 117.323 602.421 118.266 601.894 119.037C601.376 119.799 600.6 120.38 599.565 120.78C598.529 121.171 597.24 121.366 595.697 121.366C594.555 121.366 593.573 121.293 592.753 121.146C591.943 121 591.122 120.756 590.292 120.414V116.723C591.181 117.123 592.133 117.455 593.149 117.719C594.174 117.973 595.072 118.1 595.844 118.1C596.713 118.1 597.333 117.973 597.704 117.719C598.085 117.455 598.276 117.113 598.276 116.693C598.276 116.42 598.197 116.176 598.041 115.961C597.895 115.736 597.572 115.487 597.074 115.214C596.576 114.931 595.795 114.564 594.731 114.115C593.705 113.686 592.861 113.251 592.196 112.812C591.542 112.372 591.054 111.854 590.732 111.259C590.419 110.653 590.263 109.887 590.263 108.959C590.263 107.445 590.849 106.308 592.021 105.546C593.202 104.774 594.779 104.389 596.752 104.389C597.768 104.389 598.735 104.491 599.653 104.696C600.58 104.901 601.532 105.229 602.509 105.678L601.161 108.9C600.351 108.549 599.584 108.261 598.862 108.036C598.149 107.812 597.421 107.699 596.679 107.699C596.025 107.699 595.531 107.787 595.199 107.963C594.867 108.139 594.701 108.407 594.701 108.769C594.701 109.032 594.784 109.267 594.95 109.472C595.126 109.677 595.458 109.906 595.946 110.16C596.445 110.404 597.172 110.722 598.129 111.112C599.057 111.493 599.862 111.894 600.546 112.313C601.23 112.724 601.757 113.236 602.128 113.852C602.499 114.457 602.685 115.243 602.685 116.21ZM614.682 104.389C616.528 104.389 618.017 105.106 619.15 106.542C620.293 107.978 620.864 110.082 620.864 112.855C620.864 114.711 620.596 116.273 620.058 117.543C619.521 118.803 618.779 119.755 617.832 120.399C616.885 121.044 615.796 121.366 614.565 121.366C613.774 121.366 613.096 121.269 612.529 121.073C611.963 120.868 611.479 120.609 611.079 120.297C610.679 119.975 610.332 119.633 610.039 119.271H609.805C609.883 119.662 609.941 120.062 609.98 120.473C610.019 120.883 610.039 121.283 610.039 121.674V128.28H605.571V104.696H609.204L609.834 106.82H610.039C610.332 106.381 610.688 105.976 611.108 105.604C611.528 105.233 612.031 104.94 612.617 104.726C613.213 104.501 613.901 104.389 614.682 104.389ZM613.247 107.963C612.466 107.963 611.846 108.124 611.387 108.446C610.928 108.769 610.591 109.252 610.376 109.896C610.171 110.541 610.058 111.356 610.039 112.343V112.826C610.039 113.881 610.137 114.774 610.332 115.507C610.537 116.239 610.874 116.796 611.343 117.177C611.821 117.558 612.475 117.748 613.305 117.748C613.989 117.748 614.551 117.558 614.99 117.177C615.43 116.796 615.757 116.239 615.971 115.507C616.196 114.765 616.308 113.861 616.308 112.797C616.308 111.195 616.059 109.989 615.561 109.179C615.063 108.368 614.292 107.963 613.247 107.963ZM630.708 104.389C632.222 104.389 633.526 104.682 634.62 105.268C635.713 105.844 636.558 106.684 637.154 107.787C637.749 108.891 638.047 110.238 638.047 111.83V113.998H627.486C627.535 115.258 627.911 116.249 628.614 116.972C629.327 117.685 630.313 118.041 631.573 118.041C632.618 118.041 633.575 117.934 634.444 117.719C635.313 117.504 636.206 117.182 637.124 116.752V120.209C636.314 120.609 635.464 120.902 634.576 121.088C633.697 121.273 632.627 121.366 631.368 121.366C629.727 121.366 628.272 121.063 627.002 120.458C625.743 119.853 624.751 118.93 624.029 117.689C623.316 116.449 622.959 114.887 622.959 113.002C622.959 111.088 623.282 109.496 623.926 108.227C624.58 106.947 625.489 105.99 626.651 105.355C627.813 104.711 629.165 104.389 630.708 104.389ZM630.738 107.567C629.869 107.567 629.146 107.846 628.57 108.402C628.003 108.959 627.676 109.833 627.588 111.024H633.858C633.848 110.36 633.726 109.77 633.492 109.252C633.267 108.734 632.925 108.324 632.466 108.021C632.017 107.719 631.441 107.567 630.738 107.567ZM647.73 121.366C646.109 121.366 644.728 121.073 643.585 120.487C642.442 119.892 641.573 118.974 640.978 117.733C640.382 116.493 640.084 114.906 640.084 112.973C640.084 110.971 640.421 109.34 641.095 108.08C641.778 106.811 642.721 105.878 643.922 105.282C645.133 104.687 646.534 104.389 648.126 104.389C649.259 104.389 650.235 104.501 651.056 104.726C651.886 104.94 652.608 105.199 653.224 105.502L651.905 108.959C651.202 108.676 650.548 108.446 649.942 108.271C649.337 108.085 648.731 107.992 648.126 107.992C647.345 107.992 646.695 108.178 646.178 108.549C645.66 108.91 645.274 109.457 645.021 110.189C644.767 110.922 644.64 111.84 644.64 112.943C644.64 114.027 644.776 114.926 645.05 115.639C645.323 116.352 645.719 116.884 646.236 117.235C646.754 117.577 647.384 117.748 648.126 117.748C649.054 117.748 649.879 117.626 650.602 117.382C651.324 117.128 652.027 116.776 652.711 116.327V120.15C652.027 120.58 651.31 120.888 650.558 121.073C649.815 121.269 648.873 121.366 647.73 121.366ZM660.387 104.696V121.073H655.92V104.696H660.387ZM658.161 98.2803C658.825 98.2803 659.396 98.4365 659.875 98.749C660.353 99.0518 660.592 99.623 660.592 100.463C660.592 101.293 660.353 101.869 659.875 102.191C659.396 102.504 658.825 102.66 658.161 102.66C657.487 102.66 656.911 102.504 656.432 102.191C655.964 101.869 655.729 101.293 655.729 100.463C655.729 99.623 655.964 99.0518 656.432 98.749C656.911 98.4365 657.487 98.2803 658.161 98.2803ZM671.198 104.359C673.396 104.359 675.08 104.838 676.252 105.795C677.424 106.752 678.01 108.207 678.01 110.16V121.073H674.89L674.026 118.847H673.908C673.44 119.433 672.961 119.911 672.473 120.282C671.985 120.653 671.423 120.927 670.788 121.103C670.154 121.278 669.382 121.366 668.474 121.366C667.507 121.366 666.638 121.181 665.866 120.81C665.105 120.438 664.504 119.872 664.065 119.11C663.625 118.339 663.405 117.362 663.405 116.181C663.405 114.442 664.016 113.163 665.237 112.343C666.457 111.513 668.288 111.054 670.73 110.966L673.571 110.878V110.16C673.571 109.301 673.347 108.671 672.898 108.271C672.448 107.87 671.823 107.67 671.023 107.67C670.232 107.67 669.455 107.782 668.694 108.007C667.932 108.231 667.17 108.515 666.408 108.856L664.929 105.839C665.798 105.38 666.77 105.019 667.844 104.755C668.928 104.491 670.046 104.359 671.198 104.359ZM673.571 113.485L671.843 113.544C670.398 113.583 669.392 113.842 668.825 114.32C668.269 114.799 667.99 115.429 667.99 116.21C667.99 116.894 668.191 117.382 668.591 117.675C668.991 117.958 669.514 118.1 670.158 118.1C671.115 118.1 671.921 117.816 672.575 117.25C673.239 116.684 673.571 115.878 673.571 114.833V113.485ZM686.492 121.073H682.024V98.2803H686.492V121.073ZM695.062 104.696V121.073H690.594V104.696H695.062ZM692.835 98.2803C693.499 98.2803 694.071 98.4365 694.549 98.749C695.028 99.0518 695.267 99.623 695.267 100.463C695.267 101.293 695.028 101.869 694.549 102.191C694.071 102.504 693.499 102.66 692.835 102.66C692.161 102.66 691.585 102.504 691.107 102.191C690.638 101.869 690.404 101.293 690.404 100.463C690.404 99.623 690.638 99.0518 691.107 98.749C691.585 98.4365 692.161 98.2803 692.835 98.2803ZM710.59 116.21C710.59 117.323 710.326 118.266 709.799 119.037C709.281 119.799 708.505 120.38 707.47 120.78C706.435 121.171 705.146 121.366 703.603 121.366C702.46 121.366 701.479 121.293 700.658 121.146C699.848 121 699.027 120.756 698.197 120.414V116.723C699.086 117.123 700.038 117.455 701.054 117.719C702.079 117.973 702.978 118.1 703.749 118.1C704.618 118.1 705.238 117.973 705.609 117.719C705.99 117.455 706.181 117.113 706.181 116.693C706.181 116.42 706.103 116.176 705.946 115.961C705.8 115.736 705.478 115.487 704.979 115.214C704.481 114.931 703.7 114.564 702.636 114.115C701.61 113.686 700.766 113.251 700.102 112.812C699.447 112.372 698.959 111.854 698.637 111.259C698.324 110.653 698.168 109.887 698.168 108.959C698.168 107.445 698.754 106.308 699.926 105.546C701.107 104.774 702.685 104.389 704.657 104.389C705.673 104.389 706.64 104.491 707.558 104.696C708.485 104.901 709.438 105.229 710.414 105.678L709.066 108.9C708.256 108.549 707.489 108.261 706.767 108.036C706.054 107.812 705.326 107.699 704.584 107.699C703.93 107.699 703.437 107.787 703.104 107.963C702.772 108.139 702.606 108.407 702.606 108.769C702.606 109.032 702.689 109.267 702.855 109.472C703.031 109.677 703.363 109.906 703.852 110.16C704.35 110.404 705.077 110.722 706.034 111.112C706.962 111.493 707.768 111.894 708.451 112.313C709.135 112.724 709.662 113.236 710.033 113.852C710.404 114.457 710.59 115.243 710.59 116.21ZM720.376 117.807C720.864 117.807 721.338 117.758 721.797 117.66C722.265 117.562 722.729 117.44 723.188 117.294V120.619C722.71 120.834 722.114 121.01 721.401 121.146C720.698 121.293 719.926 121.366 719.087 121.366C718.11 121.366 717.231 121.21 716.45 120.897C715.678 120.575 715.068 120.023 714.619 119.242C714.179 118.451 713.96 117.353 713.96 115.946V108.051H711.821V106.161L714.282 104.667L715.571 101.21H718.427V104.696H723.012V108.051H718.427V115.946C718.427 116.571 718.603 117.04 718.955 117.353C719.316 117.655 719.79 117.807 720.376 117.807ZM725.283 118.979C725.283 118.061 725.532 117.416 726.03 117.045C726.538 116.674 727.149 116.488 727.862 116.488C728.555 116.488 729.151 116.674 729.649 117.045C730.156 117.416 730.41 118.061 730.41 118.979C730.41 119.857 730.156 120.492 729.649 120.883C729.151 121.273 728.555 121.469 727.862 121.469C727.149 121.469 726.538 121.273 726.03 120.883C725.532 120.492 725.283 119.857 725.283 118.979Z" fill="white"/>
<rect x="120" y="295.438" width="160.079" height="43.5622" rx="2" fill="white"/>
<path d="M149.631 317.566C149.631 318.281 149.542 318.933 149.364 319.521C149.186 320.105 148.915 320.609 148.552 321.032C148.192 321.455 147.735 321.781 147.18 322.009C146.626 322.234 145.97 322.346 145.213 322.346C144.455 322.346 143.799 322.234 143.245 322.009C142.691 321.781 142.231 321.455 141.867 321.032C141.508 320.609 141.239 320.103 141.061 319.515C140.884 318.926 140.795 318.273 140.795 317.553C140.795 316.593 140.951 315.757 141.264 315.046C141.582 314.331 142.068 313.776 142.724 313.383C143.38 312.989 144.214 312.792 145.225 312.792C146.233 312.792 147.06 312.989 147.707 313.383C148.359 313.776 148.841 314.331 149.155 315.046C149.472 315.761 149.631 316.601 149.631 317.566ZM142.858 317.566C142.858 318.213 142.938 318.772 143.099 319.242C143.264 319.707 143.52 320.067 143.867 320.321C144.214 320.57 144.663 320.695 145.213 320.695C145.771 320.695 146.224 320.57 146.571 320.321C146.918 320.067 147.17 319.707 147.326 319.242C147.487 318.772 147.568 318.213 147.568 317.566C147.568 316.593 147.386 315.827 147.022 315.268C146.658 314.709 146.059 314.43 145.225 314.43C144.671 314.43 144.218 314.557 143.867 314.811C143.52 315.061 143.264 315.42 143.099 315.89C142.938 316.356 142.858 316.914 142.858 317.566ZM155.324 316.576H153.649V322.219H151.713V316.576H150.646V315.643L151.713 315.122V314.602C151.713 313.996 151.814 313.527 152.017 313.192C152.225 312.854 152.515 312.617 152.887 312.481C153.264 312.342 153.708 312.272 154.22 312.272C154.597 312.272 154.939 312.304 155.248 312.367C155.557 312.426 155.809 312.494 156.004 312.57L155.509 313.992C155.36 313.946 155.2 313.903 155.026 313.865C154.853 313.827 154.654 313.808 154.429 313.808C154.159 313.808 153.96 313.891 153.833 314.056C153.71 314.216 153.649 314.424 153.649 314.678V315.122H155.324V316.576ZM160.358 316.576H158.682V322.219H156.746V316.576H155.68V315.643L156.746 315.122V314.602C156.746 313.996 156.848 313.527 157.051 313.192C157.258 312.854 157.548 312.617 157.921 312.481C158.297 312.342 158.742 312.272 159.254 312.272C159.63 312.272 159.973 312.304 160.282 312.367C160.591 312.426 160.843 312.494 161.037 312.57L160.542 313.992C160.394 313.946 160.233 313.903 160.06 313.865C159.886 313.827 159.687 313.808 159.463 313.808C159.192 313.808 158.993 313.891 158.866 314.056C158.744 314.216 158.682 314.424 158.682 314.678V315.122H160.358V316.576ZM164.395 314.989C165.051 314.989 165.616 315.116 166.09 315.37C166.564 315.619 166.93 315.983 167.188 316.461C167.446 316.94 167.575 317.524 167.575 318.213V319.153H162.999C163.02 319.699 163.183 320.128 163.488 320.441C163.796 320.75 164.224 320.905 164.77 320.905C165.223 320.905 165.637 320.858 166.014 320.765C166.391 320.672 166.778 320.532 167.176 320.346V321.844C166.824 322.018 166.456 322.145 166.071 322.225C165.69 322.306 165.227 322.346 164.681 322.346C163.97 322.346 163.339 322.215 162.789 321.952C162.243 321.69 161.814 321.29 161.501 320.752C161.192 320.215 161.037 319.538 161.037 318.721C161.037 317.892 161.177 317.202 161.456 316.652C161.74 316.097 162.133 315.683 162.637 315.408C163.141 315.128 163.727 314.989 164.395 314.989ZM164.408 316.366C164.031 316.366 163.718 316.487 163.469 316.728C163.223 316.969 163.081 317.348 163.043 317.864H165.76C165.756 317.576 165.703 317.32 165.601 317.096C165.504 316.872 165.356 316.694 165.157 316.563C164.962 316.432 164.713 316.366 164.408 316.366ZM173.111 314.989C173.208 314.989 173.32 314.995 173.447 315.008C173.578 315.016 173.684 315.029 173.764 315.046L173.618 316.861C173.555 316.84 173.464 316.825 173.345 316.817C173.231 316.804 173.132 316.798 173.047 316.798C172.797 316.798 172.554 316.83 172.317 316.893C172.084 316.957 171.875 317.06 171.689 317.204C171.503 317.344 171.354 317.53 171.244 317.763C171.139 317.991 171.086 318.273 171.086 318.607V322.219H169.15V315.122H170.616L170.902 316.315H170.997C171.136 316.074 171.31 315.854 171.517 315.655C171.729 315.452 171.968 315.291 172.235 315.173C172.505 315.05 172.797 314.989 173.111 314.989ZM178.043 320.803C178.254 320.803 178.46 320.782 178.658 320.74C178.862 320.697 179.063 320.645 179.261 320.581V322.022C179.054 322.115 178.796 322.191 178.487 322.25C178.182 322.314 177.848 322.346 177.484 322.346C177.061 322.346 176.68 322.278 176.342 322.143C176.007 322.003 175.743 321.764 175.548 321.425C175.358 321.083 175.262 320.606 175.262 319.997V316.576H174.336V315.757L175.402 315.109L175.961 313.611H177.198V315.122H179.185V316.576H177.198V319.997C177.198 320.268 177.275 320.471 177.427 320.606C177.584 320.738 177.789 320.803 178.043 320.803ZM183.629 314.989C184.285 314.989 184.85 315.116 185.323 315.37C185.797 315.619 186.163 315.983 186.422 316.461C186.68 316.94 186.809 317.524 186.809 318.213V319.153H182.232C182.253 319.699 182.416 320.128 182.721 320.441C183.03 320.75 183.457 320.905 184.003 320.905C184.456 320.905 184.871 320.858 185.247 320.765C185.624 320.672 186.011 320.532 186.409 320.346V321.844C186.058 322.018 185.69 322.145 185.304 322.225C184.924 322.306 184.46 322.346 183.914 322.346C183.203 322.346 182.573 322.215 182.023 321.952C181.477 321.69 181.047 321.29 180.734 320.752C180.425 320.215 180.271 319.538 180.271 318.721C180.271 317.892 180.41 317.202 180.69 316.652C180.973 316.097 181.367 315.683 181.87 315.408C182.374 315.128 182.96 314.989 183.629 314.989ZM183.641 316.366C183.265 316.366 182.952 316.487 182.702 316.728C182.456 316.969 182.315 317.348 182.277 317.864H184.993C184.989 317.576 184.936 317.32 184.835 317.096C184.737 316.872 184.589 316.694 184.39 316.563C184.196 316.432 183.946 316.366 183.641 316.366ZM194.667 314.976C195.619 314.976 196.349 315.183 196.857 315.598C197.365 316.013 197.619 316.643 197.619 317.49V322.219H196.267L195.892 321.254H195.842C195.638 321.508 195.431 321.715 195.219 321.876C195.008 322.037 194.765 322.155 194.49 322.231C194.214 322.308 193.88 322.346 193.487 322.346C193.068 322.346 192.691 322.265 192.357 322.104C192.027 321.944 191.766 321.698 191.576 321.368C191.386 321.034 191.29 320.611 191.29 320.099C191.29 319.345 191.555 318.791 192.084 318.436C192.613 318.076 193.406 317.877 194.464 317.839L195.696 317.801V317.49C195.696 317.117 195.598 316.844 195.404 316.671C195.209 316.497 194.938 316.411 194.591 316.411C194.248 316.411 193.912 316.459 193.582 316.557C193.252 316.654 192.922 316.777 192.592 316.925L191.95 315.617C192.327 315.418 192.748 315.262 193.214 315.147C193.683 315.033 194.168 314.976 194.667 314.976ZM195.696 318.931L194.947 318.956C194.32 318.973 193.884 319.085 193.639 319.292C193.398 319.5 193.277 319.773 193.277 320.111C193.277 320.408 193.364 320.619 193.537 320.746C193.711 320.869 193.937 320.93 194.217 320.93C194.631 320.93 194.98 320.807 195.264 320.562C195.552 320.317 195.696 319.967 195.696 319.515V318.931ZM202.526 314.976C203.478 314.976 204.208 315.183 204.716 315.598C205.223 316.013 205.477 316.643 205.477 317.49V322.219H204.125L203.751 321.254H203.7C203.497 321.508 203.289 321.715 203.078 321.876C202.866 322.037 202.623 322.155 202.348 322.231C202.073 322.308 201.739 322.346 201.345 322.346C200.926 322.346 200.549 322.265 200.215 322.104C199.885 321.944 199.625 321.698 199.434 321.368C199.244 321.034 199.149 320.611 199.149 320.099C199.149 319.345 199.413 318.791 199.942 318.436C200.471 318.076 201.265 317.877 202.323 317.839L203.554 317.801V317.49C203.554 317.117 203.457 316.844 203.262 316.671C203.067 316.497 202.796 316.411 202.449 316.411C202.107 316.411 201.77 316.459 201.44 316.557C201.11 316.654 200.78 316.777 200.45 316.925L199.809 315.617C200.185 315.418 200.607 315.262 201.072 315.147C201.542 315.033 202.026 314.976 202.526 314.976ZM203.554 318.931L202.805 318.956C202.179 318.973 201.743 319.085 201.497 319.292C201.256 319.5 201.136 319.773 201.136 320.111C201.136 320.408 201.222 320.619 201.396 320.746C201.569 320.869 201.796 320.93 202.075 320.93C202.49 320.93 202.839 320.807 203.122 320.562C203.41 320.317 203.554 319.967 203.554 319.515V318.931ZM211.508 314.989C212.265 314.989 212.874 315.196 213.336 315.611C213.797 316.021 214.028 316.681 214.028 317.591V322.219H212.092V318.074C212.092 317.566 211.998 317.183 211.812 316.925C211.63 316.667 211.343 316.538 210.949 316.538C210.357 316.538 209.952 316.739 209.737 317.141C209.521 317.543 209.413 318.122 209.413 318.88V322.219H207.477V315.122H208.956L209.216 316.03H209.324C209.476 315.784 209.665 315.585 209.889 315.433C210.117 315.281 210.369 315.169 210.644 315.097C210.924 315.025 211.211 314.989 211.508 314.989ZM217.709 322.219L215.005 315.122H217.03L218.401 319.166C218.477 319.403 218.537 319.652 218.579 319.915C218.625 320.177 218.657 320.412 218.674 320.619H218.725C218.738 320.395 218.767 320.156 218.814 319.902C218.865 319.648 218.93 319.403 219.011 319.166L220.375 315.122H222.4L219.696 322.219H217.709ZM227.383 314.989C227.48 314.989 227.593 314.995 227.719 315.008C227.851 315.016 227.956 315.029 228.037 315.046L227.891 316.861C227.827 316.84 227.736 316.825 227.618 316.817C227.504 316.804 227.404 316.798 227.32 316.798C227.07 316.798 226.827 316.83 226.59 316.893C226.357 316.957 226.147 317.06 225.961 317.204C225.775 317.344 225.627 317.53 225.517 317.763C225.411 317.991 225.358 318.273 225.358 318.607V322.219H223.422V315.122H224.888L225.174 316.315H225.269C225.409 316.074 225.582 315.854 225.79 315.655C226.001 315.452 226.24 315.291 226.507 315.173C226.778 315.05 227.07 314.989 227.383 314.989ZM232.233 314.976C233.185 314.976 233.915 315.183 234.423 315.598C234.93 316.013 235.184 316.643 235.184 317.49V322.219H233.832L233.458 321.254H233.407C233.204 321.508 232.997 321.715 232.785 321.876C232.573 322.037 232.33 322.155 232.055 322.231C231.78 322.308 231.446 322.346 231.052 322.346C230.633 322.346 230.256 322.265 229.922 322.104C229.592 321.944 229.332 321.698 229.141 321.368C228.951 321.034 228.856 320.611 228.856 320.099C228.856 319.345 229.12 318.791 229.649 318.436C230.178 318.076 230.972 317.877 232.03 317.839L233.261 317.801V317.49C233.261 317.117 233.164 316.844 232.969 316.671C232.774 316.497 232.504 316.411 232.157 316.411C231.814 316.411 231.477 316.459 231.147 316.557C230.817 316.654 230.487 316.777 230.157 316.925L229.516 315.617C229.893 315.418 230.314 315.262 230.779 315.147C231.249 315.033 231.733 314.976 232.233 314.976ZM233.261 318.931L232.512 318.956C231.886 318.973 231.45 319.085 231.204 319.292C230.963 319.5 230.843 319.773 230.843 320.111C230.843 320.408 230.929 320.619 231.103 320.746C231.276 320.869 231.503 320.93 231.782 320.93C232.197 320.93 232.546 320.807 232.829 320.562C233.117 320.317 233.261 319.967 233.261 319.515V318.931ZM239.26 325.342C238.269 325.342 237.512 325.168 236.987 324.821C236.467 324.479 236.206 323.996 236.206 323.374C236.206 322.947 236.34 322.589 236.606 322.301C236.873 322.014 237.264 321.808 237.781 321.686C237.582 321.601 237.408 321.463 237.26 321.273C237.112 321.078 237.038 320.873 237.038 320.657C237.038 320.386 237.116 320.162 237.273 319.984C237.429 319.802 237.656 319.625 237.952 319.451C237.58 319.29 237.283 319.032 237.063 318.677C236.847 318.321 236.74 317.902 236.74 317.42C236.74 316.904 236.852 316.466 237.076 316.106C237.304 315.742 237.635 315.465 238.066 315.274C238.502 315.084 239.031 314.989 239.653 314.989C239.784 314.989 239.937 314.997 240.11 315.014C240.284 315.031 240.442 315.05 240.586 315.071C240.734 315.092 240.834 315.109 240.885 315.122H243.36V316.106L242.249 316.392C242.351 316.548 242.427 316.715 242.478 316.893C242.529 317.071 242.554 317.259 242.554 317.458C242.554 318.22 242.287 318.814 241.754 319.242C241.225 319.665 240.489 319.876 239.545 319.876C239.321 319.864 239.109 319.847 238.91 319.826C238.813 319.902 238.739 319.982 238.688 320.067C238.637 320.152 238.612 320.24 238.612 320.333C238.612 320.427 238.65 320.505 238.726 320.568C238.807 320.628 238.925 320.674 239.082 320.708C239.243 320.738 239.441 320.752 239.678 320.752H240.885C241.663 320.752 242.256 320.92 242.662 321.254C243.072 321.588 243.278 322.079 243.278 322.727C243.278 323.556 242.931 324.199 242.237 324.656C241.547 325.113 240.554 325.342 239.26 325.342ZM239.342 324.079C239.803 324.079 240.199 324.034 240.529 323.945C240.863 323.861 241.119 323.738 241.297 323.577C241.475 323.421 241.564 323.232 241.564 323.012C241.564 322.834 241.511 322.693 241.405 322.587C241.303 322.485 241.147 322.413 240.935 322.371C240.728 322.329 240.461 322.308 240.136 322.308H239.133C238.896 322.308 238.682 322.346 238.491 322.422C238.305 322.498 238.157 322.604 238.047 322.739C237.937 322.879 237.882 323.04 237.882 323.222C237.882 323.488 238.009 323.698 238.263 323.85C238.521 324.002 238.881 324.079 239.342 324.079ZM239.653 318.696C240.017 318.696 240.284 318.584 240.453 318.359C240.622 318.135 240.707 317.83 240.707 317.445C240.707 317.018 240.618 316.698 240.44 316.487C240.267 316.271 240.004 316.163 239.653 316.163C239.298 316.163 239.031 316.271 238.853 316.487C238.676 316.698 238.587 317.018 238.587 317.445C238.587 317.83 238.673 318.135 238.847 318.359C239.025 318.584 239.293 318.696 239.653 318.696ZM247.461 314.989C248.117 314.989 248.682 315.116 249.156 315.37C249.629 315.619 249.996 315.983 250.254 316.461C250.512 316.94 250.641 317.524 250.641 318.213V319.153H246.064C246.085 319.699 246.248 320.128 246.553 320.441C246.862 320.75 247.289 320.905 247.835 320.905C248.288 320.905 248.703 320.858 249.079 320.765C249.456 320.672 249.843 320.532 250.241 320.346V321.844C249.89 322.018 249.522 322.145 249.136 322.225C248.756 322.306 248.292 322.346 247.746 322.346C247.035 322.346 246.405 322.215 245.855 321.952C245.309 321.69 244.879 321.29 244.566 320.752C244.257 320.215 244.103 319.538 244.103 318.721C244.103 317.892 244.242 317.202 244.522 316.652C244.805 316.097 245.199 315.683 245.702 315.408C246.206 315.128 246.792 314.989 247.461 314.989ZM247.473 316.366C247.097 316.366 246.784 316.487 246.534 316.728C246.289 316.969 246.147 317.348 246.109 317.864H248.825C248.821 317.576 248.768 317.32 248.667 317.096C248.569 316.872 248.421 316.694 248.222 316.563C248.028 316.432 247.778 316.366 247.473 316.366ZM256.246 314.989C257.003 314.989 257.613 315.196 258.074 315.611C258.535 316.021 258.766 316.681 258.766 317.591V322.219H256.83V318.074C256.83 317.566 256.737 317.183 256.551 316.925C256.369 316.667 256.081 316.538 255.687 316.538C255.095 316.538 254.691 316.739 254.475 317.141C254.259 317.543 254.151 318.122 254.151 318.88V322.219H252.215V315.122H253.694L253.954 316.03H254.062C254.215 315.784 254.403 315.585 254.627 315.433C254.856 315.281 255.108 315.169 255.383 315.097C255.662 315.025 255.95 314.989 256.246 314.989Z" fill="#217946"/>
</svg>
