<svg width="122" height="122" viewBox="0 0 122 122" fill="none" xmlns="http://www.w3.org/2000/svg">
<circle cx="60.8851" cy="60.9105" r="59.2592" stroke="#1C1C1C" stroke-opacity="0.2" stroke-width="2"/>
<path d="M88.532 59.2919C88.532 43.8477 76.012 31.3276 60.5677 31.3276C45.1235 31.3276 32.6035 43.8477 32.6035 59.2919C32.6035 74.7361 45.1235 87.2561 60.5677 87.2561C63.9974 87.2561 67.2828 86.6387 70.319 85.509M87.4246 67.1095C87.0268 68.4785 86.5271 69.8041 85.9344 71.0777M81.1968 78.1718C80.1685 79.2947 79.0498 80.3334 77.8521 81.2763" stroke="#217946" stroke-width="1.77809" stroke-linecap="round"/>
<path d="M60.5679 47.076L63.1487 55.019L63.3371 55.5989H63.9469H72.2986L65.5419 60.5079L65.0486 60.8663L65.2371 61.4462L67.8179 69.3892L61.0612 64.4802L60.5679 64.1217L60.0746 64.4802L53.3179 69.3892L55.8987 61.4462L56.0872 60.8663L55.5939 60.5079L48.8372 55.5989H57.1889H57.7987L57.9871 55.019L60.5679 47.076Z" stroke="#217946" stroke-width="1.67854"/>
</svg>
