<svg width="121" height="122" viewBox="0 0 121 122" fill="none" xmlns="http://www.w3.org/2000/svg">
<circle cx="60.5961" cy="60.9105" r="59.2592" stroke="#1C1C1C" stroke-opacity="0.1" stroke-width="2"/>
<g clip-path="url(#clip0_1103_19069)">
<path d="M77.264 70.7408C77.134 70.7408 77.0065 70.7046 76.8959 70.6363C76.7854 70.5679 76.696 70.4701 76.6379 70.3539C76.5797 70.2376 76.5551 70.1074 76.5668 69.978C76.5785 69.8485 76.626 69.7248 76.704 69.6208C77.1142 69.0678 77.518 68.4966 77.9037 67.9248C78.0089 67.7742 78.169 67.6711 78.3496 67.6375C78.5301 67.604 78.7166 67.6427 78.8689 67.7454C79.0211 67.848 79.1269 68.0064 79.1635 68.1863C79.2 68.3663 79.1644 68.5534 79.0643 68.7073C78.6674 69.2967 78.2509 69.8847 77.8274 70.4573C77.7623 70.5454 77.6773 70.6169 77.5794 70.6661C77.4816 70.7154 77.3735 70.7409 77.264 70.7408Z" fill="#217946"/>
<path d="M60.1361 87.3586C59.992 87.3585 59.8514 87.314 59.7336 87.2312C55.4333 84.0768 51.4165 80.5532 47.7288 76.7005C39.7048 68.2685 35.6365 60.4244 35.6365 53.3881C35.6365 45.101 42.2087 38.3594 50.2872 38.3594C53.9475 38.3566 57.4705 39.752 60.1361 42.2604C62.8016 39.752 66.3247 38.3566 69.9849 38.3594C78.0635 38.3594 84.6357 45.101 84.6357 53.3881C84.5337 57.2075 83.5235 60.9476 81.6887 64.2989C81.6479 64.3825 81.5907 64.4572 81.5207 64.5185C81.4506 64.5798 81.369 64.6265 81.2807 64.6559C81.1924 64.6853 81.099 64.6968 81.0062 64.6897C80.9134 64.6826 80.8229 64.657 80.7401 64.6145C80.6573 64.572 80.5837 64.5134 80.5238 64.4421C80.4639 64.3708 80.4189 64.2883 80.3912 64.1994C80.3636 64.1105 80.354 64.017 80.363 63.9243C80.3719 63.8317 80.3993 63.7417 80.4434 63.6598C82.1755 60.5057 83.1326 56.985 83.2357 53.3881C83.2357 45.8731 77.2914 39.7594 69.9849 39.7594C68.2401 39.7595 66.5132 40.1109 64.9071 40.7927C63.3011 41.4744 61.8487 42.4726 60.6366 43.7276C60.5022 43.8572 60.3228 43.9296 60.1361 43.9296C59.9494 43.9296 59.77 43.8572 59.6356 43.7276C58.4235 42.4726 56.9711 41.4744 55.365 40.7927C53.7589 40.1109 52.032 39.7595 50.2872 39.7594C42.9808 39.7594 37.0365 45.8731 37.0365 53.3881C37.0365 68.1859 57.0288 83.503 60.1361 85.7976C63.2068 83.5121 66.1311 81.036 68.8915 78.384C68.9573 78.3177 69.0356 78.2652 69.1219 78.2296C69.2082 78.1941 69.3008 78.1761 69.3942 78.1768C69.4875 78.1776 69.5798 78.197 69.6656 78.2339C69.7513 78.2709 69.8288 78.3246 69.8935 78.3919C69.9582 78.4593 70.0087 78.5389 70.0422 78.626C70.0756 78.7132 70.0913 78.8062 70.0883 78.8995C70.0853 78.9928 70.0636 79.0846 70.0246 79.1694C69.9855 79.2542 69.9299 79.3304 69.861 79.3934C66.9342 82.2143 63.8196 84.8336 60.5386 87.2333C60.4205 87.3154 60.2799 87.3592 60.1361 87.3586Z" fill="#217946"/>
<path d="M72.806 76.0887C72.6693 76.0888 72.5355 76.0488 72.4213 75.9737C72.307 75.8986 72.2173 75.7918 72.1631 75.6662C72.1089 75.5407 72.0926 75.4021 72.1163 75.2674C72.14 75.1328 72.2026 75.008 72.2964 74.9086C72.7514 74.4256 73.1996 73.929 73.6411 73.419C73.763 73.2784 73.9358 73.1921 74.1215 73.179C74.3071 73.1659 74.4903 73.227 74.6309 73.349C74.7714 73.471 74.8577 73.6438 74.8708 73.8294C74.884 74.015 74.8228 74.1982 74.7008 74.3388C74.2459 74.8638 73.7839 75.375 73.3149 75.8724C73.2492 75.9412 73.1702 75.9958 73.0827 76.033C72.9952 76.0702 72.901 76.0891 72.806 76.0887Z" fill="#217946"/>
<path d="M61.1216 62.94C58.1368 57.9644 62.1166 52.9896 70.5746 53.4871C71.0767 61.9451 66.0973 65.9249 61.1216 62.94Z" stroke="#217946" stroke-width="1.25694" stroke-linecap="round" stroke-linejoin="round"/>
<path d="M56.4398 63.9695C58.5718 60.4161 55.7291 56.8627 49.6874 57.2171C49.3321 63.2588 52.8864 66.1015 56.4398 63.9695Z" stroke="#217946" stroke-width="1.25694" stroke-linecap="round" stroke-linejoin="round"/>
<path d="M53.4038 60.9331L59.3885 66.9178" stroke="#217946" stroke-width="1.25694" stroke-linecap="round" stroke-linejoin="round"/>
<path d="M66.8687 57.1926L61.1413 62.9201C60.5854 63.4759 60.1444 64.1357 59.8436 64.8619C59.5428 65.588 59.3879 66.3664 59.3879 67.1524V69.91" stroke="#217946" stroke-width="1.25694" stroke-linecap="round" stroke-linejoin="round"/>
</g>
<defs>
<clipPath id="clip0_1103_19069">
<rect width="48.999" height="48.999" fill="white" transform="translate(35.6367 38.3594)"/>
</clipPath>
</defs>
</svg>
