<svg width="50" height="50" viewBox="0 0 50 50" fill="none" xmlns="http://www.w3.org/2000/svg">
<g clip-path="url(#clip0_1103_19356)">
<path d="M41.7625 32.7408C41.6325 32.7408 41.5051 32.7046 41.3945 32.6363C41.2839 32.5679 41.1945 32.4701 41.1364 32.3539C41.0783 32.2376 41.0537 32.1074 41.0653 31.978C41.077 31.8485 41.1245 31.7248 41.2025 31.6208C41.6127 31.0678 42.0166 30.4966 42.4023 29.9248C42.5075 29.7742 42.6676 29.6711 42.8481 29.6375C43.0287 29.604 43.2151 29.6427 43.3674 29.7454C43.5196 29.848 43.6255 30.0064 43.662 30.1863C43.6986 30.3663 43.663 30.5534 43.5629 30.7073C43.166 31.2967 42.7495 31.8847 42.326 32.4573C42.2608 32.5454 42.1758 32.6169 42.078 32.6661C41.9801 32.7154 41.872 32.7409 41.7625 32.7408Z" fill="#217946"/>
<path d="M24.6324 49.3586C24.4883 49.3585 24.3478 49.314 24.2299 49.2312C19.9297 46.0768 15.9129 42.5532 12.2251 38.7005C4.20114 30.2685 0.132812 22.4244 0.132812 15.3881C0.132812 7.10097 6.705 0.359379 14.7836 0.359379C18.4438 0.356581 21.9668 1.75203 24.6324 4.26041C27.298 1.75203 30.821 0.356581 34.4812 0.359379C42.5598 0.359379 49.132 7.10097 49.132 15.3881C49.0301 19.2075 48.0199 22.9476 46.1851 26.2989C46.1442 26.3825 46.0871 26.4572 46.017 26.5185C45.947 26.5798 45.8654 26.6265 45.777 26.6559C45.6887 26.6853 45.5954 26.6968 45.5026 26.6897C45.4097 26.6826 45.3193 26.657 45.2364 26.6145C45.1536 26.572 45.0801 26.5134 45.0202 26.4421C44.9603 26.3708 44.9152 26.2883 44.8876 26.1994C44.86 26.1105 44.8503 26.017 44.8593 25.9243C44.8683 25.8317 44.8956 25.7417 44.9398 25.6598C46.6718 22.5057 47.6289 18.985 47.732 15.3881C47.732 7.87305 41.7877 1.75936 34.4812 1.75936C32.7365 1.7595 31.0096 2.11093 29.4035 2.79269C27.7974 3.47444 26.345 4.47258 25.1329 5.72759C24.9985 5.85719 24.8191 5.92961 24.6324 5.92961C24.4457 5.92961 24.2663 5.85719 24.1319 5.72759C22.9198 4.47258 21.4674 3.47444 19.8613 2.79269C18.2553 2.11093 16.5284 1.7595 14.7836 1.75936C7.47709 1.75936 1.53279 7.87305 1.53279 15.3881C1.53279 30.1859 21.5252 45.503 24.6324 47.7976C27.7032 45.5121 30.6274 43.036 33.3879 40.384C33.4536 40.3177 33.5319 40.2652 33.6183 40.2296C33.7046 40.1941 33.7971 40.1761 33.8905 40.1768C33.9839 40.1776 34.0762 40.197 34.1619 40.2339C34.2477 40.2709 34.3252 40.3246 34.3898 40.3919C34.4545 40.4593 34.5051 40.5389 34.5385 40.626C34.572 40.7132 34.5876 40.8062 34.5846 40.8995C34.5816 40.9928 34.5599 41.0846 34.5209 41.1694C34.4819 41.2542 34.4263 41.3304 34.3573 41.3934C31.4306 44.2143 28.3159 46.8336 25.0349 49.2333C24.9168 49.3154 24.7763 49.3592 24.6324 49.3586Z" fill="#217946"/>
<path d="M37.3018 38.0887C37.1651 38.0888 37.0314 38.0488 36.9171 37.9737C36.8029 37.8986 36.7131 37.7918 36.6589 37.6662C36.6047 37.5407 36.5885 37.4021 36.6122 37.2674C36.6358 37.1328 36.6985 37.008 36.7922 36.9086C37.2472 36.4256 37.6955 35.929 38.1369 35.419C38.2589 35.2784 38.4317 35.1921 38.6173 35.179C38.8029 35.1659 38.9862 35.227 39.1267 35.349C39.2672 35.471 39.3536 35.6438 39.3667 35.8294C39.3798 36.015 39.3187 36.1982 39.1967 36.3388C38.7417 36.8638 38.2797 37.375 37.8107 37.8724C37.745 37.9412 37.666 37.9958 37.5785 38.033C37.491 38.0702 37.3969 38.0891 37.3018 38.0887Z" fill="#217946"/>
<path d="M25.6182 24.94C22.6334 19.9644 26.6132 14.9896 35.0712 15.4871C35.5733 23.9451 30.5939 27.9249 25.6182 24.94Z" stroke="#217946" stroke-width="1.25694" stroke-linecap="round" stroke-linejoin="round"/>
<path d="M20.9332 25.9695C23.0652 22.4161 20.2225 18.8627 14.1809 19.2171C13.8255 25.2588 17.3798 28.1015 20.9332 25.9695Z" stroke="#217946" stroke-width="1.25694" stroke-linecap="round" stroke-linejoin="round"/>
<path d="M17.8984 22.9331L23.8831 28.9178" stroke="#217946" stroke-width="1.25694" stroke-linecap="round" stroke-linejoin="round"/>
<path d="M31.3636 19.1926L25.6361 24.9201C25.0803 25.4759 24.6393 26.1357 24.3385 26.8619C24.0376 27.588 23.8828 28.3664 23.8828 29.1524V31.91" stroke="#217946" stroke-width="1.25694" stroke-linecap="round" stroke-linejoin="round"/>
</g>
<defs>
<clipPath id="clip0_1103_19356">
<rect width="48.999" height="48.999" fill="white" transform="translate(0.132812 0.359375)"/>
</clipPath>
</defs>
</svg>
