<svg width="305" height="506" viewBox="0 0 305 506" fill="none" xmlns="http://www.w3.org/2000/svg">
<path d="M-120.637 395.358C-117.65 401.01 -109.468 402.649 -104.55 398.314C-63.8273 363.754 87.9574 229.887 129.179 147.251C135.577 151.269 -50.3166 513.979 -319.764 464.998C-319.764 464.998 -359.411 474.997 -323.229 499.504C-281.692 527.636 -117.32 450.058 -87.5933 435.721C-84.6725 434.342 -81.4261 434.338 -78.3284 435.815C-51.6298 448.551 86.115 505.298 182.731 368.213C182.731 368.213 221.638 325.568 225.46 195.15C227.897 113.924 268.472 60.8195 298.707 32.1818C310.481 21.146 302.601 2.6462 285.707 1.5602C204.577 -3.26753 32.4008 4.25929 -90.941 135.031C-90.941 135.031 -207.397 228.02 -120.484 395.372L-120.637 395.358Z" fill="black" fill-opacity="0.06"/>
</svg>
